<mxfile host="app.diagrams.net" modified="2023-12-04T07:07:23.845Z" agent="Mozilla/5.0 (Windows NT 10.0; Win64; x64) AppleWebKit/537.36 (KHTML, like Gecko) Chrome/119.0.0.0 Safari/537.36 Edg/119.0.0.0" etag="UQN1wb4ux8VS6xCB-Km3" version="21.7.4" type="github">
  <diagram name="Page-1" id="CANg5gJ_kyuibQgOFW2I">
    <mxGraphModel dx="3352" dy="2268" grid="1" gridSize="10" guides="1" tooltips="1" connect="1" arrows="1" fold="1" page="1" pageScale="1" pageWidth="850" pageHeight="1100" math="0" shadow="0">
      <root>
        <mxCell id="0" />
        <mxCell id="1" parent="0" />
        <mxCell id="t3DTqNQoftH0QR9HUmPb-17" style="edgeStyle=orthogonalEdgeStyle;rounded=0;orthogonalLoop=1;jettySize=auto;html=1;" edge="1" parent="1" source="t3DTqNQoftH0QR9HUmPb-2" target="t3DTqNQoftH0QR9HUmPb-5">
          <mxGeometry relative="1" as="geometry" />
        </mxCell>
        <mxCell id="t3DTqNQoftH0QR9HUmPb-2" value="Cost Explorer" style="sketch=0;points=[[0,0,0],[0.25,0,0],[0.5,0,0],[0.75,0,0],[1,0,0],[0,1,0],[0.25,1,0],[0.5,1,0],[0.75,1,0],[1,1,0],[0,0.25,0],[0,0.5,0],[0,0.75,0],[1,0.25,0],[1,0.5,0],[1,0.75,0]];outlineConnect=0;fontColor=#232F3E;fillColor=#7AA116;strokeColor=#ffffff;dashed=0;verticalLabelPosition=bottom;verticalAlign=top;align=center;html=1;fontSize=12;fontStyle=0;aspect=fixed;shape=mxgraph.aws4.resourceIcon;resIcon=mxgraph.aws4.cost_explorer;" vertex="1" parent="1">
          <mxGeometry x="160" y="-10" width="78" height="78" as="geometry" />
        </mxCell>
        <mxCell id="t3DTqNQoftH0QR9HUmPb-13" style="edgeStyle=orthogonalEdgeStyle;rounded=0;orthogonalLoop=1;jettySize=auto;html=1;" edge="1" parent="1" source="t3DTqNQoftH0QR9HUmPb-4" target="t3DTqNQoftH0QR9HUmPb-6">
          <mxGeometry relative="1" as="geometry" />
        </mxCell>
        <mxCell id="t3DTqNQoftH0QR9HUmPb-4" value="" style="outlineConnect=0;dashed=0;verticalLabelPosition=bottom;verticalAlign=top;align=center;html=1;shape=mxgraph.aws3.ses;fillColor=#D9A741;gradientColor=none;" vertex="1" parent="1">
          <mxGeometry x="673.75" y="201.5" width="79.5" height="93" as="geometry" />
        </mxCell>
        <mxCell id="t3DTqNQoftH0QR9HUmPb-11" style="edgeStyle=orthogonalEdgeStyle;rounded=0;orthogonalLoop=1;jettySize=auto;html=1;entryX=0.079;entryY=0.387;entryDx=0;entryDy=0;entryPerimeter=0;" edge="1" parent="1" source="t3DTqNQoftH0QR9HUmPb-5" target="t3DTqNQoftH0QR9HUmPb-4">
          <mxGeometry relative="1" as="geometry" />
        </mxCell>
        <mxCell id="t3DTqNQoftH0QR9HUmPb-5" value="Lambda" style="outlineConnect=0;dashed=0;verticalLabelPosition=bottom;verticalAlign=top;align=center;html=1;shape=mxgraph.aws3.lambda_function;fillColor=#F58534;gradientColor=none;" vertex="1" parent="1">
          <mxGeometry x="330" y="201.5" width="70" height="72" as="geometry" />
        </mxCell>
        <mxCell id="t3DTqNQoftH0QR9HUmPb-20" style="edgeStyle=orthogonalEdgeStyle;rounded=0;orthogonalLoop=1;jettySize=auto;html=1;" edge="1" parent="1" source="t3DTqNQoftH0QR9HUmPb-6" target="t3DTqNQoftH0QR9HUmPb-19">
          <mxGeometry relative="1" as="geometry" />
        </mxCell>
        <mxCell id="t3DTqNQoftH0QR9HUmPb-28" value="&lt;br&gt;&lt;div style=&quot;text-align: left;&quot;&gt;&lt;ul style=&quot;box-sizing: border-box; margin-block: 0px; position: relative; list-style: none; margin: 0px; padding: 0px; color: rgb(69, 84, 100); font-family: SourceSansPro, &amp;quot;Helvetica Neue&amp;quot;, Helvetica, Arial, sans-serif; font-size: 12px;&quot; class=&quot;sn-widget-list sn-widget-list-table&quot;&gt;&lt;li style=&quot;box-sizing: border-box; color: rgb(74, 74, 74); align-items: flex-start; cursor: default; font-variant-numeric: normal; font-variant-east-asian: normal; font-variant-alternates: normal; font-kerning: auto; font-optical-sizing: auto; font-feature-settings: normal; font-variation-settings: normal; font-variant-position: normal; font-stretch: normal; font-size: 14px; line-height: normal; overflow: hidden; position: relative; transition: border 500ms cubic-bezier(0.075, 0.82, 0.165, 1) 0s, height 500ms cubic-bezier(0.075, 0.82, 0.165, 1) 0s, padding 500ms cubic-bezier(0.075, 0.82, 0.165, 1) 0s, color 500ms cubic-bezier(0.075, 0.82, 0.165, 1) 0s; transform: translate3d(0px, 0px, 0px); border-top: 0px; border-right: 0px; border-left: 0px; border-image: initial; padding-inline-start: 10px; padding: 2px 0px; border-block-end: none; border-bottom: none;&quot;&gt;&lt;/li&gt;&lt;/ul&gt;&lt;/div&gt;" style="edgeLabel;html=1;align=center;verticalAlign=middle;resizable=0;points=[];" vertex="1" connectable="0" parent="t3DTqNQoftH0QR9HUmPb-20">
          <mxGeometry x="0.3968" y="-2" relative="1" as="geometry">
            <mxPoint as="offset" />
          </mxGeometry>
        </mxCell>
        <mxCell id="t3DTqNQoftH0QR9HUmPb-29" value="servicenow@danskebank.dk, pim@danskebank.lt" style="edgeLabel;html=1;align=center;verticalAlign=middle;resizable=0;points=[];" vertex="1" connectable="0" parent="t3DTqNQoftH0QR9HUmPb-20">
          <mxGeometry x="0.4783" relative="1" as="geometry">
            <mxPoint x="112" y="-103" as="offset" />
          </mxGeometry>
        </mxCell>
        <mxCell id="t3DTqNQoftH0QR9HUmPb-6" value="" style="shape=image;verticalLabelPosition=bottom;labelBackgroundColor=default;verticalAlign=top;aspect=fixed;imageAspect=0;image=data:image/jpeg,/9j/4AAQSkZJRgABAQAAAQABAAD/2wCEAAkGBwgHBgkIBwgKCgkLDRYPDQwMDRsUFRAWIB0iIiAdHx8kKDQsJCYxJx8fLT0tMTU3Ojo6Iys/RD84QzQ5OjcBCgoKDQwNGg8PGjclHyU3Nzc3Nzc3Nzc3Nzc3Nzc3Nzc3Nzc3Nzc3Nzc3Nzc3Nzc3Nzc3Nzc3Nzc3Nzc3Nzc3N//AABEIAJMAkwMBIgACEQEDEQH/xAAbAAEAAgMBAQAAAAAAAAAAAAAABQcBBAYDAv/EADQQAAEDAwMCAwcEAQUBAAAAAAABAgMEBREGEiExQQcTIhQVMlFhcYEWQlJykTM0gpKhI//EABkBAQEBAQEBAAAAAAAAAAAAAAABAgQDBf/EAB4RAQEAAgIDAQEAAAAAAAAAAAABAhESMQMTIVEE/9oADAMBAAIRAxEAPwCrAAdz5oAAAAAAAAAAAAAAAAAAAAAAAAAAAAAAAAAAAAAAAAAAAAAAAAAAAAAAAAAAAAAAAAAAAAAAAAAAAAAAAAAAAAAADvgAAAoAAgAAAAAAAAAABlrVc5GtRXOcuEa1Mqq9kRDBu2WaamvNuqKWHz6iGqikihxnzHNcio38qmPyKs7TFRoLVNLbnXCezysp2sV7l3s3NaiZyrc56fQ8LHo3UN+pVqrVbJJqdFVElV7WNcv03KmfwWhdKT9eUV1kpZb9ZLnHT7Kijq97ad+EX04X0qmU6phe+Dc1LV2ij09YHLTX2W3pA1aeSyyK1jV2pjftcnK9s/XueHtr39OKnaHTF7r7pPa6a3SrXQN3SwPVGOanHPqVE7p/k2/0LqZJaaJ9qkjlqtywsklja521MrwruOOylvWO8QXnxDZM2111vqWWlyTJXQpG6RqvYrFTCrn932zgqCq1be11FFcaq4VFRJR1iyxMe/0tw7CtROiIrePspqZZVm4YYoqO1V0l390spnrcPOWDyOM70XCp8uy8ncWqiqLNo7UlvuWlUqKmFV82r82JfIyxFTdzn05R3pznJ3b6O0Utxn8SWyNWlktjZWRInKyqnxf2Vu1uPnk5HS9XNcPDLXVbVuV09RJJJIvfKsQlz3G5hMbpxlk0ZqK+0vtVstcssHaVzmsR323KmfwabrBd2XdLQ63VCXFV4p9nqX6/LH16FqeJ8uoYIrK3SKVyWf2dNi2xjnerjbu2c4xjHbqbHh828t1Dep9WR1K3laCNadHbUcsPOUj7fFtzjvjJfZdbZ9c3pVt+0hf9P0yVV3t0kFOqonmo5r2oq9lVqrj8m5B4easqPLWKzSK2SPzGvWWNG4Xpzu/86nbu1JaYdNX+jbZNWTUskL0qlr2LIkLlRUyqudlvOF4+WfqefirerrbLPpqC2189IyWj3yeQ9WK5WtZjlOe6kmeVul9eE+1WF1tVfaK51Fc6WWmqW9WPTqnZUVOFT6obkelr3JAkzbfJtVMomW7v8ZyWvqKKG5w6KuNwVJKt1PI5Xr+9yxsdynflMnB19+vkeq3U8bnoxs6MZT7EVrm5+2eU7nN5P6fJy44a+Td25vLvHPjHPMsF1fZ5ruykctBBJ5U0qOT/AObuOHNzlOqdu5j3Ddfcfvv2N/uzfs9o3NxnO3pnPXjOC2rRNRz6juWl6lW+Rerer1T5SplufurUT/ohOOp7UtG7w33IsiWhHeYv8umf7Z9R7eP+i54TLXb28eEzxmSiJLHc47HFe5KVW22V6sjnVzfU7Kpwmc9UXt2I4sbxaqEint2mbW17qOyUzVmRjcoj3NTCux0VG8/81K5OjG2zdZzkl1AAFYD2o6qooqqKqo5nwzxO3MkjXCtX5niArqrj4iapuVudQVNzXyHt2yLHG1jnt7orkTueGn9b6h09S+y22vVKblWwysR7WZ/jnp9jnATjOl55froYNbaihu8l2S4vfWyR+Usj2o5EZnO1E6ImU7EA96vkc93LnKrl+6nyCySJbb2lH6guj7Cyxuq3LbmSeYkOE65z164yucCh1Bc7faKy00lQjKKt/wBePYi7uMdV5ThCLBNRd10ti13qOw0nslur1SmT4IpWJIjP656fboaMup75Lem3l9zqPeDeGzbvhT+KJ02/TGCIA4w5Zfrpr1r7Ut7oHUNdcF9me3bIyJiM8xPk5U5VPoRt71Bc77HSMuc6StpI1jhRGI3a3j5deiEWBMZOi5Wpqs1TeK2nt8E9XmO3f7XaxrVZxjrjnhD4fqa8PrEqlrpEkT9qYRn229CIBm+LC/bGb97SDbzcG3iO7tqHJXRSI9kn8VTpx0xjjBsfqa8fqFL/AO2O95ouUm2pj4duNvTGOxDg1McZNSLLZ036i819TVVlVNUOdNWrmd2E9amgAUAAEAAAAAAAAAAAAAAAAAAAAAAAAAAAAAAAAAAAAAAAAAAAAAAAAAAAAAAAAAAAAAAAAAAAAAAAAAAAAAAGTAAAAAAAAAAAAAAAAAAAAAAAAAGQAB//2Q==;" vertex="1" parent="1">
          <mxGeometry x="660" y="390" width="107" height="107" as="geometry" />
        </mxCell>
        <mxCell id="t3DTqNQoftH0QR9HUmPb-16" style="edgeStyle=orthogonalEdgeStyle;rounded=0;orthogonalLoop=1;jettySize=auto;html=1;entryX=-0.014;entryY=0.632;entryDx=0;entryDy=0;entryPerimeter=0;" edge="1" parent="1" source="t3DTqNQoftH0QR9HUmPb-14" target="t3DTqNQoftH0QR9HUmPb-5">
          <mxGeometry relative="1" as="geometry" />
        </mxCell>
        <mxCell id="t3DTqNQoftH0QR9HUmPb-14" value="Event bridge/cloud watch" style="sketch=0;points=[[0,0,0],[0.25,0,0],[0.5,0,0],[0.75,0,0],[1,0,0],[0,1,0],[0.25,1,0],[0.5,1,0],[0.75,1,0],[1,1,0],[0,0.25,0],[0,0.5,0],[0,0.75,0],[1,0.25,0],[1,0.5,0],[1,0.75,0]];outlineConnect=0;fontColor=#232F3E;fillColor=#E7157B;strokeColor=#ffffff;dashed=0;verticalLabelPosition=bottom;verticalAlign=top;align=center;html=1;fontSize=12;fontStyle=0;aspect=fixed;shape=mxgraph.aws4.resourceIcon;resIcon=mxgraph.aws4.eventbridge;" vertex="1" parent="1">
          <mxGeometry x="30" y="201.5" width="90" height="90" as="geometry" />
        </mxCell>
        <mxCell id="t3DTqNQoftH0QR9HUmPb-25" style="edgeStyle=orthogonalEdgeStyle;rounded=0;orthogonalLoop=1;jettySize=auto;html=1;" edge="1" parent="1" source="t3DTqNQoftH0QR9HUmPb-19">
          <mxGeometry relative="1" as="geometry">
            <mxPoint x="100" y="443.5" as="targetPoint" />
          </mxGeometry>
        </mxCell>
        <mxCell id="t3DTqNQoftH0QR9HUmPb-19" value="Incidents" style="whiteSpace=wrap;html=1;aspect=fixed;" vertex="1" parent="1">
          <mxGeometry x="320" y="403.5" width="80" height="80" as="geometry" />
        </mxCell>
        <mxCell id="t3DTqNQoftH0QR9HUmPb-24" value="" style="image;aspect=fixed;perimeter=ellipsePerimeter;html=1;align=center;shadow=0;dashed=0;spacingTop=3;image=img/lib/active_directory/users.svg;" vertex="1" parent="1">
          <mxGeometry x="60" y="420" width="33" height="50" as="geometry" />
        </mxCell>
        <mxCell id="t3DTqNQoftH0QR9HUmPb-26" value="&lt;font style=&quot;font-size: 24px;&quot;&gt;Reporting1&lt;/font&gt;" style="text;html=1;align=center;verticalAlign=middle;resizable=0;points=[];autosize=1;strokeColor=none;fillColor=none;" vertex="1" parent="1">
          <mxGeometry x="512" y="33" width="140" height="40" as="geometry" />
        </mxCell>
        <mxCell id="t3DTqNQoftH0QR9HUmPb-30" value="Email SPI owners or Finops mailbox" style="text;html=1;align=center;verticalAlign=middle;resizable=0;points=[];autosize=1;strokeColor=none;fillColor=none;" vertex="1" parent="1">
          <mxGeometry x="41" y="418" width="220" height="30" as="geometry" />
        </mxCell>
        <mxCell id="t3DTqNQoftH0QR9HUmPb-31" value="&lt;font style=&quot;font-size: 24px;&quot;&gt;Anamoly reporting&amp;nbsp;&lt;/font&gt;" style="text;html=1;align=center;verticalAlign=middle;resizable=0;points=[];autosize=1;strokeColor=none;fillColor=none;" vertex="1" parent="1">
          <mxGeometry x="-19" y="573" width="220" height="40" as="geometry" />
        </mxCell>
        <mxCell id="t3DTqNQoftH0QR9HUmPb-42" style="edgeStyle=orthogonalEdgeStyle;rounded=0;orthogonalLoop=1;jettySize=auto;html=1;entryX=0;entryY=0.48;entryDx=0;entryDy=0;entryPerimeter=0;" edge="1" parent="1" source="t3DTqNQoftH0QR9HUmPb-32" target="t3DTqNQoftH0QR9HUmPb-40">
          <mxGeometry relative="1" as="geometry" />
        </mxCell>
        <mxCell id="t3DTqNQoftH0QR9HUmPb-43" style="edgeStyle=orthogonalEdgeStyle;rounded=0;orthogonalLoop=1;jettySize=auto;html=1;" edge="1" parent="1" source="t3DTqNQoftH0QR9HUmPb-32" target="t3DTqNQoftH0QR9HUmPb-41">
          <mxGeometry relative="1" as="geometry" />
        </mxCell>
        <mxCell id="t3DTqNQoftH0QR9HUmPb-32" value="Using Cost management Logo" style="sketch=0;points=[[0,0,0],[0.25,0,0],[0.5,0,0],[0.75,0,0],[1,0,0],[0,1,0],[0.25,1,0],[0.5,1,0],[0.75,1,0],[1,1,0],[0,0.25,0],[0,0.5,0],[0,0.75,0],[1,0.25,0],[1,0.5,0],[1,0.75,0]];outlineConnect=0;fontColor=#232F3E;fillColor=#7AA116;strokeColor=#ffffff;dashed=0;verticalLabelPosition=bottom;verticalAlign=top;align=center;html=1;fontSize=12;fontStyle=0;aspect=fixed;shape=mxgraph.aws4.resourceIcon;resIcon=mxgraph.aws4.cost_management;" vertex="1" parent="1">
          <mxGeometry x="37.5" y="782" width="78" height="78" as="geometry" />
        </mxCell>
        <mxCell id="t3DTqNQoftH0QR9HUmPb-38" style="edgeStyle=orthogonalEdgeStyle;rounded=0;orthogonalLoop=1;jettySize=auto;html=1;entryX=0.25;entryY=1;entryDx=0;entryDy=0;entryPerimeter=0;" edge="1" parent="1" source="t3DTqNQoftH0QR9HUmPb-34" target="t3DTqNQoftH0QR9HUmPb-32">
          <mxGeometry relative="1" as="geometry" />
        </mxCell>
        <mxCell id="t3DTqNQoftH0QR9HUmPb-34" value="" style="outlineConnect=0;dashed=0;verticalLabelPosition=bottom;verticalAlign=top;align=center;html=1;shape=mxgraph.aws3.ec2_compute_container;fillColor=#F58534;gradientColor=none;" vertex="1" parent="1">
          <mxGeometry x="-222" y="850" width="60" height="34.5" as="geometry" />
        </mxCell>
        <mxCell id="t3DTqNQoftH0QR9HUmPb-37" style="edgeStyle=orthogonalEdgeStyle;rounded=0;orthogonalLoop=1;jettySize=auto;html=1;entryX=0.5;entryY=0;entryDx=0;entryDy=0;entryPerimeter=0;" edge="1" parent="1" source="t3DTqNQoftH0QR9HUmPb-35" target="t3DTqNQoftH0QR9HUmPb-32">
          <mxGeometry relative="1" as="geometry" />
        </mxCell>
        <mxCell id="t3DTqNQoftH0QR9HUmPb-35" value="" style="sketch=0;points=[[0,0,0],[0.25,0,0],[0.5,0,0],[0.75,0,0],[1,0,0],[0,1,0],[0.25,1,0],[0.5,1,0],[0.75,1,0],[1,1,0],[0,0.25,0],[0,0.5,0],[0,0.75,0],[1,0.25,0],[1,0.5,0],[1,0.75,0]];outlineConnect=0;fontColor=#232F3E;fillColor=#ED7100;strokeColor=#ffffff;dashed=0;verticalLabelPosition=bottom;verticalAlign=top;align=center;html=1;fontSize=12;fontStyle=0;aspect=fixed;shape=mxgraph.aws4.resourceIcon;resIcon=mxgraph.aws4.ec2;" vertex="1" parent="1">
          <mxGeometry x="-222" y="710" width="78" height="78" as="geometry" />
        </mxCell>
        <mxCell id="t3DTqNQoftH0QR9HUmPb-39" style="edgeStyle=orthogonalEdgeStyle;rounded=0;orthogonalLoop=1;jettySize=auto;html=1;" edge="1" parent="1" source="t3DTqNQoftH0QR9HUmPb-36">
          <mxGeometry relative="1" as="geometry">
            <mxPoint x="60" y="899.9999999999995" as="targetPoint" />
          </mxGeometry>
        </mxCell>
        <mxCell id="t3DTqNQoftH0QR9HUmPb-36" value="" style="outlineConnect=0;dashed=0;verticalLabelPosition=bottom;verticalAlign=top;align=center;html=1;shape=mxgraph.aws3.ecs;fillColor=#F58534;gradientColor=none;" vertex="1" parent="1">
          <mxGeometry x="-216" y="970" width="72" height="67.5" as="geometry" />
        </mxCell>
        <mxCell id="t3DTqNQoftH0QR9HUmPb-46" style="edgeStyle=orthogonalEdgeStyle;rounded=0;orthogonalLoop=1;jettySize=auto;html=1;" edge="1" parent="1" source="t3DTqNQoftH0QR9HUmPb-40" target="t3DTqNQoftH0QR9HUmPb-44">
          <mxGeometry relative="1" as="geometry">
            <mxPoint x="710" y="740" as="targetPoint" />
          </mxGeometry>
        </mxCell>
        <mxCell id="t3DTqNQoftH0QR9HUmPb-48" value="servicenow@danskebank.dk, pim@danskebank.lt" style="edgeLabel;html=1;align=center;verticalAlign=middle;resizable=0;points=[];" vertex="1" connectable="0" parent="t3DTqNQoftH0QR9HUmPb-46">
          <mxGeometry x="-0.4816" relative="1" as="geometry">
            <mxPoint as="offset" />
          </mxGeometry>
        </mxCell>
        <mxCell id="t3DTqNQoftH0QR9HUmPb-40" value="" style="outlineConnect=0;dashed=0;verticalLabelPosition=bottom;verticalAlign=top;align=center;html=1;shape=mxgraph.aws3.sns;fillColor=#D9A741;gradientColor=none;" vertex="1" parent="1">
          <mxGeometry x="321.75" y="690" width="76.5" height="76.5" as="geometry" />
        </mxCell>
        <mxCell id="t3DTqNQoftH0QR9HUmPb-47" style="edgeStyle=orthogonalEdgeStyle;rounded=0;orthogonalLoop=1;jettySize=auto;html=1;" edge="1" parent="1" source="t3DTqNQoftH0QR9HUmPb-41" target="t3DTqNQoftH0QR9HUmPb-44">
          <mxGeometry relative="1" as="geometry" />
        </mxCell>
        <mxCell id="t3DTqNQoftH0QR9HUmPb-49" value="servicenow@danskebank.dk, pim@danskebank.lt" style="edgeLabel;html=1;align=center;verticalAlign=middle;resizable=0;points=[];" vertex="1" connectable="0" parent="t3DTqNQoftH0QR9HUmPb-47">
          <mxGeometry x="-0.6763" y="-1" relative="1" as="geometry">
            <mxPoint as="offset" />
          </mxGeometry>
        </mxCell>
        <mxCell id="t3DTqNQoftH0QR9HUmPb-41" value="" style="outlineConnect=0;dashed=0;verticalLabelPosition=bottom;verticalAlign=top;align=center;html=1;shape=mxgraph.aws3.ses;fillColor=#D9A741;gradientColor=none;" vertex="1" parent="1">
          <mxGeometry x="310" y="877" width="79.5" height="93" as="geometry" />
        </mxCell>
        <mxCell id="t3DTqNQoftH0QR9HUmPb-51" style="edgeStyle=orthogonalEdgeStyle;rounded=0;orthogonalLoop=1;jettySize=auto;html=1;" edge="1" parent="1" source="t3DTqNQoftH0QR9HUmPb-44" target="t3DTqNQoftH0QR9HUmPb-50">
          <mxGeometry relative="1" as="geometry" />
        </mxCell>
        <mxCell id="t3DTqNQoftH0QR9HUmPb-52" value="Finops Mailbox" style="edgeLabel;html=1;align=center;verticalAlign=middle;resizable=0;points=[];" vertex="1" connectable="0" parent="t3DTqNQoftH0QR9HUmPb-51">
          <mxGeometry x="-0.124" y="-8" relative="1" as="geometry">
            <mxPoint as="offset" />
          </mxGeometry>
        </mxCell>
        <mxCell id="t3DTqNQoftH0QR9HUmPb-44" value="" style="shape=image;verticalLabelPosition=bottom;labelBackgroundColor=default;verticalAlign=top;aspect=fixed;imageAspect=0;image=data:image/jpeg,/9j/4AAQSkZJRgABAQAAAQABAAD/2wCEAAkGBwgHBgkIBwgKCgkLDRYPDQwMDRsUFRAWIB0iIiAdHx8kKDQsJCYxJx8fLT0tMTU3Ojo6Iys/RD84QzQ5OjcBCgoKDQwNGg8PGjclHyU3Nzc3Nzc3Nzc3Nzc3Nzc3Nzc3Nzc3Nzc3Nzc3Nzc3Nzc3Nzc3Nzc3Nzc3Nzc3Nzc3N//AABEIAJMAkwMBIgACEQEDEQH/xAAbAAEAAgMBAQAAAAAAAAAAAAAABQcBBAYDAv/EADQQAAEDAwMCAwcEAQUBAAAAAAABAgMEBREGEiExQQcTIhQVMlFhcYEWQlJykTM0gpKhI//EABkBAQEBAQEBAAAAAAAAAAAAAAABAgQDBf/EAB4RAQEAAgIDAQEAAAAAAAAAAAABAhESMQMTIVEE/9oADAMBAAIRAxEAPwCrAAdz5oAAAAAAAAAAAAAAAAAAAAAAAAAAAAAAAAAAAAAAAAAAAAAAAAAAAAAAAAAAAAAAAAAAAAAAAAAAAAAAAAAAAAAADvgAAAoAAgAAAAAAAAAABlrVc5GtRXOcuEa1Mqq9kRDBu2WaamvNuqKWHz6iGqikihxnzHNcio38qmPyKs7TFRoLVNLbnXCezysp2sV7l3s3NaiZyrc56fQ8LHo3UN+pVqrVbJJqdFVElV7WNcv03KmfwWhdKT9eUV1kpZb9ZLnHT7Kijq97ad+EX04X0qmU6phe+Dc1LV2ij09YHLTX2W3pA1aeSyyK1jV2pjftcnK9s/XueHtr39OKnaHTF7r7pPa6a3SrXQN3SwPVGOanHPqVE7p/k2/0LqZJaaJ9qkjlqtywsklja521MrwruOOylvWO8QXnxDZM2111vqWWlyTJXQpG6RqvYrFTCrn932zgqCq1be11FFcaq4VFRJR1iyxMe/0tw7CtROiIrePspqZZVm4YYoqO1V0l390spnrcPOWDyOM70XCp8uy8ncWqiqLNo7UlvuWlUqKmFV82r82JfIyxFTdzn05R3pznJ3b6O0Utxn8SWyNWlktjZWRInKyqnxf2Vu1uPnk5HS9XNcPDLXVbVuV09RJJJIvfKsQlz3G5hMbpxlk0ZqK+0vtVstcssHaVzmsR323KmfwabrBd2XdLQ63VCXFV4p9nqX6/LH16FqeJ8uoYIrK3SKVyWf2dNi2xjnerjbu2c4xjHbqbHh828t1Dep9WR1K3laCNadHbUcsPOUj7fFtzjvjJfZdbZ9c3pVt+0hf9P0yVV3t0kFOqonmo5r2oq9lVqrj8m5B4easqPLWKzSK2SPzGvWWNG4Xpzu/86nbu1JaYdNX+jbZNWTUskL0qlr2LIkLlRUyqudlvOF4+WfqefirerrbLPpqC2189IyWj3yeQ9WK5WtZjlOe6kmeVul9eE+1WF1tVfaK51Fc6WWmqW9WPTqnZUVOFT6obkelr3JAkzbfJtVMomW7v8ZyWvqKKG5w6KuNwVJKt1PI5Xr+9yxsdynflMnB19+vkeq3U8bnoxs6MZT7EVrm5+2eU7nN5P6fJy44a+Td25vLvHPjHPMsF1fZ5ruykctBBJ5U0qOT/AObuOHNzlOqdu5j3Ddfcfvv2N/uzfs9o3NxnO3pnPXjOC2rRNRz6juWl6lW+Rerer1T5SplufurUT/ohOOp7UtG7w33IsiWhHeYv8umf7Z9R7eP+i54TLXb28eEzxmSiJLHc47HFe5KVW22V6sjnVzfU7Kpwmc9UXt2I4sbxaqEint2mbW17qOyUzVmRjcoj3NTCux0VG8/81K5OjG2zdZzkl1AAFYD2o6qooqqKqo5nwzxO3MkjXCtX5niArqrj4iapuVudQVNzXyHt2yLHG1jnt7orkTueGn9b6h09S+y22vVKblWwysR7WZ/jnp9jnATjOl55froYNbaihu8l2S4vfWyR+Usj2o5EZnO1E6ImU7EA96vkc93LnKrl+6nyCySJbb2lH6guj7Cyxuq3LbmSeYkOE65z164yucCh1Bc7faKy00lQjKKt/wBePYi7uMdV5ThCLBNRd10ti13qOw0nslur1SmT4IpWJIjP656fboaMup75Lem3l9zqPeDeGzbvhT+KJ02/TGCIA4w5Zfrpr1r7Ut7oHUNdcF9me3bIyJiM8xPk5U5VPoRt71Bc77HSMuc6StpI1jhRGI3a3j5deiEWBMZOi5Wpqs1TeK2nt8E9XmO3f7XaxrVZxjrjnhD4fqa8PrEqlrpEkT9qYRn229CIBm+LC/bGb97SDbzcG3iO7tqHJXRSI9kn8VTpx0xjjBsfqa8fqFL/AO2O95ouUm2pj4duNvTGOxDg1McZNSLLZ036i819TVVlVNUOdNWrmd2E9amgAUAAEAAAAAAAAAAAAAAAAAAAAAAAAAAAAAAAAAAAAAAAAAAAAAAAAAAAAAAAAAAAAAAAAAAAAAAAAAAAAAAGTAAAAAAAAAAAAAAAAAAAAAAAAAGQAB//2Q==;" vertex="1" parent="1">
          <mxGeometry x="646.25" y="770" width="107" height="107" as="geometry" />
        </mxCell>
        <mxCell id="t3DTqNQoftH0QR9HUmPb-50" value="" style="sketch=0;pointerEvents=1;shadow=0;dashed=0;html=1;strokeColor=none;fillColor=#505050;labelPosition=center;verticalLabelPosition=bottom;verticalAlign=top;outlineConnect=0;align=center;shape=mxgraph.office.concepts.mailbox;" vertex="1" parent="1">
          <mxGeometry x="980" y="811" width="53" height="49" as="geometry" />
        </mxCell>
        <mxCell id="t3DTqNQoftH0QR9HUmPb-53" value="&lt;font style=&quot;font-size: 36px;&quot;&gt;Right Sizing operations&lt;/font&gt;" style="text;html=1;align=center;verticalAlign=middle;resizable=0;points=[];autosize=1;strokeColor=none;fillColor=none;" vertex="1" parent="1">
          <mxGeometry x="305" y="1150" width="390" height="60" as="geometry" />
        </mxCell>
        <mxCell id="t3DTqNQoftH0QR9HUmPb-57" value="Test&amp;nbsp; and Systs&amp;nbsp;" style="rounded=0;whiteSpace=wrap;html=1;" vertex="1" parent="1">
          <mxGeometry x="-430" y="1260" width="1465" height="480" as="geometry" />
        </mxCell>
        <mxCell id="t3DTqNQoftH0QR9HUmPb-74" style="edgeStyle=orthogonalEdgeStyle;rounded=0;orthogonalLoop=1;jettySize=auto;html=1;" edge="1" parent="1" source="t3DTqNQoftH0QR9HUmPb-61" target="t3DTqNQoftH0QR9HUmPb-67">
          <mxGeometry relative="1" as="geometry" />
        </mxCell>
        <mxCell id="t3DTqNQoftH0QR9HUmPb-77" value="&lt;font style=&quot;font-size: 14px;&quot;&gt;emails can be sent to&amp;nbsp; SPi&amp;nbsp; owners using templates&amp;nbsp;&lt;/font&gt;" style="edgeLabel;html=1;align=center;verticalAlign=middle;resizable=0;points=[];" vertex="1" connectable="0" parent="t3DTqNQoftH0QR9HUmPb-74">
          <mxGeometry x="-0.5649" y="-2" relative="1" as="geometry">
            <mxPoint as="offset" />
          </mxGeometry>
        </mxCell>
        <mxCell id="t3DTqNQoftH0QR9HUmPb-61" value="Githiub" style="sketch=0;outlineConnect=0;fontColor=#232F3E;gradientColor=none;fillColor=#232F3D;strokeColor=none;dashed=0;verticalLabelPosition=bottom;verticalAlign=top;align=center;html=1;fontSize=12;fontStyle=0;aspect=fixed;pointerEvents=1;shape=mxgraph.aws4.git_repository;" vertex="1" parent="1">
          <mxGeometry x="-240" y="1370" width="60" height="78" as="geometry" />
        </mxCell>
        <mxCell id="t3DTqNQoftH0QR9HUmPb-75" style="edgeStyle=orthogonalEdgeStyle;rounded=0;orthogonalLoop=1;jettySize=auto;html=1;" edge="1" parent="1" source="t3DTqNQoftH0QR9HUmPb-67" target="t3DTqNQoftH0QR9HUmPb-72">
          <mxGeometry relative="1" as="geometry" />
        </mxCell>
        <mxCell id="t3DTqNQoftH0QR9HUmPb-79" style="edgeStyle=orthogonalEdgeStyle;rounded=0;orthogonalLoop=1;jettySize=auto;html=1;" edge="1" parent="1" source="t3DTqNQoftH0QR9HUmPb-67" target="t3DTqNQoftH0QR9HUmPb-78">
          <mxGeometry relative="1" as="geometry" />
        </mxCell>
        <mxCell id="t3DTqNQoftH0QR9HUmPb-67" value="Jenkins" style="shape=image;verticalLabelPosition=bottom;labelBackgroundColor=default;verticalAlign=top;aspect=fixed;imageAspect=0;image=data:image/png,iVBORw0KGgoAAAANSUhEUgAAARkAAAEQCAYAAACEHwDfAAAgAElEQVR4Aey99ZvbRhc2/P0b7w/v+zRZ5vUyb3aTTTbMTBvYMDMzMzRN2zRJw22oabBhZmjDzGnSJm0Y2qfpc77r1mbkkTSyZVvetdfSdfkaWZZGM2fOuT0zh/4/so4yocDHjx/p0MGD1LtHT4oMDaOg/3zmN5/gzypQ21ataMf27fTxn49lQj/rpf5Dgf/Pf5paPlp66+ZNmjp5MqWnpHoFVMKDgykhJpqS4mIpNSGe0pMSKCslSbrmDSBLS0qm+XPn0V9//VU+BsjqhekUsEDGdJKKKzxx/Di1adnSVGApyM2igd070MJpo2jn2q/pxslt9O7BGfrw6Kzw8/L2cbp2fCsd3LyM1n4zi2aOG0wtGtSmyJAQj9uVl5MrzczEvbeuBjIFLJDx8ujv37ePGjdo6LEQs1lIcnwcjR7Ync7uXScEEj2AcXT91d0TdGjLcpoxZiA1qVOdMBti73O17NW9B/3+++9epqpVvT9RwAIZL4zW//73P9q+dRvVql7DbWFVC3ftqpVpx/df0dv7p0wDFz3geXHrGO37YQlNGdGP6lcvoNCKQS71Iy4qmlYsW+YFylpV+iMFLJAxedROnjhBdWrWckko1YDCf89JS6H1S+bQ+4f6yyA9sDDr+h83jtCKL6ZQlZxMl/rVr3cf+vvvv02msFWdv1HAAhmTRuzunbvUpbiTUyHErKB5kybUtVMnCqlQUfd+W3S0tNeCpYxZYOFpPQA67P00r28cRLFU/PPPP02islWNP1LAAhkPR+3Fixc0fuxYCgtyvI9RpVIeTZ00iU6fOE63rl+TPh2LijQgg/2QcYN70m9XDvoMuIjACXtCvYpbG1pK5WZm0Y3r1z2ktPW4v1LAAhk3R+6ff/6hJYsXU0JsnAYo2HIHvw3o25d2bt8mAwsA5sbVK7Rk0SKKDo9QPNumST26dXqHF8DlDL17cJLe3TtGb28fpje3DtGbWwfo9c399Pr6Xnp1fQ+9uraLXl77iV5e2ymdv762S7r++sZeenNjn3Tv29uHpDrePzhFHx6WaLDunttJ44f2prhIZV8YDViJfZrDhw67SW3rMX+mgAUybowe1NGYmTABUpf1atWilcu+petXLivABQAza/p0DTDFRkRIex6iGYMr194/OkPv7h+nt3eP0JtbBwkAIYHHlR300guf19d205ubB+jtvWP07PphGjWguy5NQKOIkFA6sH+/GxS3HvFnClgg48LovXr1ioYOHkyweFUDC75XysqmFUuXaoAF4PLL2TPUpmUrzXOwU7l95ic3Zy9n6N294/Tm9kF6dX23V4DEFXACqG1bNY8SYmI0/WT0AtBArW8dgUMBC2QMjjVU0rBuZcLCl4lx8TRnxgzhzOXAvr00ddIUykrPUDwbHRZGS+dNdF1r9PAsvbt7rGSWcuWnMgcWEQjdOPI9NaunvzkMoNm3d69Bylu3+TsFLJBxMoJPHj+h4g4dFADBAAY+RyOHDqWLv/ysmb0cPXiQpk+ZRp2LO1NSfILi+aZ1a9DNU9tdmr1gHwRLoJdXd/oksKjB5vnl7TSmf2dFvxndUIYHh9DePRbQOGG/cvGzBTIOhnHVypUUGxmlERQsl7p16kwnjx3VgMuJo0dp9oxZ1LN7T2rXpohiIiIVz88aP8Sl2QvABRu0aiH2l++j+3VU9F8NNNbSyQEDlpOfLJARDCQ0R0MGDRYKBzRCq5Yv04DLpQvnacH8z6lXj14SwLRs1kKh1oZNzPIFUwzPXt4/PCVtqr686p1N29IEqRG92wtpCcCJiYykK1euCEbBulReKGCBjGokYffSvElToVBkpafTvl27NACzf88eGjp4qAQumMF07dyVosLC5ToigkNoy6oFhgEGquJXPrrf4i44De3RVqYHP5vBeWZamuXvpOLD8vTVAhluNJ//+ZwK8vKFwtCwbj36+cxpBcBARb3km8Xy7AUAg09eTiW5DtiPwPnQiCoaSyPYrLgryL783IvL26lHUROZLmqgqVe7Nr1//54bDeu0vFDAAplPI/nhwwdqWK++UAj69uyp0RydPXWSxowaLc9eGMC0am4P55Bii6dz+9YbAhjYtry66pvaIrPA67eff6TqeVlCGgN0unXuQnAutY7yRQELZIjo33//pa6dtJoQuArMmz1LMXuBzcuxw4dp8MBBGoDp3rU7wbIVApObnirFdzEyg5G0Rl4wljMLHMys5/K+FRTvwDp4+pSp5UvCrN6QBTJENG/OXM2/K/ZUNq5bpwGY/Xv3UL++/TQAg5lMtSpVpXrSEmx0/5fdBmYwZ+iNH2uO3AWfbctm6Bo0AqCPHztmiWY5okDAg8zDBw80MXahol62ZIkGYHbv+Il69+wtBJjWLVpJghNWMYiObl/pHGAenvVr1bSrAAP3BvhLwQXhw8PTUlQ+9b4M+56fm2uF87RApvxQoHPHYs0sZtK4cRqAOXXiuO4MBtqkmE/2NItmjXMOMI8wg9lXLjd4ReADp0z1shFhI9o1148YaC2byo+MBfRMBtkC2L8nKzu1b68BmKsXL9LoEaOEMxgADAsK3rlNM40wiYQLPj4iYSxv17CR/e6+fjycp9cOUaWMNM0YYCxCg4Is+5lygjMBDTLt2ihtNxJiYyVHRmzuss/Na1dpzqzZVNyhmGBg165tO+rUsVj63qJpc9miNyIkxGmYBvx7m6KivrqTXvmBewGcN9Ugq/5+/sBGigoNFQIN1NpIHWMd/k2BgAWZZ8+eaQIu8ZqkY4cP0Rfz5lHj+g1kIGGzHVE5YWgfpwLlvnvAT9J+xrv7JxUuCe/vn5Cu++IM6PWNfRp6IJMC9qumjOxPM8cOopULp9Lu9d/Q5OF9hCADOiO3k3X4NwUCFmQQcIoHi8q5lWjdmjU0eMAAysvJUfzG3yc6T4qPo2fXtPsO/L/227tH3VoiYbNUChKlk+YE73h754hbdXsTnACArP9IxTKkV7GUC0pEP0fX2rZq7d8SZrU+cFXYdWvVdglIHAkCkqcxgRKVkiWvi4Z2iA/z/v5JYb0XDm2ib+aMp5njBtGscUNo1/pF9Py6b20kf3hUEvgc2RXat2jkNq2h6Xtw/74lqn5MgYCbydy/d486FLVzi+mT4m1Uv04d6tOjB3XuqPQuPr37eyEgQNheuxhQChvDouwE29YspPysdGHbE+NiaMvSaT4xowFAMrBF8jlHAG3kN0vT5McIQxRYM5lFX32tsYlxxOQI84CQDlhGqf2Wjh06pBCeScP7yoLFBAwlljuuLEuwb8NmAaye8wd/oJYN6yjep9fu1QvGuvQ+V9pm9F7EDUbb7/+821Cb9frCrqcmJhE8463DPykQMDMZ/BsypnVUYnresmkzWvL113Tl4gVZy8S0TXyZlWafVdSskqcBGUSwMyqYuA+aJx5gMJuZMKw3hVbUT52i7ktOWjL9eXGbS+91pY1G7oUHOfqxZdXnEs1t0VHUq31TWjZnJO1cNZs2LZ5CS2cNp25tGlFCjDZej7pP+L5jm7UB7J8QEyAzmelTpxkCmMIqBbRt84+6wHL5wnnau3s3rV3zHS2YN5+qVSmQ642PilKADADClSh2EMz3D0/LdeB5bJaKBM7RtdiI8DIHGQARNqO3r5hJPds1ofsn1uuCHgBx3rh+hHCkjvrVtlUrf5WxgG93uZ/JnDp50qGfDBgbTo2zZ8wg2MTwMxWcXzr/C/24cSPNmDpdE9KhZmF1hWD8efOoDBKwcjXyr8/uwbKKLY8AMIN66O9lYGZTvzCfOrWsT4O6tCYEherQrC5Vq5RJXdo0cum97P3eKJ9fMj6jun5wNRW3EHvBY4zgrPr+3buAF1h/JEC5BhmEb4AfjKN/yFqFhYqEawxk4GkNIzwW6Y6FcuDLurWU+yRXj20pAQoY3bkYdOr9A7smaWAP5aYya39+RgotmjaE7hxf6zNAYjY4bVs+g2xRypClrP+HDx3yRxkL+DaXa5DBRi9jUFHZtGFDaabCgAXl8SOHadbMmUIXAh5gcN6wfgNF/Uh0VrLZe9AlEEDyNDaL2byyZB+Dby8sYueM6UvPLmx1qV6zAaC06tuxYiaFCNLOYNlrHf5HgXILMjBHz8nQTxCPFLHXLl+Sl0fI6rhq+QpdL2s1wOB700bKSG+v756k9w9O00sXZzHM/P7lnROUk5aiAK6I4GDatXp2QIALD2Jzx/ZV0AGg26h+A/+TMKvF5VeFvfOnnzRMymYHABh+/wXq6UkTJhqavfBgU79OPfkdCTHRJbMYN+LDMKO72eOHyvWhrdh72bhoUsABDAMbaJ/YmEn0CAqid2+tfRl/w61yO5Pp3aOngkEZs6anpNCFn8/JMxhkdhw+bLjLAAOwqV61UH5H1dwsKU6KO9kFYBH8/OZRjYZl2ewRAQswAJrHZ3/QOE/Cc946/IsC5RZkKmWL/Y++W7lSBpjzP5+jUcNHugUwAJn8XHvAcKSbdVWjxP6xPzw4TQc3L5MBC4A4bXjPgAYYRpsurZUxZyzrX/8CGLS2XIIMsg6wmQtf5ufkygCD5dLUyVPcBhiATEaqPRZKr+LWbie3x57M3In2pVKl9GT642JgbPIyMNErf/hmsmIsmzVu7H9SFuAtLpcgg6yEPLiwc9jCME3Suu++8whgADIJcfHyeyYN6+32zANhEYpb2zeRN3wduPswarB5+stmgoEhG0O4GFiHf1GgXILM3NmzZaZkzIly/57dEsjAwK5v774egwyfwO2HJdPdBhns44zs30Vqc73CfPfrKacZDzo2t2+wYxytzV8LZMqcAu3bFmlAJjI0lKCmxkzGjFlMj249FJbEsFhV/wu78v383lVUJTuDDqxb4FE9rrzTX+6dPKSrYjyvXL5c5jxmNcA4BcrlTCYx3qZgSvz7wS+JLZVGjXB/sxfLJHyK29utclNt8SYAw0/0/Lp3Yv/6uhHf779spjPbFuvS8PuF4xXjaTlLGhdwX7iz3IEMptL8EomdI2QDQObAvr0eL5MAMi2atZDf06F5fV0B8YXZwuKZw3y6fY9Ob6SGNSrrtvH0tm9kWmM8F37xhS/IjtUGgxQodyCjp1maPmWKBDLz584zBWTq1a4rM/7MUe5v+pYGCLWsX53ObtefKZRGGxy949mFbRItD20QLxWfnt9CIRXs4S6GDBpskL2t23yBAuUOZJ48fiILP5vFoFy+tCRZ28ABA00BmaqV7WEeflo5S/df2JFwefM3RKd7c/sgIdZu3Wp51K9TS99r49Wd9Pb2IYKdEKyb4UmuR5OU+Fh5XJs3aeoLsmO1wSAFyh3I6KmvATKIB8P2VDwts9IyZKa/deQ7XeHQExpvXUfSOHXg8eKWDSkyJITuHl9nSjsx45g+ogc9v7zd7fpeX99D7z/FAYZzaF5mqrSR/vPOpcI68zNTZXojWJh1+A8FyhXInD51mmIixWECADII3+ApuLDnE2LjJKaH8HoLMFypF4nU3t6xx7NhXt0oly+YIrXVLCviyUO7SfWtnDfarb6XpEspCTTO2jmwe0ncZb0ZV52qdutqjLF1+A8Fyg3IHNi/n6LDI+R/O36pxJZL27duMQ1kwoJCpHcVZKe7JWiuAIiRe98hx7RO2pS753ZJbU2OjaHffv7R4/YumDhAqq9zqwau13V1h+TjpW7r2sUzpTrDg4LopmBm2KK+PUAYQqT++++//iNlAd7ScgEyW7dskSKnqYGF/46ZzJpVq0wBmc7FnSWBQP1FTWq7LmgmG82VxAY+qwsyEOhqedlSm+eP7+9xe1fMHSXVhdi9zy5scak+LOfUAIPvv189KC3pQFNE+lMDa+eWytg9b9++DXDR9Z/u+z3IrFm1WqF54IGFPzcTZDq0s4fGHN6rnUYg1ALi7e9vpAwHjkFm1cKSQOqYzTw+u8mjNh9cbw+s9cWkgS7V9fau/oyrW9vGEniFVQyiC7uXKert36mlDOwY17NnzviPlAV4S/0aZL5a+KWC8XhQUZ8vWriQ1n3/vSkzmfZF7eX3LnRRyLwBOKKUsOrZwtv7p6lyZkl2BcTS9aQdmL0g9zdonBgTTb+e+cFwfXxmSb6N2KzetXquTFe1pml0X7vxI96bZLPR1atXA1x8/aP7fgsyRlOcMLCZNW0abVy/3hSQadfG7rbw45KphgXME8F2+OzVnfThgXIjlRdgdr5p2TxZiGeP9sy2p0ktuwofZv8O28ctD9/e4dP5niGkjXl9Y4/0/PNL2ykj0W6tvX/tfLneGSO08YGw+X7u7Fn/kLQAbqVfgszc2XNkYWEgwpc2znCLXR87ciRt3fyjKSBT1Kat/P6t33rgGMkJn1Eh1bsPdjHv7iH/tA7YPCzJmV09v2RvJqRCBVr9ufuJ4D4f31+mAdKZ3D76vQwIem2Url/dIYXEeH1tN70UpO7l/ZRqVcmlF5/U5F9OHiS/j40pyvjoGGtG4+MA5ncgs/b774XMxhhvZlwstQu3hwZg1wf06UNHDx+SQKZr567Uomlzql2zFuXl5FJ2RiZVrpRPNaoVUpOGjal71+4OwYjf+HVXjetQED0An1dXd9KbWwfp7d0jhFkDjN2QbuXVtZ0SCCAbAKMJDOA2fD3RGDio2oSodfGRdm1e/86eGfvdO76eVs0fI7kXsPahxDXQCnTmr/PniOvz+PFjHxe1wG2eX4EMDO1Cg4KEzBbyn89okS2OXmRnUD9BSo1OHTrQkYMHqCC/slNNVHhwCCGyXlGbIl2wQR4gMPr8sX3dElJvgYyReuEnxIQUm6xX9q90qw+TBiu9o7cvn+GwnoenN0qgAUBqVqcaVa+URWmJ8YQ2sPaoS9yHPiHWsfo3/jsS7b169SpwJdmHe+43IHPh/AWKjhAb2oX+5zNak2CTAAYgMzYmWsOQSODGgIFnTkfnwZ9VpMKCqtSjm3ZmY4spMXMf7QPaJQihK6lpETuY77e7RnqwIIYxIqsr1RbnMFvkkR8WyveyZxyVyNRwatsiCWTWfzXR6bPNGjehv//+24fFLTCb5hcgc//ePUpJSNRlsm9t8TLAAGRmx9n9XBwxsdHfbLFxhCUSs/ZFydwKGlat5PDf28jMwox7ihrXJqinMUuB1SxSivy4ZIoUQgGm+vgcWPc5IQAUjNn4vg/p1sbtPgzvWWKpy+pzpLn6/efNhvN6Y4YDVTmjzXcLxinazN6nLnt062YZ6vkYlvk8yPz5558Os0BOjY1RAMzz7Ayqzf27qpnQ3e9J8QnUrUs3GWjq1KwtMT0sVOElzIShLErsZ2B/xd2+IRe1u+2+dmCV5t0w1tOrb2x/x/m9oV2aOKirxs+KGQCyPmboLJvx+/ixY31MzAK7OT4NMpj6NqirDL3ImAzlgKhIBcBgFrMqwa4C5e/lz/FP3qpRHZozYSjt3biEDm1ZLn2+mDaKKmfbHR/5Z3CO2QubzfC2MgfW2VWtesLlzeu/ndukEXR12/W+Y/P2l13f6oKCkXYP62lX6eM9MeHhdHnfCt06Z4/pQ5U5h0dkyOzZrgntXDWboMYWvXPprOEKEP0qLobSHADrksWLA1uyfaj3Pg0yY0aVmK+LBKQoPJz+zM5QgMz1jFSKF6iv+eerVcqm4ztWC03bmT3J0e0rCffxz7Hz1i1ayUDDYvzO8oF4MjDFZ200WmLPY8+aOUKhFgm63jX4Q+Vn2L2k8f6quRlS3iS9Z3D9/sn1BIBkampH9349dYiif2sT4mhHUjzFVVAu/VjfoSD4+dw5HxK1wG2Kz4LMnl27FUzFmAdl3ZBQepKVrgAYzGImxcboPoMYv/MmD6c39045BBgGNLdO76Akwd5OekqqDDK5WSVABOc9RwJSWr99O2uEYobA00x9Dq2NpzMYvl9Hf1iomU21aVSLnl/aZgpt4L7A92FjYhxdTEskgE2Eao+J3Yfxef36deBKt4/03CdBBoGnRHF6wTx5QcF0NzNNAzAAmYLgErUyYzJWRoWF0YWDGw2BCwMZlJjxRATbtSesvuIOxRLQsOh40WGh9McF38iThFnBuZ+W0JYl0wguD5jhYLMXm8EzR/WiNQvG0pFNC00RfB5kcD5teA8FEIBeImdH9XNGvmPfiNEf5eZPIAOgWRQfQ8H/+UzxO7u3V/cePiJqgdsMnwMZuPAj8hljEr6M/qwCnU9PEQLML6pE9fxz386fpAGY9w/P0KVDG2nNV1Pp8OZv6eXt45p7ADSj+pfETuHra96kmQQyNQvt4QcOb/zCK4JrRAB95R6o0etWzdOM3eIZnscYBkDyY7A9KV6ayQBk8BkdLTZvwDNrv/sucCXcB3rucyAzb47dSY5nKpwvT1CqqjF7YZ+vbSVBpNTPtGveUAMeZ3evoXTORwbPQEvUs10zevTzdkVkuavHtmhUvnVq1pJAJjO1xOFQatscfY2Kr4BAabQD3tNwM+DHAZqvXatnewTCU4d1V9R5INmmAJkLaYlUT0eriDhDt27e9AFxC8wm+BTIILJdqI71Z7eICBlQGLDw5YjoKAUTgsmxp/Lowl4FyJzYsYriOHN4XhhwnhIXS1uXTSd4NiN9LGYzrRrZg4bjHvjLsMh47HlEiysNIfaHd8A6V22LAy3WeQ+0WBMGlSS/A72xNPrl0wyGzWRQHky2kU1nI7hmtUL666+/AlPKy7jXPgMyL1++JMRuZULLl9lBQfQoU7vRy4NM87BQzbNY6vB7LDivkZ+juY9/F85hxXpqa4ml6atru2jDYru/j/pe9h0qWH8AgNJqI2IAM9qwEjm+H5xc7xadxvSz29fEV6igmMXwQLMkXn/zH9pK6yh9CvgMyAwbolRRMsaEy8Dh1CSHs5jbGcmUKzDO2rJqgQJkrh3fSmkJ8YQk7ud3L6NqlfRtYvIyUuTgTvAwZu3RKx1ZupaWYPvSe7ABrY5mB9ohRIQ7m+QIDsZonxcUpAsyAJxekVoHWTyL2dWZ06dLX8oC/I0+ATLwS+Lz6jBmQgkXAX7Goj6/l5EiMRwYj38ODPXk8gEFyGz6dp7sDAgTd97vBkndsVTi6xg/sJP8r6u2A+HvgzrYlcBNvgQG3mwL7Gdq5GUpaAq6Icqdq+8d3K2NXE/90BCHIHMuNYEqByv5gY1Xreo16OPHjwEu9qXb/TIHmf/973+6Vr3NwsI0Bnc8yDzOTJOZrUaIUn1dmJ+rABgsld7eOy4z9+al02Sm7dq6oeRgCKEY088egQ2zGSYM+CfNSk6gwkqZ1LhmAbVrUocwhYd9CLvHKndoaAG3g+Q47RJm/AA7gBuhW+uGNeXxah8eJo87v1Tiz2GoF6ljP7Ny+fLSlbIAf1uZg4xefBgwyOX0VN1ZzNOsdLrEbf41DFXas/Ts2EoLMncOy0LAg4k6nixmJuyfTy8PkBHBsO4pAR04OoZ/Co3B6IqyX3ELw8Z6mckJ8pj0i4xwCjIAnHE6am1s2iPTqHWUDgXKFGQQ/yPZZmcengGnqRwf+RkM3AmupicpGK21auO3Y8vGGpCBxogJ/sCurSSmxWYku8ZK5F5G5Di056spgzW/s/usUjtz0aPJsjkjZZDgx7l3h2ZO6fvk3CaFtmpcTKRi7PkZDH8ODVSOahnN3o09QOsoHQqUKcjo+SaBMX4XuA0woLmZkaxhss4RStuMZvVqakAGmiImBL3alxj86YU5QE4hMOSXFsjINGO0c7ccqeNf5SzjwbEflQHjP4+L1ow/Dy78+Qqbcp+NgQz2AM//cr50pCzA31JmIINI83o2MT8mJeguk+5npgoZrI9Ko1ApI00FMmcUwtKpZX0JRBDdTSQ0CJaEzWMEeBL9HijXkE/73YOTUgjPl1d+8ogW8GNqWqeqZkbjbDazcr4y9OYGzqWABxS981aqWS4DmgZ16hL2BK3DuxQoM5BBFDM22HzZNjxcF2CeZNk3etUMNVyw/n58eb8MNO/vn1QICGYweO/UYT0U13nwQOCn774Yp/s7f295PFcnjUPMYE/7uXyO1rN+QOdWDusdP9CeTA9jdjI1QfhHo+YJ9n1fsk13E3jd2rXelTCrdioTkDl+7JgQYOBNe1HHN+lZVjpd5jZ6GQOxUjQt3rlukQwySL3BCwg8lsGw8Inhr6vPEY5AfS1Qvr+5c0SmHzNqFGUYcIUeZ7Z/oxl7AI+jOto3rSM/k1KxoksAw/hjpOBPCOOPWM6WStu7SFgmINO2VWuZaTDQ7INQDWzfRV1eT9fuwzAGQnk2NUHj8j+8bxdZSBC1n2fkE5u/kt6L2Qp/3Tq3b+Yi4RoDF1ZiduMJjeBIysYbJZaktwS5r/l3YHOePQMtIj/uRs9hO5Op47Ky+ccfvStlAV57qYPM5UuXZIZhjIMyuWJFYYwYgM0jnX0YNYOp1dgI8cCWTEgLwjPuHxe3SpHyF0zwPDc0X295OX91bY8SYB6eoTecds7dfg7tYc9ZhXFvVLOKYlzU9T79ZTOFcPYuvSPD3QIZ8MrXOi4HtQqrBzgMeLf7pQ4yiO/Bgws7n6Vj2Qt19eU0pbpaDS7s+4QYrbv/zHGDJWFBLiI1A6/9coKlPVLlUwKNnl/eTie3fyuDzLv7Jwj5nNT0c/U73AmQ1paNOUokiXNUD8wJ+PtnxEa5DTLw1Ba5n6D+gwcOeFfSArj2UgUZZB0QaZRiK1SghzqBqO5+chtgQOKo3JoUr2BIME9SbKwUK+aNarnEGPvcjsUOmZzdF0glfLsGdisqAec7R8hTrRL8mLYtmy5ZSvOAgXNnGTi/XzheMabfJcS6DTLgnblxSpBj7UEMI+vwDgVKFWRGDB2mYBg2wONiooV7MbDqdQQqot+SBDF+l86bSO/uKTd+Awk0XO0rljDpiQmf1Nb2PRpX63l2YQthU7dqjta7HjMaI9k3EUKD8QnKoymuaZbUPAIDvVSdAORWTGA/B5mnT59SZKjSYA5MA43SrQxxOM0bTjZ71QyE72p7GbwDNjPvVCpsVwUmkErs1n4AACAASURBVO5nvkbQBLnT70enN9KcsX0pLUEbSAwbvXCQNBryAaFDGci4q1lS88mkGG3sIbyjc8di70hZgNdaajOZ6VOmyszCmAblwKgo4SzmV875Uc0kjr4fSrFptEx4zzdzxtNrDzUj7gicPz6DFCWgGTZpXWn/1QOraHTfjlJKFH6M2TlmNK6kj4Hxno1LOVxkwDHSEW+w306nJhBi0rB2sVLSdFkR9EyHxFIBmY//fKQkmzYfEvJXi+xikKDtiso3iTGIkbK/IPJdWFAQHdniWX4hVwTOn+9lkQORMuXklq8dAs353d9Ks5Y6VSsp/IuY4KKEChp2Sa7GkQEg8fVM92DTV803IuNNvMtKDGc6xpSOMd6+vXsVzMIYp6tOSE0WI0bNGEa/Y90exak92fvSEmx088g6h0LjCBwCxTCvS+uG8nhBfdy9bWP6csogCUymDO0uhbhAfJeCbO1eC6M1ymq5mZLFtNG0KMiVfWX/Snl8Jg62h9xEfQjfYJQHnN13XIdHUhOTLOM8k3GmVGYyfXoqI80zRjyQoo14B5U1H8LBGbPo/T4kKkIWFPY+lJnJiQS1qCMw4X+7d2KdFJIA+xQptjh6c+8E8Y6W/L3l5RxpU3iauXpevzCfflwy1VDSNtDszLbF1L5pXWpcq0AxLnzAK1sF9yx99fgD17uonGpZPw8fOmSymAV2dV4HmXdv3xGixbMBZCXi9mJZpLbsfWDQ8M4R8+C3EynidTfejzSqUNM6A4Vty2dQcrzSi/fXiyUBxp0968+/I7VJg+r5mjFjY6cuscELJ8fVn48lhCo12veLe5ZTj6ImUlgNZDSAUyp7FlbA/Hvg5OhszF39fU2CcmzZ+wb06xfYqGBy770OMj9s2KhgFjaQEwVqa2kvxqDhnRGGWp0QS4gRzN6pLutVy6NNi6do/nGvH1otbWBiI5B/pmpuFr17cEayH3nloUcyEyZfLa8fXE2gDz6IBNiiXiG1bVxLShTXtXUjCVS+nDxISiTnah9uHFpDiOcDYGH0VYfc+HZ2iW8Z+x0aISNj7so9MM6Dxoq9g5UxkZH04cMHk0UtcKvzOsgUtbbHZmWDiPJsmjZJm1H3AVcYaVqsWF3JtwUajCpZaVKQawiVGlxwL64d2bZStoL11IfHVcF0937MSsb2L5bSvODc3XrMeA4zlUFdWitiK4O2SbHRdP+Ecq+Mj06Ie/iMka6Mv7N7BwiUBHjfls2bAxcVTO65V0Hm2bNnQgvf6iEhmmUSlk3XPNAoOWKmoTr7M2Amo58vZ4yRAQbOgm9u2qPsmSGA3qwDRm/oZ2JsFGHGcGDd51JMY2++k9WNgO14P8BbRGtosNAedj9KqMJ5oEcuJcw6HI2xu79tSdTa8qCdxe3bmyxqgVudV0Hm2yVLhYw1T+Cn5ChWjLsMxD+3IC5aaD8jYnz1tdnjhygARgIZlcMlLySldf7q2m56e/coIeWu5CX98DS9vXNUYw8Es35Y8fL9gnAjJQw0SdOGdyf4cWFDHIZ0T89v0SwhjfTp+aXtUr4qqKsxY6lVJVfKzMm/V32+esFYBcDgPTNG9FS0taNJ9jE8P/Dn6kwXaGNYUDC9eG7FATYDGr0KMg3q2q01GXPBNuZ6hjZA+E03rHt5RjFyjohqWToxX1n71GVhXg69e3BaAzJmBHAyIriO7nl7+7CmXVLcnGtaZ8YnZzeRegmi7qv6O1L3RoeHUUJMNKUmxFN2ahJVzkyVMjbUKcilhjUqU/O6hZJ2CO1E0HV1HY6+A9xE/ctNs4d2wPNfxcd4ZRbDeEYvj/aqlSvNkLGAr8NrIIMg4aJcSk3DwjRLJXd8lBiDuFrCdwVGXSIfJ5FArPpymkaQMWt4qwqCJRIWb197qwoqhbS6jt6JGQpsXkT99OTa5iVTpfdi2WO0Hr2Qm/vXKg3wsHHvaiQ8V3lib7JNSn2rbnvXTp0DHiDMIIDXQGbPrt1ChvvaFqcBmTsueFq7ykB6959JTSBsCjcNDRUa7jGGmzd5uBBkPjw87VCgHQm7Wb8h/q60THp0lj48PEuvru9WtOnh6Y2K7+y9P62cRfkZKcLxYf12pVw+d6T0ni3f2nNZ6T2PfSHY4bC2qEuAD/9sAzeDVOmNu971wmBl3i60ITEu3ooBbALKeA1kJowdp2AWxjjnVFolqK3NML7TYx4j139OTSSou9ME6sx+XUpCHsjCDIH+9HklWJaohcab35HihbWFDy8KoU+zxRH2XWCLImrDswtbacmM4dK+CRsbd8v5n2LC7Fo9WzjmrN6eRU3o3nH9cKZIBAf3D3Y/ytmxxjMTGBlrvXsG6CgHrly5YoKYBXYVXgMZpAPlmQXnsElQG9/xWSD1GKC0rrcRRLWvX71AFmQm0Kx8fXO/UIBFQu2NawA51pa3d+zhRX9cMkXWzrRpWNNpG+GfNLJPB4KlbqQqSZ56DEXfJwzqIr3j6CZl6hJ2b83KOQTDRmc04FPR4lm4hsCZsTTGf5lO6pSli5cENkKY0HuvgMyLFy+E+zEiX6VbghxKpcFUoneInObio6JkQWYCzUrsiTgTHPXv8ONxFtNW/Yyj7ywOrzq86MLJg2SQB+g4qoP/DbY00DJhNjSke1uqW1BJY9fCwIOVMKxDHZg15aQlUZPaValXh6a0cNJASR3N1693fvPwd9LMi9WJEmb/onHyxjWAmchw0wr/4DnKeAVkdu3cKTM4zzSLVfsxvrBU4hn2S50YsFeObhYCzbt7JwwLLy9cSAGCEJf8NXfP3909KrXttcBuZ8bIEp+x5NgYwizD3XcAeLDMuXloDV3eu0Ky8sXsB0HB930/j85u9zy64AhB4rf1LuZX4sfSnfMagn0ZpLT9999/PZe0AK7BKyAzbswYIcicV6U78aWlEphyuyB8J0BylsBOBrOZ94/O0MurrkeO69amEU0foZ/vyRUweHX1J3p9Yy+9vCZOvNbuUzoRxIjZsmSa20DjSptcvffO0e81syXYrrgDFJ48M1hnXwbB763DfQp4BWRqVivUgExaxSDNfowvLZXAnOfTEilREL4TPktsiaQu1RodIwL2+YT+0nIS6loj93tyD2YgqZ+cPOErhNkNbGY8qdPsZ/t3bqnhlzmltOHLg5Iodxf+ZJZ88437EmY9aX48GezH8CbhbLnUIzJCATK+tlRizCYK34k+XDy8SQg06r0QIwLIcjtnJNro/gl9bYuRuozcA5U1PyYJ0VGSla8vxMc5tGGBom2gddXgYK+5EbBxFpUwa7D2ZcxHRdNnMqdOntT8K4FxltriFSDjbnhNEXOYeW2Tji/LjDEDhSDz9q7rm78ABmyOgi7tmtQplVkFtEd4H//BEqpVgxo0e0wfaX+ltB0osQlePS9L0Sa0b21CXKkvlRgP1QrR2svkZmWbL3kBVKPpIPP9GmUcEMbUR1OTFSDja0slxmQoK6lsNdCHytkZQpD58PCMWyCxe80cWbighTEyI/HkHtjFOHMrgPo6OyWRoHJuWb86dW3dUNIwTR7Slb6YNJBWzR9DGxdNonVfTpBix0ADBVubr6YMpi8mDiBk45w1uhf99vOPhvqzYOIAmQaMT9qGmx83hh9bZ+c9IsI1bYLl+t9//x1AsGBuV00HmSmTJmkGCQz0QJVXqawN8Bwx21idvMnnD2wUAo27mRVZYKjwoGBC2lxPQMTIs7+e+UE4c2ACbkap5y6gbt+Nw2s0AceRuWJfsq3MZjHgCb1MBjdv3DBX8gKoNtNBplPHjhqQQQpa3gjvdzfyKTkCBbN/O5WaIAxmNGVkfyHI8Na2amFy9P3g+gVy4KaMJBvBVsTR/Wb8dvf4OikAlRmAoq4jLyOFbh8zFhmvqEltDZ/0jHA/Ba1ZPKBnlLfzp58CCBbM7arpIFM1v7KGeRqGhipAxqwQm2Yxlqgekc1MXmaaEGSgyoYq2R0QwFKDCWuN/Gx6XAqaH4RkmD26N7HUJ+z9npQdmtWVwkQYoQESvqnfhQ1XOCqKxqI0r+1O1mYhRVu//GKhuZIXQLWZCjIfP36U4nCoGahvVKQCZG76kJWvIwZuKDCxP7dvvRBo3njgYtC3uLksdHADMBrd34hAO7oHAaXg1AiLXYRyUI+bo+/pifHUq31TWjF3FCFcqaP38L8hrGesYN+jfik5Qjoab/wGMwaRhmnwgIEBBAvmdtVUkLl3956QUeeoglRd9lKUM2cM5OrvO5PiKewzpUZmeN8uQpB5f989618IIEIwIG8RE+qBXUrM9Hnh9PY5Alud2rpI8jFa/9VEya0AsyxonuaN6yd5TsOu59Le5fT7L5sNg4q63S3qV5f7yfqLsndk2S+VGH/kCjb+mzRsZK7kBVBtpoLM/n37hAy0MTFBnsmUZuwYxjSelB3Clal1I0NC6NGFvUKgkSxvr7huAQxBxEYonxlhzpg+bguyWrB95fs304cK+QMgg1mjJ+Nk5rPNBY6yybaEAIIFc7tqKsjAMpL/d2LnfNDwhyalPDGTqRzVtU6Qz3nS8L5CkHHXl4mBADImslAHMJ77fuH4cgM0J7cucroHNKsMrHxFYy/KQApefvnypbnSFyC1mQoykyZMFIIMtElMu+TL9jEihsM19ZIJaVyfXdOGvoTLgaf5tvl/e8SD2fvdXL8HGvgmQXvG/nT0yujPKhBAXW8cSuv6DJ0MF9evXQ8QWDC3m6aCzPCh2ukwYoIwgEF52cS8SqXBdAgBIBKKeZOGiWcz9x2HwGSzFkflSM4jGcszZGN0dL8v//bg1AaqW1WcqUBEV/DLqoTYMgUakWYRbT139qy50hcgtZkKMn179dYIJG8j84eP28eIQOtrnfAPiDODbJJqh0kzZjMAjaE92sq0hMUpkp35MpiI2oa81shnJQITR9dglLfU5t3g4aKxZtf0bGUOHzocILBgbjdNBZniDlr/mFyklviUjtbbaU8Yk5hVzo+LFqozmYAM6NZeCDLv758kTzNMQtszqGtrhYAiVQiuiwTa165t/XY6pahS/DK6oYxJzlb0jf8N51Ajl9UeDXyn1O3B95927DBX+gKkNlNBpmUzu70HGyQ+kZs/GOEBoPYn26iZQMPA+sRKbM6e2LlGCDRmpEwBoKjDIMCnyJV806UNPpf3rZCcPhmNRGVa7VZUvd90Sq8rzi7KPzMwKqLUPbKRrZJvAzvfuH5DgMCCud00FWTq1daaijfgrH3LIiuBK7Oac6kJNCY60mH2AsZwrKxdtbKcH1u9dPJEpc3AAUDTp6MSvJHWdctS3wpA9fSXzTR1WHeKCAkRCqhEr88qUEaDdhLAAGTwyWrciYIFMXwYfVEi9vLZUor1C37ZpRO8bMWyZeZKX4DUZirIiFwKWnF5lq57KQ2tK0Cidy8SiGUIshXwzK53PnFYH+Fs5j3SprjpbsBABiVCdfZs10QjvJjl3Dm2tsyXT5uXTqWc1CRN+3h6AUiymnRSAAwDmpyWPSm4ojbEAv88QmMeSSkdt4NDKWJNmOVa4B4qmgoyGanaTb5OEfZgVb7oef1jYhzVcfTvq4rBwjM+f/7t/ElCoHHXeZIHGQY0k4d20wR4igkPp1mjentkhat+l5HvmGHtXDmLWjes6RBcQKOQisGU26qXEGAY0OS17U+hIUrDR56+OMefAKyw9f4ozLqup1GcOX2Ge1IW4E+ZCjLx0TEahusTWeK39MzHNEtHUxKoa0S4MHOgmrnxPTIumWzZJYGmRL+HVKhAcyYMteel5vIzIQmbEcE1cs/25TMoISZKQ2dE2YMf0bMLW0x7l6g98BRHCE/EnRHRQX0tOCiE4ivXo8zm3alar4kOgSa/wxAKDY1wWG98hQrk7QDjF9IShXwxfuzYAIcL97pvKsiEVlQm5gLDDY2OkrRLvhI0HA5wU2KiKK5CBYfMzIQlJimTclva/4WzmnR2uIfQrlkDunFym2ZWYybQwMmwbeNawvZjv2bcgE66Sd1EwOHsGhw2sSRCFD9R6mFGK1EZEhpJQZ9VlNoKwEmt1ZIK+07VBZvKxcMoLCxS2DdWf+RnFWiJl/Njw16HvY+VQwYNdk/KAvwpU0EmKkwbVWzgJw9sX9AsrUmIpXyB8xtjIr6MS8+nvKIBQmHIalysYUD+Wcxq2rdoRPt+WKIAm7e3D7s9y4CnM6x/2QcpTrD5i4Rs/LvZOTRfLeoVSo6N8ItyBiTq3x+cXC8By5h+xZTuooc2a4NeGRGTQIV9pghpi+VT5U7DKSw8WtgvVmfIfz6jmbFRXls6qa288d5Rw0cEOFy4131TQQZOZIwJWNn9UwDxu2WQ75qt0aGSFmWHZG1kJTYnbTmFhH9TtlegV6bV1kbYZ/XwJTIdLPt8Et07t0sCHFeABrFlMCupmpuhoSt7BwAAkfXYd70yMzmBurdtTJ+P70+I57Lh60nSngr8pX74ZjItmjaEJg3uSohsV5Cdrtn70avX3evxuTWoet8SDZOIxlU6j6TwCO3yW/2+4VERpgPNL2nipSCiPlqH6xQwFWQqZedomL1deLi0XCoLnyWoPUdGRxKm12rmVH+35Vangq6jnYILLxBJVeo6rZd/T1JsDLVqVJcmDO4uOT+e3/UtQfWrnkXgO+LkNq5Z4FL9/Lt8/vyzipRct4iq9ZqkS/MqXUZReGSsUxoMMxlojqdo/yxBz/lz57kuYdYT5qZEEeVbavpJhV3a6uvvEmIp28DSKCo+WXdZxAOK3nl8hjYSoKsCDg1RpfRkQsxfRJiDpW+9asb9fVx9nxn3BxvQusGlpF5oKNUPDSUsb9TvjbClUlKDjpTfRR/cC7qNoShbquZZdV1mLp0QZ1hdP75b+ZfcQ0xTZzKNGzTUDE7tkBBpJlNajpGIz9vdgNYoNCScMuoVUfW+03T/SfWAhb9e2HsKRSema/oNpsS+yPFjxwjT7MQ41yLPiZi8rK4BUPLCwqhLTjrNb9+UvhvalapF6muBGoeG0rakRNmdBG4lCCSPMKx8H2Abk1i3iBLrtafsttj/Eo8F9m8ScmsonuXrwTlAzCzHSr1Mot+tXuOelAX4U6aCTFFrrZl4leBgQiI3tj/izRKObanODOo+q0AJebWoao/xHoELDzR5HYdSqGCjMjYyit6/eyex2IcPHwg5qdasWk0Tx08gJHJvULceZadnUESIUvhEAgQt3Y9JCbQ1KYFmxsXqzg7Uz6q/N02IJ3zCdZaQ0KpUCgul9hkpNKNVA9o5cxj9etweHHz7lMGUINAiAojah4fToZQkBbgwvzWUV9JTKU5l3RtXpT4l1msnfdKadaOqDpZP6fXaOtTswd7JDP7aqONWsGXz5gCHC/e6byrIdO/SVfNvk1ExiLxtI3MsJYHUEezUwoXvmHbntx9kCrgU9p1GecXDKbVJV0lAbDWaU3CQFiyGDBxI796+dTo6yLyJtBuHDh7U0HBVgk0ouPcz0+i7RBv1jIwQptcV0SA5KIg2jOlDj4+vo6PfTKYfxvalDaN70/HFU+jegVXC/SHsEb24tI2mNKsrXPZgWbo7WTlz4cGFPx8To9QaRSbnyCADsEnG8qnzKN0xym3dx6F1MJLzeQo0mBGJaLd3z16n42jdoKWAqSAzsF9/zeDEV6hIv2eleTzweoyD2B8Jqn9HNYMEVwii9LqtdRmXn5U4O6/WZwrltB9MyQ2LFcIBAUmo1ZIibFqr52qVq9DB/fvo+Z9/0D///Fc7CtyVu3fuKmiIpQcvpHrnf2Zn0OHUJBoYFUUIlaCmgfo7lj5Xt3ytCyr8ZvSDQ2uolcD4DrMXzLAec0HJ1O3DLPbP7HSJB37LSqc9yUrNTWhErIaOoGVW2/4EIBeNR06LHrozmlHRkR7z2jc64T1OnjjBjZR1apQCpoLMmFHiVBfeCPEAJ7YWBjylI6JtBEtSEbO6cq1qz4mU1aYfJdXvIBQKNuVHGVfQQLN8Cg8OoUnjxtHlC+fp0YP79Ocfz+jD+/f0v//9TzFW+/buVQDEYlucIZDhhftOZhpNjY2hJCfgi32MFkkJ9P2wbnRNB3Aww8kSZG3ICwqmvYKlEUAFhpe3M1LoSnoiqV1JYAxp49oFAz2edvx5WtNuBLqLximlsLGCTgxEx8V4DjKfxylnW6zuixcuKMbK+mKMAqaCzKwZM4QDfyktxeN/FzaTOZpio16R4Q7jvDCmSKhUkwp7TxYyqYhxRdeqdBtLGS176QoCLxTK8yKKzqpKIUFKr2Ts0/Tp0YN2bt9Gt65fozs3b9DjRw/p2e+/0R9Pf6eZ06craHgxPcVlkGGAg7Cni23xlB/s3I4GNIupUEHa0K0RHUnso54VxVaoQPPiYqUlMHsPKwEwNww4warDaCTUaaNLX2if8jqP1Ixh1e5jCTNUNtashDU34xV3S70Movfv3TMmVdZdCgqYCjIb1q/XDDoGf0eS596zZz7ZvCAOLGMovRKOdtlNu2oYUwQiwmvYb+k0glKbdtNlfiWglGxciq4l1GpFEQkZFCRod/WCqjRj6lTasXULXbt8SQKdDm3tEfHQPywxeCHG90eZqXQvI5XuZaZI5f2MVIJFNa4jGwSEnT2DEt+/T7RRmmDDVo+GouspFSvS7Yw0Rd38ex4bXBYj/Qlff3xhE6d0zmrdT6MJjE7UGinCm95dcGHPdY7QOmqGBQXTx38+KoTH+mKMAqaCzM/nzimYhzHSV/Hux2yFsxpsIJxN/dm7wHiuGtUxoCnsM5VyOwyhlEadnDK9CFAcXYuv2pAiosTBkNB2aJhqV69BCbH2TUcAKhPiP7PS6ZrB+MhYolxPT5aAB/shrI5Hmek0PDpKuHnL6Oes5DNPsHpZadR1RJ1vOja/riF6Y5O9as8J8p9HZIzWaM6MXNq1QrQzv4K8fGMSZd2loYCpIAMNiYhJwdjsX8LVEjYvojo11z6rQCnVm2r+7RiAOCqhNoWdRlID5/stjoDEyG+xeXUo1IAVK/oHrY1dgN1bcgJw4NLB6kF5Pj2FhkVHUU5QkMbbGJEMl9niaU9KIi2Mi6HKwcolyWxVoj6+XsykjIzvYtXGamxebUMgA/piTwyzTIxnaKiSN/BHZOT9zu4RKRIQWtY63KOAqSCDJiTGa60l24aHuTX4A6L0Db54kIGPS6W2/eV/OEeAwv9Wpfs4ymjZ2zCDGwERo/fEVa5HYVGODfTqhNg1S55GFYQZAQ8I7PxhZpo8sxkZHS3f81tmiUYQ5gEAI0ZvGFcuiI+TbHUmxcbQ+kQboQ7UZxRktqoizwF4jdKN3ZfZqo/cJta2VmGhbvEZDzondbJTIN2PdbhHAdNBRmT1mx8U7PLg60WMZwzFyvjMKlSNm0LzIKJ3nt95JKU16+4yYzMGN7OMq9KAwgTTfvSPD116Oz3ZZRrywvPkExAwcEH5a2Y6Lec8rMfF2EHmQaZ95jRZEL8GS7muERE0PTZGquNuZhoZTdynDgoVm+86yNiqN9WADAK/831251zPEM+y9nUPYPCU6SAzqP8AzeDDuhR7K64MOgJKMSARldDaZDRob3j2ghgmlToMpZTGnX0CXNRAhT2b8FhlCEvmkgFA8MTB9HK63QoXNi0bEhOoS0SExnF0cFRJ7B9sFPP7P9tUMw+ox5+oZkZ4BvtARscYWio2ru6ATIzKzQDZDeDYaPT9evfpqa8tGxkfApmFX3whMw9jIpR7kl3TMDVR+bnwdSFKXeXi4YYAplqvyZRdNFByxFMLti9+j821h7OsFlzi9+UpyFxLT6JrGak0KjpaUlPztOTP4RaAd6mXZuoUIfs4+xiAC2ZJN10AGAg4HxSKdy0wOiaRSVkKPqtvkksBPLp5mrDzp0+fui9lAf6k6TMZ5KZhA8OXWP7o/XuIrouSnqM+hFdwFPCILZEKeownrNsT67f3yZmLnjDBZoSpu2HwBqH3FGRA31vpyfRHdjrBMvhCegrBVaFlWJi8HwPaplYMEoIFDNz4sTyTliLNZABeorFzdg0GeXx9tpotXB6jsEilps4M+xi0u2241jUkLio6wGHCs+6bDjI3rl9XMBBjpqEuxvzoq7KlQD3BFYOcOjYWdB9H6c17uMy0ekJfFtdDPwVrgtAzkDEj6NeVtCR6kJFKyOTJ6r2ankptwu12IQdUM05E7o9R2fhAO2XE6E4PbE5w8VpgUOcqjUuAuCSkJ+MvM1TXaK/IwRapfqzDfQqYDjIfP34kUUBx2B7oMZ3o+nKb3V6EMRLKtFotHC6ToN50lWl97f5ILrsi8wu6z23Eiujl6rXL6YlyXnJei9cxPIyQcB5pYvHHoAYYjMGl9FTyZCOaz2sE73VX6Y89HJ4nqga7xlt6tNqdLNb2wV3GOtyngOkgg6YUt2+vYAIwBGKmwmpXb4DV1xHVTm3SjnoQKc1RDBjYvLjKtL52P+xGmBCdTE2WZh1G1cNqOhr5DjcN9j4jJVTXO5ITCLF7jNSvvmdctH35BYdSV+mv3o9B9EP1O9z5PjtW7LO0Y/t29yXMetJ87RJounjRIiHTrnRxX6aRwDEPQgAvXLb3IiqTG2k9pF1l5LK8H64ITNjXfArz4M1sD0bCZLD28CW8sHODgqh9eBhBzb0uIY6gnnYm4LzdjTuapVBVNoMtiebkYkI/+P7hHIHHnv/53IIKDyjglZnMpYsXNYOFARvs4r7MRIF9BuqJTc11CDJlZWBnJjCFhpXkVur1KRD7bwb9gpwJOP87zAowCwBYqIUL35NsNho3ejRtXLeO1n//HRW3a28oJQpsaJCIrTA4mKAlxBKsX2S4lAJ4BDeLkTywpch4+r5fapraarRQtBXv4fvkyTnCharpUKNaNQ/Ey3oUFPAKyPz7779ki9HuqdRwcV9mh8o+Q2aAzyoQotmLZjG4BnsYNXP62/fIxEyJ4RMrVJQ0QmYH/sKMAxayMk3/8xn17NqN+vfuTV07daJlixfT1UsXJadNeIuzz5ZNm6RoZeHdAQAAIABJREFUfvxz7p5HxKe6PE4x2YWKNveJDDcFZJCZUtSPcWPGWEjhIQW8AjJoU6eOHTWDBoMpI9Np/t9ItNsPZkguaKALMgXdx7vMvL4GQry9zMGUJEn9zNPFk3NsvOZxrgKgZ99evWQgYYCiV16+cIHGjx5N0eFimxKRsIquQbNkq97MpbEKj0tR8BUCxntCC/YsnHBFbdz5008eipj1uNdABpHdRYMGrREbWCOl3qYkAoHr2sv0nWYouJSvAQvfHltNe14nJMiD0ZsRejm751tbDPHWthij3MwsunH1ii7I3L5xne7cukkoeeD55ewZWrtmNU2dOFEe69gKFalxcgr1bNyCiid9QX2+XEuN+4yi3HotKCJaO1sIi7a5ADJFFFzRHp8HKWthc+Osz0Z+L9LZj4HTr3V4RgGvgcyVy5dlxuPBxtXprZ4vCerMad5ddzbj77YyAJyQT3mhkVIXAagueyBQP6cmSvsievsv361cqQAQBia/PnhAMEvAgdChT3/7TQM2F3/5WR7rtrn5NHbTEeFn9IaDlN+kSBM6MzqzwBDQxBcos2EUu+l4qwYdJHOzcW4OjF9rFVb3TLqspyUKeA1ksC8jSgMCd3xX/Zh4bQRjAJS27Kq6IJNTNNAQ4/KzB187Z/sy6CsChvP+RGpBcfQde1sFTqLjpSYm0flzZxVAc//ObTk8KIDmyOHD9ObNG/rnvwCbJzLYnD5+XAaZTtVrCwGGB54uMxdTSDCnyfmsIsF3yxn9o9KUuagQi9dRv43+pueMO2HsOAsmTKCA10AGbRM5S0JgXFVlIzg0Dy7sHE6SeuE14WntjGl9/Xfe6AxuFq44IDIBw16DOoNmZkgoDezUm7C0YbREiQ1fNoNB+fbNa5nFCgsK6P/+n/9DEaGh9PT336Xr//3vf+n3357Q4QP75Xp6Nm7pFGQAOG3HzKagz+zvD49JdDpevCsBbKhcsbti9BCVItU16GE5RcrD79GJV0Hm6JEjMvPxzOzqNHdvsk1XzZrVtItwNoMA1L4OIk7bVxd5hkpiuSDo93EDNihMiKAtUWuPsFQqyqtCY9fslICgb9tOmvFZvWKFDDR//fVBYq7bt29LAAOQwWf1qlUKpjv/yy9yPf3bdzMEMgCayk3ayc8h+LojeiTUbi37dIGXALqsr56UUETwzpqMT7PS0uVZnKKz1heXKeBVkMGSKT1Fm2IUpuqw6HWFOZC4izEAXyJNrJ4quzQi3TkSDDN+C49LlvsNi1RHNMMmKJYQDUNDNKCcHhxCQweP0wBAfZvSWTE1MZGwoYuZzJ/PnskMVSUvTwKYsKAg+v233+TrODl18pTcxiF9h2vewS+V+HOkCMZYGrH6ja1US34HnpnjhBaO6MT/tkAnM8G0KVMUfbS+uE8Br4IMmoVsiTwosHPkS+IH29n5LB2Tb6Q61Uva7iuBqTwBG1646oWEkMjzGWE0RkdHUprAmAz0bpCQRGOWbRYK/+iFazTLpu6dO0sgc//uHZmzsA9z+NAhev3qlXyNnezft08e4+FjZgrfw4MLzut2GSg9g/FDvipnNIrggoZjRoasFc54xsjveiFFrl29xrpnlR5SwOsgo2f9i5xJRpiA3YOwiCJfJghRZqNi4Wwmu21/p8zrjLnL/Pe6RbKWCX3tFhFOX8fHSMHVEfUfcYAZcKtLLLG61m5AY3845FDw+7XroqgjpEJFOrhvrwQ0f//1l1MW27Zlq/z86PnLHb4LADNs9U45Pq8hzVLdIkV2TgTzYnzhSXk0JUGYWsey8nU65C7d4HWQQWuq5leWmZAJAhwmXY1kJrJlQH1xGflCkMkrLjuPbIQjMKIxMQJiyN/E6Ga0jK9YkYb2G+lU4NkMo36CctnUtbhYApk/njkP1rT2++/l9o1dtcPpO7Nrl4TODA2PokQDbgWIAcz3e4IJCdwATtN0DPC+/GKhS0Jk3eyYAqUCMp/Pm69gEsYwGGRX/olW6IR/gGGeaF+moMeEMpvJsFCaKQaWAs6AJqFOW4KfD6ObsxIzvmEjJjsVdgYwKEfN/Ebxrx5aMYiOHDwgGeFhb83RsXTxEqltCLPK1yk67zF3haxVMhoRj9+XQt8RksEVvtG7F75ValrCIfLx48eOumv95iIFSgVkHj54oBlMDG5mxSCXLDZhX4MEY2rGwPf8jkO1QCNZ/pZ+ZDxbjeZyG1OqNzElIwKyG/AqXxENcA37FQM693Yq7CIAaJWVI7cbdfXo2lWazbx84dgLecH8kj+R5KBgp++NTyt5h1G/pRKtkn3M4Q6hBxquXIc7goiGzZs0dVGErNudUaBUQAaNaNZYnLv4CxcjzMOTW8Qc6XXbakGm33RCPmVnMwWzf+fjwaQUNiIEMUdiMk/fE1fQkMKiEyTT+pDgUIqwpVJMTnWFard7/aZOBV0EMLg2esFKwmyE0RdZE48dPkT37tyW+ejM6dM0fuxYOnvmjHwNmhg8kxce7vDdzQaVKAEknyWDITfVS0VXIyzqAY9eGBEs/azDXAqUGsjs3rVLZl7GxCiruBjVTM9bNj6zQAgyWW36eSzcroJDVHq+3Fcp4Vy/6YRgWskNO5reFj6KXuPkVIdCrgcu/PV2+QVy2zE+yNsNdfab168k1XWF//t/JVV2xf/3/+jZp+Dao0eOkp6pGROn+/7R6/cT8mOhzuiMyobpwBvg4VlkTtADDqPXNycq4wOjXnzSkpLp77//NlfCrNq8E+pBRNf//e9/VK2KkoHZ4LoaZBwhI9izrAwLixSCTKWOwwwztKtgond/VGoluX2pNZvL7arcdYypgc3jqzVR+AENHzNDV8h5IHF0PmbROoVxWnhwCJ0+cZwe3rtLJ44fVxjlnTp5UhrqAf36Sf11BHJVmnWQ7kHAKSObvaCtOreSWUslUbBw8JG14SuSXM+vldpMBk3duH6DLHwMHFDC0M7ovxDum66jFajyKX0pvwmMLJF6YOCt69Hpdm1aWp1WMsigXVIGhXrGgzTptRHaKz5CXLWoaI8BhoFPp0Kl4dvYkSOl2cy7t2+psxTC4z/UvUsXmfs6tiux3G2dnSdsQ79vNhLsYTDW2FvS65P6elRqroJfYAvkCp+I7kWYC6j2ef7DOeJSwy/LOsynQKmCzMd/PuoGPFqfEGeYgWCIJWKUjAbtFAINoS7sO80wU6uZ3N3vsP1gTJxRX9mmzNZ9TWmPWgAHFPcUCjgDDlfKMUt+UNgkJdsS6NrlS/Trw4cSB8Iwjz9qVKki9bdLrXrCNiRXKgk0hVgwrtA0JEQZe3iPCVolvaSB06dO47tknZtIgVIFGbT72yVLZQFkgojSVV8UmM7zz+PcllNNAzIAmtQmXVxiblcEQXRvTHY1uW1ZTTor2mQGyMBClvk0od9wdBzz/R6hgLsCLvy9ak3TooULpdnMhw/vNeyXEFUSgHtAcS9NG9qNmyvRQtrsrWE8v1JclXoyDdHH6i7u3YlmMUjvwm9sM/6JDA2jZ5wLhaaD1gWPKFDqIPP+/XspdiwbYFZC9YrYMSLmEF2D7wp7lpXYWOSXSuzcrCWKCFBE12Ir2bNA5rTsqWiTGSATm19X0/fs0DDq37GHU+teHkgcnY+YOE/xjprVCiWQefyoZDbDuO6vv/6S7xsxab4CZEau2ydll8D4YDNcRCu9a/BnYuOKclKMazZVIp7RC4A2avgI1h2r9AIFSh1k0If5c5UMzJgJxlFGY80gQRishtmzrCzoOloh1ACa3A5DXGJwPcY3eh1GZqw9eUUDFO3xFsiw91UKC6eBXfoqhN0RmDj6raYqTvPWHzdpZjP37t6T+oo/idGq2VRWzRKzBQTfSqzb1vAYYL+Jn6mhbsxCRMBh9BoyGoiW2DA6hB2XdXiPAmUCMi9fvqSYSHGMGGeexjxTiVLZivyYJK2OCZutRkEGcWuZ0FdWGQmaATIw9nNmAZwfEUGDeg70CGwGdinRGrG+YIMX6mx+NgONE37PCAlRvKvtmDmy/Q5mXkZph/sk2x9uc9aMPNdILsj6wZd9e/X2nnRZNUsUKBOQwZuhLuQHm50jDKJRnyYY8rHnWJlQqaZi5oCZDGIBu8Lknt6Lf2LWnoKuYxTtMQNk0L74qo0U//bsfeqyIDKKXAm/oJjZbDxEacH2vS8Y5504ekQxm9mwbr3U13q2BBlkhn+3m8IiSsYG7hWu0hNxf/l+uPLHw/8JsfPPBXyC+rEX8/DTZraFB96jQJmBDKKqVamkDKfIGKtnhLE0FwAjTKXZcygRrJrtxfBlSqNOLjO7q8LB389UtuowFGaBDN6FGQ3zkeJpIDovjI6hoYPGyECgABOdmLy4p1s9paV2v969FbOZ0Z9sZNpVrirXnVFYsmkbXKGi1EaeLs7OS2aBnNWxG460DFxQIsslQr6KaDJ39mzvSZZVs0yBMgMZtODggQPCwcfaGVaZPLPonYtCHVTtPk4DNBkte5UqyEjJ2T6roGmHmSDDBDYuvy6xZHAiYeKv1YyNo2HDJsqA4AxsRi/dpAjfGRkaSmdOnpBnM3U//VF0K+oq1dlq+DQK+k8JSCAmL2uj0TIyRek/5YrWEY6Tc+OiCWpq5MdGfJ1wwb4d6JGRmkYfPpRE/pOlwTrxCgXKFGTQI1F+JjAB1tBGNoFF8VlFITmz2w5wmeGNCobovrDwaEIMYn42hXNvgAx7P3ymQiPEjn880OAcM5u+rTuSkdAMrbPsFsx4duigQRLIwKcp7NMsYfCCVSVxYj6lkIWNC7zHWdsMlQg3qvI2d+TbBv6Ao2P3iHDd2Yq63+w7NnwRUO3t27deESyrUjsFyhxksLOPtTEbfL40EmJxiiCVbWJ+HY1wl7Z7QVhEDMGJsTRBhglyXOW6FBalzXHE05adI75ti4xsGjZ0gu7sZuTkzxXjg6RuCNG5+YeN0nW26ZtaxW4pDMBj7TFaqjd80TZRsHD4r/WLjND1yGd9M1IiPOzxY8fsEmGdmU6BMgcZ9Gj2zJkKJmbMgZzKzmKHiPIyxSRlaoS7tDVMZQkyTKgRnBtZABg9nZXIYtC1TkMa/cVqDeBgmcU/P2bECDmpW8vMHGr5ycMa9xjJPMDayJdhkcpZGIKU8ctkWIW3DAvV7MPx7XLnHBbNljGe6dgiV+gTIIO1cU5GSe5nNZPAdgbJt3hm48+RtExtLxMWHqUBGXhB8wzt7XMITFnNZNR9gybK6AYx6I89sbrxNpIseNfulQBnULf+CpCBr0/Tho2ka52bF1Hop0R0iHnjaupZtJdP/8J4YEl8jLRkRnD0mjoqaHavXlmQl09w4KxdoyYhrKjefe3atLWyE8iwYO6JT4AMurRr505dBhgQFaELMgAcUYQzUT6mxPqlF8AKIQp8BWQY6MRXa0zqKHN6QseuI4xnUaXKhADh6ToZI3JtSfLYwaeKvc9oib0b9cY1ckVNjolyGMOYtVFdxkVF0/QpUzXqadhnIWEbot+pn8H3ZUu/NVe6rNokCvgMyKA1QwYNFg4+1NQIvcnPYPhzkbl4fochmtlMSuPOLguAUUFR34cNTF8DGdbG+MImhOj/vFWtSOjU18J0hJPdV7LZ28YlGscXNiX1MonV52qJZc8Xn39Or1/bk9KJ5BwGhKLsponxNoJphXWYSwGfAhn4NYmCjoPZYOtwRMe0XJQuJbtZVw3IpLfo6ZIAMKEUlZHJOSXBlwSBsCHEaDNsZcpi41fUXtE1hLZE5DkE9HZVoEX3I32L9J66bSX7GMyc4OiITeDY3JqSJW9MdiFBtY19m+CKdkM/UX1GrkFL1LZVa1q/bp1LKulzZ88SNrDV79i+dZu5EmbVVnpBq4zS+urVqxQREqoZfDBD49AQoVp7jSBea2ote7AoJuhZbcxLkcIc+DDNV8dIgSAx5q3aY4ICaLypwhYBiXytbhEl1GrFCX99QhaAmNwaEtC4smfD+saX0GYBTCLiU1yeIfH1GDnHcqdpo0a0Ytky+uOPP4yyluY+LI/U7ytq3UZzn3XBMwr41EyGdWX5t8s0g8+YYYwgcNGBZKUZOu5NqFRDIdwAmtwOQ02byfBOkHgf/pnxzw2hjkhIl9uf32Gwoh2egExC7VbSO7BJysABAbKiUnIpMilTysQIsAiLslEoVOihEVK+IljeMvp5rxTvc5j5vvTkFELcl/v37jFW8agURQTA5vCvv/7qUb3Ww0oK+CTIoImdOxYLBQP7M0gtyu/JwChLnfhNpMbO7zLKNJABmEC41UKEKPwQbnY9tUYzQyCDWQZACgCCJQw2UDFbgh9PSGik12cHrL2+WGJ2gRjRCHpm9gHXAnWf582Za/ZrAro+nwWZFy9eUGaaMqYIYwaorFepNoJzVZkUYXHLlkmsrNrT7DxMRU6FPzwyluDmkN9+MOU07062yvUkcJIAJAoAEqGI08v6aJWfEbREP27a5JaAvn/3jh7cv0+3b9szLYgqevr0qUbbBHMKxKS2DnMo4LMgg+4hUDU29kQCF/NZBdrC+Tc1C9Pu46jV2IV9ppo6k0msV0QhwWJrZVGbrWtKZ1ZH9GhcvwGdOVUSqNwZqyNwFvJ0Txg3nqpXrSrF623ftoiwiWsk+0CDusoofGjXkcNHnL3W+t0gBXwaZNCHlStWCEEGjACN077kkmBGfSKV8WDxuyjhW5IJtjLQysB0Pzw+RbdtjgTIjN8AvjCJr1urNnVs154G9utPQwcPphFDhxFSlCA3Enxzpk6eLO1jwKoaywAkYkOYjW++/poWL1pEc2bNku7v3aMntW3ViurUrCUZRoaqZoZmtBl1wH4FAeX37t5DO7ZvJ+Q56tqps4KOMPS7ee0q3b5x3eGMAmEa+vftS1Fh9rHv0a2by3sqLDkd38d+vfsYFCHrNmcU8HmQQQdmTJuuYEKeGbBMQsiHqYIMBiI1dnKjYrdnM5LlbFyyHIyJb4dZ5xDuStk51LhBQ+repSuNGTVKsv1Yt3YtHdi/n65cviyZwDtLHets4J39/s8//9DNGzdoxdKlNGncOOraqRPBepbvZxg0a2l5hCyZWArmtRtIsE+qXDycMuq1VdzLnjt86LDm1fBfU1vjIg0LAmT9V5AHCUZ1kyZMVGghq1auQkePuDf7uHLliqatCbFx9PGj+XtAms4HwAW/ABmMA8vtw5iVL2Fy/mW8NoBVWq0Wmn0ZdzM5upqPmm+f6Bz/vrWq1yBEZkOucPyr37p5kyDcvnJAyCDo7PPTtm0KYcxt3VtDX7b/VaXzSMW9jAaYmYoOLG/YPSi/W7lSeu9bVZqSJ4+fUG5WtnwvErJBle0p3TJSUuU6WTtOnzotaqp1zUUK+A3IgIlgdMUYQF3mB2v3bkRR8tKb93BpJpPUoANlFw2kzBY9KTopk2JSsikmrRLFZVSm+KwCsuUUUkJuDUrIq0WJ+bUpNiWHQkOU+zT1atemIQMH0aKvvqZ9e/dKMWW9PRNxkQ+Et4PmDGBQHj9yWEF/dZB0BjCsFO1XYd9EdOzds1dR98SxY6V3v/jzT/l2bNKyQGew2F24YAFBDW3G0aVYq8200qSYQVnyPWM8R91C7A84uqkBRu+7SI2d2aq3SyADVXVq065U0H287r82Eyq+zGjQXm7ntavXHHXLZ3+DiT0PMlcuXpD7BJrntOjhkCYxSVmK+/FMcYcOwv4CdHkn2fZt2krv/v3JE/l+bOT+tGMHIXi52dqfL+bP17S1VmF1+d3WifsU8JuZDOsi/s1yM7XMKwIakRrbXatfbBjnth9Chf2mOxQsBjR57QbJTItNTn88sB/CgwzO+U1W0Z4X6z/KpAJ71gY2PnAb0TuwCc3uy83MlN796L5zwzsAFJZRcBU4e+aM5BhpRKvEt+PIoYPyu1kbUP7GgRx/v3VunAJ+BzLoGmwfUhKMxUkp7D1FAQo57Qa5PJORTfPrtaO0Zt0pv/NIKugxQcpOyQsVf161+1iZaZHQzh8PEcikp9g1aqIIhDwNMhtrlyBwGdFbKkINzQQcrgOXzv9Cd27eEJIO8V+gOcP+jJ4mDEuqZo2b0NzZc+jUyVMOnR+RHTM2UuvD9d3qNcL3WxeNU8AvQQbdu3Pnjm7KW8aoKKt0GaUAGXMj5LUneHZntOhJ2UUDKK94OFXpNlbKjgBhY+b8CC/gjwdmA+qZTPWCqjIQZDXupKAtDzB5nUdSYs2W8r38mDx69EhIDhhg8vch8h7e/1G1GY74Q/369JEApGWz5pLqHfFgitu3l9Thw4cOlYAFAIE9sEsXLxJmwHrghsYgzUuzRsqg6WhLl+JOwrZaF41TwG9BRmKMx481alWeSXEOS1ue+TEL4Wcm3jpPblgsB3LyV0YVgQwcExmNMxt2VNC2oMd4aZM8pXFJWmA+NQx7BqUjQ7f8HLurxuwZMySQgfWut4+7t27S+NGj5b6x9sLq3Do8o4Bfgwy6/ueff0oGZIwp1GVu6z4KQSjNMJwIXIX2+OsGoghkOnXoIAuirUp9ymzTjzJb9ia9lDMsNQw/LqtWrtTlWqj02b09unSRQObVyxe695vxwz+fNrg3rlsnv5u1wRYTa8YrAroOvwcZjN6bN2+oWWPtVBeMot6chJbIW7MXdb3MIhgWrP54iEBmYF97VsmYrGpOaSmKVQNDOr1jyeLFsqDXqFpNAplnT3/Xu92U629ev5bec/nCBUICOwYwKLHfYx2eUaBcgAxIgHV6dnqGgkHAJJkN2itmMlW6j3MqGGqwcPd7ZLLdaAxWqv52/P33X5Lw8fsyE8baN7SjM6s6paUokDnS4Ogdx44elccwyWaT3s+nxdV7zpPrfzx9KveTV6MzsAHYWof7FCg3IAMSwHiKMQYr02q3UoJMt7FOBcNdUFE/F51RRW7P5UuX3B+lMnpSBDLzudAI6J+6z+rvEQla4K9WpUC3R7du3ZJpBg3TjatXCPmd1AeM8BAXeuzo0QQ/I/gsYe8LflxYcsEfCb9DQeDMPeDR/fsyyFSrbB8zxkPYkLYO9ylQrkCGn2ozBkkpbFxmIINwlKwdMCLzt+Pvv7QzmeVLl8h9is6o7BRkEGqT0YCVCHupdyA+L7sP5cljRyUA4I3vEA0PwALn0BrVqkmb/7CdgsMoZj8IEYFcXixgON4HP7AtmzfTu7fKTeT//lepQatfu7bi/WjD77/9ptdc67oBCpQrkNm08QcNgyRWViZ6K82N37iChnJ74PXsb4cIZDZt2CD3KSo93ynI8KFIefCASlnv4GPv7ti6RQIZhHNw50CgK8x6Xr16JTmWQlHAH388sy+VsCxs0aSp3D+0F4DFAxz/rHVujALlCmREubVtOdUUM5nKXUY7FQz1lN/d77YaLWSGhTe1vx0ikNm3e5fcJyO5rhH3lwcXdg7rXL0jj1Njr1q+TAIZbM6afQA87t6+JS+VADIdi5SOms2bNDX7tQFXX7kCmYsXlL41YOjYtEoKkDE7BKdDAKoLhi2JfYu9An87RCCD5QsDisiUHKeAjSyW7H6+3PTDD7rk4G1x5s2eJYHA44cP6cXzPwnq7DevX9Hbt28I9jN/ffgghYOAM6cjYzvRy+DhzW9q47x29RqK9iImj3V4RoFyBTKwJOUZGefRiRlKkOlsbpxfhyBTr50cOa+woKpnI1UGT4tABqb+jMbY1HXWf1t15fKDPTt/7jxNjzCzwIylfVt7LBqkw1UDgbPvcEXADOX+3Tv08N5d+vXBfcmi97fHv9LT357QH09/pz//eEYP799T1P3zmdOauDbuhv/UdC6AL5QrkHnx/LksAIyZI2MTVSBTOha/TPhCI0ryO0dHRPodm4lABgLOQqIiGyXrp16JKIJsLPhy8ICBMj1gfvD0t98kPyXU3661/ZmeXbspgMAZwHjy+6KFCzVtdRYjWO6EdaJLgXIFMggFwTMyztWe2HmdRjgVDD2Bcec6nxbW35K664EMrGAl2kbbDNEySJB5Ensdb1690swmABL8vkjLps1KDWSK29nDc6B/cJi0Nn11scPwD+UKZBD/RA0yIUEhiplMpeJhhgTDHUARPRPJxVQ5fuyY4YHxhRtFFr8Agay0krxSSC8r6rP6WnCQNsg7cijpzTp414XCKgW69+k97871s6dOSpoknn9GDhvuC8Pg920oVyCDfx2eSdh59b7TZKBBlDu1EHjze3Rmgdwmf0vo/s8/yqBVTHirVa4s9Sk8PNIQLZFlk40FK2HDcu3yJSGAIJ4wuw8hPdh7+RLPYg8F0fr279lNUHVv+eEHguc21Ow/rF8nlb+cPSN8nq8LQcsb1VfGvoE7AWIPW4fnFChXIANyhAdr8ytX7WGPapfRspchwTALeJCsjQkMQhD40/GvKsYvE8z6dUr6FBocaoiWyGjJaMCXh/bvEwJAj65d5fsBRgA1BLFKTUyUljBsT4ivS+8cz+dl51Cv7t0JMYpZH/hy1LBh8vtYPciCYB3mUKDcgUxMZKSGYap0HiHPZFKblIQhMAtEnNXDa1eQgcCfDswMeWFk562bl9j/QICd9R+/h8fZA10xIUb5/epVcv2njx+nubNmSTMKV0CEr48/x3IMG8hTJkygTRvW0+UL5+V3sX6gXLZ4sWwZzJ5Hv5CpwTrMoUC5AxlEr2fMwkoEFEekOiybzMi7ZESw5HvqQh1bYisD61F/O5D7iBdKnHfhUghDeyT3tV474XlkYqZmTDA2TRs2pOZNmkgzFDZW7pZwKxgxZAit+PZbAmCp26z+jlmNKEgV3o88UNZhHgXKHcjA+U7EqIhrgowCyDntTCjM/j0kxJ587PHjx+aNXinUdOfWTY3A9u9tj/liq9HcKT2jUisJx0Q0Tq5egwbo87lzNW1Ug8rZU6ekfRvMXIpatdbMXth74dJw9erVUqBs4Lyi3IEMVKOMYURlcIUgAtMb+Qc2C2zCou17EkjQ5k/Hvdu3NQLM72HEV2vsFGT4zW/RmLBrCFKOuEBwF7ypAAAL70lEQVSI3bv2u+8kh8Y9u3ZLSdt+PndOEn7kpmJpUdhzKFMTk6hJg4bSEgnBrmBfg5lKXk6OIvg5/4z6HLFk/G18/IGXyh3IIA2qmnlE3zGzge8NQkSaBSZ69UQk2sMdfLXwS3/gC7mND+7e0YDM1EmTZBrHVanvlH6xufppbLD/gcRuyLtkNEEbUszwWRNE4+vqNWixdv70k9xv68Q8CpQ7kEHWP1cYLLhiCMGb2JtgE51eovJFu/xNa4GUJOqlx4J5c2UaI5yFBlzrtiXMcGJyahD8m2BPozcmCPLtzrFh/XrdOvXeJboOZ8xpU6ZI0RXdaYf1jHMKlDuQQZeNzmZ4poPBGIIwIR2tRmh0NjSN3sfHlUFyOn86fn34QAMyyI/NaIfZIDytUUKLFBoWaThXOGYxRmcvIpohzgsi6a1cvlwKXoUMo0j9m5+bS1AAQNMITRVSo2CJBe0ekssh/CdmLf5mgS2igT9cK5cgA9UrliWIrcuEwWgZEhxK2ENIrGse2OBfnb0fwZScRWrzJcZ58usjDchAJcz640lZp2YtX+qq1RYvUaBcggyjFRwmZ82YQRmpaS4LRUhIGEmBsusWeTyzUacGQUhIfzl+e/JYAzL7dtljyrgLMpWycwihNq2j/FOgXIMMGz7MHJDkCzFg9bIN6gkLwAbaKFv1Zh6BDe+/40+hOOEdrd6TOX3iuMugzeiLWDHov6uxX9hYWqX/USAgQIYfFqzDMbuBYRxjfKNlWFQcIZykO+pvloMJ75o3Zy7fJJ8+5yP5M7CB35AezbD/gX2nerW0EfGwT2IdgUeBgAMZNsSI+Tp39my39m2QfjYiPpXiKtejxHrGllMRtlRZMLt17sKa4fPl8z/+0MxkADYsDi+M4ebPmU1bNm2i8+fOyvce2LtX7i8DpIb16vt8f60Gmk+BgAUZRkpEx8fMIiG2JNsjEwijJZZTsIPBDCe+sKnukoq3eoVfjb8cCHnJZjB8mZFSApqYnfDX2TlSmUSEKEM8+BO4+sv4+EM7Ax5k2CAhCyVy9cBy1CjAiO6DkV9YdALBXwf2NzE51SmuSj3pnL/fX8IIIKYuAw6+RJwX9CcpviQBG/8bO69TU2mE549xjhl/WKX7FLBARkU7BGqCSbueDxQPFJ6cI32LPxyIXsdAgy8b1q0ngUxcdIzwd9zLp7QFrazI//4w4ua30QIZHZrC1mb/vn3U6lNYA08ARfSsv0RdE0X0B4A0/5R7HHY/PPjw519+8YViVgjrWusIPApYIGNgzJFidlD/AZLlqAgw3LlWs1qhgTeX/S1IO8IDBztv07KlBCCwqGXX1OXun7YrQAYWvtgDs47AooAFMi6MN+xt4BsFtwWkR3UHXNgzIRUq+oXAifJhA0z4YN8IX6kGGHy/cuminNmA9fvE8eMuUNy6tTxQwAIZD0bx119/pZUrVkhJ3qFlwT81EyYj5aGDBz14e+k8CqM5EYDwcXj1YvXiuaqqBPaLFy0qnYZbb/EZClggY+JQwNnv4cOH0mzn6JEjdOb0aUJWy+vXrlNuVrYGgGbPnGni271X1e0bNzRA07tHD7k/SPgmAiJcQ2xdHnD79e7jvYZaNfskBSyQKaVhQS5sXthwjk1lfziQiVENIrzmiDfCU98HIOX7XTW/sj902WqjiRSwQMZEYjqq6uCBAwphg+Ahq+THfz46eswnfhOFexg+eLDcn9MnT2hAiIHNhnXr5PvQZ2vz1yeGtFQbYYFMKZEb9jfMFJ//Z8dyyteP3wWe2GNHjpTB4/CBA7ogc/L4Mfk+1u/Dhw77epet9plIAQtkTCSms6o6deyoEbhvlyx19liZ//7Hs6caEJk8YYLcF6iq2cxFXULzFBOpTO42f+68Mu+T1YDSo4AFMqVHa1qzarUsmOxfvVf3HqXYAvde9fLFcw2IzJkxQ+7Lpg0bNb/zYFOvtj3BHfrdoaidew2xnvJLClggU4rD9uTxE1kwGchkpqWVYgvce9XbN681IPL1Qrs175qVKzS/8yDTukWJ4R7rc2K8zb2GWE/5JQUskCnlYatVWF0DNEjz4cvHhw8fNCCCJGoMNBZ99ZXmdx5kitt3kO9lz1hBq3x5xM1tmwUy5tLTaW0zpk3XCNyir752+lxZ3gBLZx40cL5h7fdyP5BeVv07/11tKwOg8SSAeFnSwnq36xSwQMZ1mnn0xNkzZ2ThZP/qLZs196jO0nj4riqT5I6tW+R+TBo/3iHI8DY1rM9//fVXaTTbeocPUMACmVIeBCwTsCfBhA0lMhcino0vH48e3FcACR/5bvjgIYrf+FnM2VMnCalK+P7i/N3bd77cXattJlLAAhkTiWm0KpjWq4Vux7btRh8vk/vUAcVPcfYvvXv0lEEGLgYH9++jhZ9/Tk0aNSI4gqr7Cs/t9+/fl0k/rJeWPgUskCl9mtPmH3/UCB5CSfjy8fK5Uo198Zef5T4k2xKoRtVqZIvRzxTJA82QgYN8uatW20ymgAUyJhPUSHUvXrzQhEBA2E8EyvLV493bt/JsBcshGNlhmceDh5FzxP19/Pixr3bTapcXKGCBjBeIaqRKFvSJF8zzv5w38miZ3PPPP/9VgAyAJjcz0yWQSU9JpT27dpdJ+62Xlh0FLJApI9ojjjAPMDhHihZfPu7cVIZ8YCE41f1Qf8dyatyYMT6/ue3LtPfntlkgU0aj9/LlS81yo17t2mXUGmOvfXj/nmI20693bw1QAmCQgxx+WksXL6FrV6/59DLQWM+tuzyhgAUynlDPw2eL27dXCCnCICDDpa8eam/sGVOnKtoPgFn4xRcE4z3rsCjAKGCBDKNEGZSbfvhBI6Tr1q4tg5Y4fiX2Y6DCvn3jumIms3r5ck37l3+7zHFl1q8BRwELZMpwyGGQFhUWrhDU7l27lmGLlK/+579icGHGdgf27lG0HTMZK4yDkobWNyILZMqYCwAq/EZpXFR0mfv1lIDLE83MhYELKxFAXB08fcK48WVMUev1vkYBC2TKeER2bFfmJgLgNKhbj6ZOnky7d+2iP/74o9RaiBxLvz9xDi4MZFAirzcPkr5uVFhqxLReJFPAAhmZFGVzAkfBWFXkOF5ocZ6fm0sD+vWj1atWSdoaM8MkfHj/np79/hvdvXVLsd/CAwk7/+XsGVq3Zg1NGDuW2rRoIcwb3qW4U9kQ0nqrz1LAAhkfGJp+fbS+TGqg4b9DRVzUug3NmzOXtm/dRidPnCDEpHnx/LkhdTHiw/zx9He6d1sfWC5fOE8/btxA0ydPpo7t2lFORqZmacS3iZ336NbNByhqNcGXKGCBjA+Mxr69exVLDiaw7pShQUGERHNIgwur4j49e9LokSNp1vTp9PncuYTYvCOGDCHYuHQtLqa2rVpRkwYNqVZhIeXn5ErLH+wLqfdajLQFzyClr3VYFOApYIEMT43/v70zWEkgisLw2xQMlFGrAqOiqfaV9AZF0t5M2ldbaaG1kaACe4N8BKcXkMFW9gyzOXGGaCe40DN3OJ8rEfHM+X78UK/33ILu6wCnjcra3EQzixAW8Zzbm1ZBBCkbMgEkE0g6uiqziDe+xWvqOIfHdjsQklxGaASQTECJ/Ewm8v76Jvrj6UoUBS8d/Xqk2wd02h83CEwjgGSmkSn48SzLJBkO5aXXk2ajIbqvKVpaLlQ8OtpBz/S+qtfluduVNE0LpkT5MhBAMmVI6e8a9Ujb7/FYvpJEBp8D+ej35anTkYe7+1xEl+cXcnZak8P9OF9e1n8T6/L4+mpFdCe0jlqobm7JTnVb4t09OYoPRE9PUIHVjk/yT1Ct66bo+dW6PeB/5Wo0Ep2BE/K8mxLF6O5SkYy7yGkYArYEkIwtb6pBwB0BJOMuchqGgC0BJGPLm2oQcEcAybiLnIYhYEsAydjyphoE3BFAMu4ip2EI2BJAMra8qQYBdwSQjLvIaRgCtgSQjC1vqkHAHQEk4y5yGoaALQEkY8ubahBwRwDJuIuchiFgSwDJ2PKmGgTcEUAy7iKnYQjYEkAytrypBgF3BJCMu8hpGAK2BJCMLW+qQcAdASTjLnIahoAtASRjy5tqEHBH4BfistxQBAYmeQAAAABJRU5ErkJggg==;rotation=-1;" vertex="1" parent="1">
          <mxGeometry x="125.65" y="1550" width="134.35" height="130.05" as="geometry" />
        </mxCell>
        <mxCell id="t3DTqNQoftH0QR9HUmPb-76" style="edgeStyle=orthogonalEdgeStyle;rounded=0;orthogonalLoop=1;jettySize=auto;html=1;" edge="1" parent="1" source="t3DTqNQoftH0QR9HUmPb-72" target="t3DTqNQoftH0QR9HUmPb-73">
          <mxGeometry relative="1" as="geometry" />
        </mxCell>
        <mxCell id="t3DTqNQoftH0QR9HUmPb-72" value="" style="shape=image;verticalLabelPosition=bottom;labelBackgroundColor=default;verticalAlign=top;aspect=fixed;imageAspect=0;image=data:image/png,iVBORw0KGgoAAAANSUhEUgAAAUYAAACLCAYAAAAd1jAuAAAWAUlEQVR4Ae2dzYtWRxbG/RNcx4XbgGQTGMGFCUScgTEOLkQciC5aCAlBcJOFgijZpN1INkEQJBslEzMhKESySJA4i9AEmpCEIUw0ndDRfDh+zMDE5R2eNxzrdKWqblXd77pPw6XqffvW9zm/e+rcqno3PXr0qOLFPqAMUAZKkoGq4d+mkjqDbaFyUwYoA5CBpn8EIy1mzhgoA8XJAMFIoS5OqGn10eprKgMEI8FIMFIGKAOWDBCMVoc0fdIwPa0VysD0ZYBgJBhpLVAGKAOWDBCMVofwaT/9pz3HkGPYVAYIRoKR1gJlgDJgyQDBaHVI0ycN09NaoQxMXwYIRoKR1gJlgDJgyQDBaHUIn/bTf9pzDDmGTWWAYCQYaS1QBigDlgwQjFaHNH3SMD2tFcrA9GWgMRgvvfVztb5+n08cApYyQBkoRgYag/G14z9Uf/rDzerCuZ+qhw9+LaZj+NSf/lOfY8gxzJWBxmBcPn272v/HW9W+524twmtX7xKOtBwoA5SBSctAa2D86/PfVrj27rxVvXzou+rz1YeT7pjcJw3T0UqhDExfBloHI+AIC/LPO25WsCbpf5y+kFDROYZzk4FOwCjWIwAJCxIvaObWsWwvYUIZmK4MdApGAST8j4jfuH6PgKTviTJAGRi9DPQCRgEkrMdjL35f3fzXf0ffMXzaT/dpz7Hj2DWVgV7BCEBieo3lPWdfv1P9++7/CEhaD5QBysDoZKB3MIr1iOn1X569Vb33zi+j65SmTxump8VCGZi2DAwGRgEk4Hh431r12coDApKWA2WAMjAKGRgcjAJILO85cWyd/kcqxigUgxbftC2+puM3GjBq/+O5N37k9kICkoCkDAwmA6MCo1iP4n/k9sJ5P7WbPvWZnvKTKwOjBKMAktsLKdi5gs10lJ0mMjBqMMr0Gv5HnOLD7YUU9ibCzrSUn1gZGD0YxXqU/dc43iy2cbyPikAZoAzkyMBkwCiAlOPNPvmY2wtzBpxpCArKQL0MTA6MAkjsnuHOmfoBphKwjygD6TIwWTBiYTjBmD7gVBL2GWWgXgaKASO2Fs55ec/Vq19Xly9/Rf8r1/5RBlqQgaLAiOk1Tg//+p//mY1w4KSigwc/qLZsuVRdvPjFbNpNq6fe6mEf5fdRUWCUFzNyenjJU2207eTJG9WTT/6t2rHj3erppy8TjC1YCoRJPkxK6rviwCgvZ7C8B37IEk8Ph2UIEOJ65pm/Ly6CkQpdEpiGbkuxYBRAyuk9JZwevrKyXu3e/f4GIBKMBOLQECmx/OLBKIDE9Hqqp4djx8/S0oePp80CQx3SYiQgSwTUUG2aDRgBSDk9fCqn9zx88Gu1vPxpEIgCR4KRYBwKIiWWOyswivWIlzS4xnx6OJbeAHa4BH6hkGAkGEsE1FBtmiUYBZDwPx45MK7Tw+FH3Lv3SvXUU+9EAVFgSTASjENBpMRyZw1GmV7L6eFDnt6Dso8e/Shq2iww1CHBSDCWCKih2jR7MIr1KP5HnN4D316fAxLrR9QgtOMEI8HYp8yWXhbB+Py3lcARofgf+9heiG18ABouG3SpnwlGgrF0WPXZPoLRAqNAssvTw+FHxDa+VD9iCJYEI8HYJzhKL4tg9IARgJTDcZdP327lJB97G18IdKn/IxgJxtJh1Wf7CMYAGMV6FEA22V54/vxq9ouVGEgSjARjn+AovazGYDz7+p0Kb3UFIn2F9nmMWJMI/2CX5Uv+KaeHw48IsAFcMYDLvYdgJBhLh1Wf7WsMRlQWoACQBBxdwknyHgKMUjb8j9heGDreTI4Da9OPGIImwUgw9gmO0stqBYzSSZhqwnrE1FMg0lU4JBjRJplew2LWy3sQP336H51Om12AJBjLA+P6+nq1urparaysLK4vv/yyun//fq9LyUS35xa2CkZ0HhYq46dOuwbk0GAU4ONw3M9WHjwWVrxxxhmJLnh1+R3BWAYYAb5Tp05VmzZtCl779++vAM65Aauv9rYORqn456sPF6dpY9opEGkzHAsY0T60VdoNMPY1fdagjQEjFGltba3zi1ZNHqRhGdYBUf+f/ZzXz6KrobAzMEqhWCiNaWfb/keC8bcDagWOMWB86aWXkhRPK2FK/MKFC48fFCIHDMNKjAdWSh/jXvZpuE+b9E/nYETl4HfDUV+wrtryPxKM6WB89dVXk5UvVVlxP8GYrrBLS0tJY7Nr1y6CscOfsugFjEJuvKk9cWy9leU9BCPBKHI19RBT4tQHEEA69XaPuf69glE6Ai8rDu9bW/wmS67fkWAkGEWeph7izbMPjC+88MLv3kSLn3jq7R5z/QcBo3SILMrO8T8SjOlgpI8xfYorstpleO3aNS8Y+eZ5mDEbFIwQNvgfZfdMiv+RYEwH49tvv71YCoLlIL7rzJkz1ebNm52Kun379gr/96XF9/BjXr9+ndO8BP/XlStXnP0NK5JvnmcKRnkSw/+I3SSxy3sIxnQwSl/XhVu3bnUqKizOurT8f7oiE4zpfda1nA1uMdoNxM+cwu8I8IX8jwRjd2B84oknnGCkw78bBSYYu+lXmy0pn0cHRqk8theGlvcQjNMAo2xrw/QaC5jx4qDL6SHybpI/6icy6AuRvyyWxzY9pMHn3HJDPkZfHWK/1/2PMcCLHnwXmz7nPvRJTjqdBn2JfoXMoN4x4yLpdVqkz2nvaMGIRuL8QpyF6NpeSDCOF4zwZe7Zs8dpdcrbV0zX4a+sE1oINu6Ff1MufLbTQRnl5RLSiJLA57lt27bHaZGHyyUAqw3/Q/0kLULki/YgH/m/tMEVwtpG/iE/q/QPtvXh2rlzp7evUHf7QhnIQ9dTx/E/5Ouqn/4OY4R764D+5ptvVihT1wN11mUiDsBLW/T/UA6+lwv52GUCfFj/irfwPh831m7a445y8B3agX73pcXYpQB71GCUzsUpNrb/kWAcHxgBA614sXEonoy1HfryFPhB2G0IAHKSj2vhNJRH/o97bWUSpUXesW1w3QdldFk6aK/r/pTvXGAMWZ51ebvykz7CA8yVXvoJ5dp+ad1ul2tGHhyAIUDpyt/3nZSLOguIfffa38fCcRJglAHC8WayvRDTbFiU8j9Z+hPyS3bxP9RjKnulpa/qQpcgQ8BCPkYIqS2EKZ/xRttVLx8YUR7SuMrQoBUr0r4PCuKzAMUqgQLa6XI+S37SvjbAKGBpM09YxZKfDn1gRB18MwNM2SUPG5roQ1/fx/QvYGg/zGLS4R5AWOoVCicFRmkIfsnv2W3fEIzPGKsxZq+09F9dmArG0ALlWIHFfbayo54+MIby1ZD1gTGUXit1qjXjytfevtcGGHUdm1iKdn1d2zl9YLTT6s/aaneBUd/bdzzGapwkGKEwWN6jz0GkxXi5unjxi6inYdtgjHn6+2CrlQL52HXLASOsGMknB4xaqe1puq5vSlwrYxtg1Pml1CPmXpmqSh/mgFFb7WMDowv+0lYJJwtGaYCEBOMwYISC+pQNMLStQPie4GD3pdEKj7HNAaOeEuaAUdcZCo48oEz4HpYapsaAh1xoE2Aasi41KHA/fKRyhcCD/sD99iVyj3J9fYnvUS7ykLoijrbUpZH8EYbq58tHP1xSwYhpcmoaXY+6h7CWD91OHS8GjPA/4tDYlN0zbfgcx+Bj3LHj3WrLlksVfl9GD25u3CdYLh8jFE8LpY7bvjVdHx9E7Kd5ChgBXABEl5MCRg0vnUdKXLdfx1EPXz6hqbAvjXzverkk5doPGUmDEGMj99mhPfVPASPutS3OGMihf9APWmZiXTSw6uFz1mOPuN0u+eySY903iDf922RnOOTnvk4P10AdEowAIk4Lf+WVjxYnp7fV9ylg9Fl/IRCgnj6g2k/zGDDCGa99brofYsAIn6StzDqPlDjqLwqoQxs2Os+Q1afvc8V9Dxi7H11pfWOAeuv+iAEjytNpdHk+MMIytB+EOh3iITeNC8I6vU828b2+zxUvCozSQJzec+TAWvT2Qg261PhQYMQp4Xv3XqlwYri0u60wBYxQeA0AiddZXz4Y4Omv21EHRlgK+n47HgIjgKqtDDttzmffm3IAzJefry/Ql740+B4gkv62Qz2V9eUR6lsNuRAY0a6QZYqyfWCsGzuk9S3H0S/YfO3zjf1swSgdhdPDcXJPzuk9sYDsG4x4+4zr8uWvgkojfZATpoDRZ7HUWQK+6aNtWYWUt04h0Xafcrhe9OT0lZ3GB5G+wYh+s+tmf0b/2UCVz3pK62sT7rXzdH32gbFORpAXwZhwGomr8/GW2vW9nB7u2j0TC7/QfX2BUabNy8ufbngb72pz0+/aACPAgyczLED7wvc+gU8BY4y15wOjXU7TPpP0PohMDYy6b31tIhj9E+7R+BixtxoA07/YJ8KKsM3TwzUo+wAj/IhLSx+26kfUfWPH2wCjWB6poQ2skMWolddug3xuE4woD5YupoC+C9B3tZlg/P2vHtJibGgNipCHQizXwTZBWIb4+QS8iHHd38bp4X2BEVPm3bvf78SP6Oob+Y5g3HjaCyDogl3Kd5hOSv/aYRc+xqZTaf3QocXotwx9/xmNxajXMWLJDiw5/ACXXgSuBVLub7q8pwuLEUDEy5W2FmzrdsfECUYDRt9b5hQo4l6CkRaj98kYo5S59wjotDWHly4AH17CuPLFXuuc08N1GW2CUfyIJ0/e2LDd0VX3Lr8bEoz2S5Ehp9KhsgnG30AXI4d8+dLDlNk3EC4wCsAAr5cPfbfhsAedj+v0HklbF7YFRliIBw9+sPCF6roNEW8DjPDtYYqYcmHKCh+ebnMITnq6p9PoeBMfo89fmApFWozuE+HpY+wBmCEwAm6wHOF/fO34D17/I3bP4N6U5T1NwYhpMyzFtnataCjkxtsAY906xti6DQlGHwDxlh1Qxlo/faFNPn9c31Np+wHj6m8u1zEuE7t/fL7D2O9H6WMMWXkCSLzFtjtDPtedHq7zzwUjYAgr8fx5czyTlD90mAJG37IbAKKNdgwFxtDi6ZCl6ttN0jcY+1rgHTPGnEr3YBn6BqLOYtQw01YhrERXnnir7Ts9XOeVCkbxIx492u42Plcbcr9LASOsJ5dlhe9zy9fphgJjaC+x3hWi64o4poeu/ugCjCjPt8AeLgS7bvZn3y4d1F/f67OC7ft0Gh0nGCcERoEbwIbTweFn1IMpcRxCC/8k7pM0OkwBY5fb+KS+bYQpYAwpV8iyctXTBZwxgjHUrr7B6POhAlroO1c/47vQNNpeS0owxk6gzX2Tm0prqElcptd4Q61PBddC5dteGANG+BFxjcmPqNtmx1PAGAIXlBMvVMQfJ+UAgPgOx24BJKLcLmd8KP8QoKQsyRt10Zet/HK/DvX9Ou46oAFt8ZWFtOhTnbeO565jRB6+rZVSX9QJ9+CQDcAQ8bolSPY4EIwGeLGxIsBoAxLTci24Oo7Tw/X2whAYZdqMbXw6j7HHU8CItogSNg2hxHbfDAlGn/9U2umbIsr/ddgVGNFfucf86/rpuG25E4yxODT3FQVGASR20Bzet+bdXgj/I3bXAJC47N98wRa+Lo4Ds6HR1edUMLaxMwSK6do2NyQYfdNiDZHYeJdghLUaW4+6+zCWtlwRjAZ4sbEiwSiAhDUIAPoOqMD2Qtyr92fjGDBYil0cB2YLbFefU8GIetRNz+oUUv5vWytDghHtkno1DbsEI+rZxsMJAHTJFMEYi0NzX9FgBPTE/xjaXqj9kjruErIpfOebmtWdfNyGhQU/mO6jpmD0nXCNabIuxxcPvaRwwRL+QleZ6FNfGU18jDpPWI6+h5qrrvq70PKepmD01cn2Zeq2SNx3UC3PY4x80526XEeswtgQi74xxfZtL5SBLCF0HReGH5iKEUZYfFjLV+efg1ICFigL99tAlH7ESwOUjfv0he/0mYFyvx1CqbF0SKfFZ9cLFDutfEY5LtgJWJC3BgtecNhlhh4qABrq47qkDikhHibIywckqTfqqOvtKwPWqN0etDnUJp0X7kV6fWH8YspGO3Q6xJE2ZgOBjL2dPkaOje2XFyveYrTBCTjidHA9fdZCwPjG3QTy9hnKj0vejk61n1B/aUfMW/ExtBP1xINH6h3zQBlDvYesQx4OTarZgVFPr0PbC4ccVJa9Ec7sD/ZHqgwYxOXFZglGsSLhf8QvE/oWh6cOBu+nAlMGxiEDeTg0qWYNRgDSXsdIwR6HYHMcOA5NZMAgLi9GMO68tWEdY5PBYFoqM2VgHDKQh0OTimAkGL3LUKjk41ByjkP6OBjE5cUIRoKRYIxcUkZApQNqqD7Lw6FJRTASjAQjwVicDBjE5cUIRoKxOKUYykphueOxKPNwaFIRjAQjwUiLsTgZMIjLixGMBGNxSkHLbTyW21BjkYdDk4pgJBgJRlqMxcmAQVxejGAkGItTiqGsFJY7Hks1D4cmFcFIMBKMtBiLkwGDuLwYwUgwFqcUtNzGY7kNNRZ5ODSpCEaCkWCkxVicDBjE5cUIRoKxOKUYykphueOxVPNwaFIRjAQjwUiLsTgZMIjLixGMBGNxSkHLbTyW21BjkYdDk2pUYMRPmcohsn2FPI+RSjSU8rLc7mTPIC4vNhow4tf5zr5+Z3GiNk7WJhi7ExoqJPu2dBnIw6FJNRowykDhN6CPvfj94mTtPuBIi5GQENljWI4sGMTlxUYHRhHOG9fvVYf3rS1+8rRLQBKM5SiDyA5DjmkeDk2q0YJRhPvSWz8v4NjV9JpgpBKJrDEsRxYM4vJiowcjhBX+x+XTtyu8nGkbkARjOcpAsHEsRQbycGhSTQKM0lj8zOnLh75r1f9IMFKZRL4YliMLBnF5sUmBUQT3k4/vLd5a73uu+dtrgrEcZRD5YMgxzcOhSTVJMIrgXzj308J6bDK9JhipRCJPDMuRBYO4vNikwQhBXl+/X712/Ids/yPBWI4yEGwcS5GBPByaVJMHo3TE56sPqyMH1pL9jwQjlUlkiGE5smAQlxcrBowi1Neu3q3ge4z1PxKM5SiDyABDjmkeDk2q4sAIpXj44Nfq3Bs/Rk2vCUYqEUFangwYxOXFigSjCDq2F544th6cXhOM5SmFjD/D+Y5tHg5NqqLBKIrx2coD7/ZCgnG+yiPywbA8GTCIy4vNAowi+O+988vCetT+R4KxPKWQ8WY437HNw6FJNSswQlHkeDPZXkgwzld5CM5yx94gLi82OzCKMsjxZs9u+6bCUh/5nmG5ysKxnc/Y5uHQpJotGEVJsLyHYJyPwsi4Myx7zA3i8mKzByMVpGwF4fjOc3zzcGhSEYz8hTi6ESgDxcmAQVxejGCkUhSnFLQS52kl6nHPw6FJRTASjAQjZaA4GTCIy4sRjFSK4pRCWw6Mz9N6zMOhSUUwEowEI2WgOBkwiMuLEYxUiuKUglbiPK1EPe55ODSpCEaCkWCkDBQnAwZxeTGCkUpRnFJoy4HxeVqPeTg0qQhGgpFgpAwUJwMGcXkxgpFKUZxS0Eqcp5Woxz0PhyYVwUgwEoyUgeJkwCAuL/Z/AFlzIZTEgZ8AAAAASUVORK5CYII=;" vertex="1" parent="1">
          <mxGeometry x="530" y="1571.1100000000001" width="206" height="87.83" as="geometry" />
        </mxCell>
        <mxCell id="t3DTqNQoftH0QR9HUmPb-73" value="" style="shape=image;verticalLabelPosition=bottom;labelBackgroundColor=default;verticalAlign=top;aspect=fixed;imageAspect=0;image=data:image/png,iVBORw0KGgoAAAANSUhEUgAAAO0AAABxCAYAAAA56SS3AAAgAElEQVR4Ae1dZ1gUVxcmiSl2jLFhRRERlAWk2XtFsXeNLUVjiCWfMVETY6JJjIiCBkRUrLFgjb0b7Gg0GnuJxhoLW8H8PN/z3uXisDszW1hkd5kf89zZ2ZlbzjnvaffOHY///vuPlEOhgSIDriMDHgqzXIdZCq8UXkEGFNAqnobiabmYDCigdTGGKdZWsbYKaBXQKpbWxWRAAa2LMUyxtIqlVUCrgFaxtC4mAwpoXYxhiqVVLK0CWgW0iqV1MRlQQOtiDFMsrWJpFdAqoFUsrYvJgAJaF2OYYmkVS6uAVgGtYmldTAbcArRXr9+kg4fTafmqdZSQlELTZvxIMROn0MjR49kx8cvpNGfeL7R0+RravG0HZZz5gx48fKQI6ysUVvBo34HDjAfgz+CRY6lr7/epQ/RAatGxN4FH4B/4c+7Pi/TPvfsKfyT445Kgffr0GR06cpSmzfiJOvcYSvUaR5FvWEcKCG9Pfo3aUr3gVuQX3Ip8VS3YUVfVkgLC2lFAWHvyD+9APuGdqHG7XvRxzP9o+669pFarbRaQC39dZs/iedMj4+w5m+uTc3sxVtM2+O9Hjx47tC2M6/ejJ8wOe8Z0++87lJC4JJdHDSI7MR6APz6q5uQT2IzqNGxK3gFNqH6j1ox/4I9vZGcKbdWd+g8bQ4uXraTrN287dIxytHaF/1wGtAAWBHXytO+pafve5BvWgQBGMLx6/UiqUb8x1QowHt4NmlDtBk1zD/zGgf9r+jdm9+McglMnpB0Tqo1bttskGEHNurJnIWSmh49PC1q7fpNN9UkJC8br3bC1WRu5bfq3I4BD6nlbrq9am0a+vi2ZAoQSFB4+PhFMUVpT3737D2nWz3HkF9GF6gW3zuURaA+6c/4AsPwAv4T8wb0ANVPC4Z2p18APCP2zpn13v8clQAsAtOs2kIEEFhTMBUjBfDAdzLXngKCwegB8VWuKmTCFYMWtYXqrzn2oct1QpgQgYMLDq3YoRbaOtqoeubYARk/vUKpeLyJP/cK2PKsE0ryFyfluC0rRN6QNVa8bzmgCugiPYuX9aMeufRbbgWINbB7NvJ3qfpGMV/byCM+B16gH5+gfrK89npEcnV3tP6cHLVzYWqrWVMvfKEQAmj0AlXsGAgFrXbthMwpv05NgKSwxMjY+kd7zDhHtC+p7q1IDgqtpqR65/9du2EQlvRqKtsHHU9U3jHr0G56vdtCHw78fo7crS7f1Wvn69Pedf2TbgStcw79FrkLlfXRECZpCWVWpG0az5ybI9kOOpu7wn1ODFpamdPVgJgRgmiOYL1cHLLdX3TDqGD3IojY/88d5eqNSA8k+eVZX0bIVv+ZLuMZO+JIq1BZXDHwcUGKlKwda7K8lYf1m5mxJJVSjfgR17jmEsrKyJMcD17VSvSbMK+B9kypRH+iMo2LtRrnnuI5D6jlch5KK7vO+ZD8sjdMd/ndq0F69doOKVZQGBpiImBaMBvPL1Qyit7wCmZWDpcNRspqKXYeA4F45gcB/AAHqsqTNtTod+ahaSNYJ4Ro4/JN8CVe52mEsBLDUZ4/36tPpjLP5aqtd135Us36kKH08a6gocXGqZP1IXHn5NmFurFRfQXvOn7ZR/Vj2eMy4yfTphK8I5YjR42jIyLHUon0PBmLwDvebghgeV4du/SX74g6gtDQGpwftWyIuGwQAwAJjcQ4h+PKbWZSQtJRS12ygtK27co+Fyctp1uz5TCjCmndhoDYVBFNBQxxVoW6kxazl5199K2kJAf4yNULsFi54GR5lfEVBZNpfgCp56Qq720I4ULJGkGR+4HVPX7p562/R+hFfNmvfkwHNtF/8N8AH2oMPuw/8TlDGt27fobv/3KO7/9xn5d937rJrl69ep2MnMxj/Zvw4l/EWz+MAr6v7RSigtYTqwvwfzOWgzQWqVyCpIjswkAKcJ06dYULw4MFDevL0KWVmZpJWq809kFh6/PhfglD8dekqrV6/maL7DmPg5UIlVpavFUyTpn4nKqicJgcO/05vvOcvCSyPCv52x7Wbtu6gklWkY0xhn5lVHzZGtq+8z2Lllm07qaRXoOg4oOAiW0VLusaLliwnTxnAw/OZ/PUsRnvwQW8wWOxnVlY249+jx48Zb/ce/J0AYPD9zXJ+NOqT8RbrEBunu1xzakv74OFjeq2YN731bn3GsGnfzqbN2/fSxb+uEEAKcILBtjADluH6jVuUsGg5q1co/MJzxLfeDZvJZpNRFzKbUCjCZ/k5LGDKslU29Y+PZeqMHyStOK+fl7DqSKLZm1WdNGWGZFsYQ+y8XyTHENYiilk/3hdhiZDkw5gvGK/4uOwpAXQAGHzfvG03s8j21OMuzzg1aJH4WL1mI6WuWm8E6sNHhFjSEcSHBf5hTjxzu4SCJjx/p0pDOnTkmGx7Qz/4lGU0hc/x8/xYwMato0VjTCkFUaxCAJ2/8JdsX6XoFtS4o2hbGMfrlQIISTexZ7HoASGKVJIQfYJ3I/asvdccxX9723eG55watCAQrAdc3oIg1r//PqF6QcYFGhxowhJu389zF8i2jWmZ4hKuJYtrvVSyz4uNC6uc3invbwYGALZd1/6ilt3ebDUDnlegWVugA1MQqhaSinLTlu2SU1J4Fu6sXMZZbOzKNcsvRDg9aAuaiVhxhKSWEKz83Ms3jPoM+kAWdEjQwIXkz5iWHuXr07nzF2TrMB3jwSPpVKKyeda8dDW426tF+4u+jomZZFM7aBfAKyGhdEAX0Me0f/z3spW/Uplq4mOv4RdBnaIHSj7L61BKyyA1pVGRB+3+g0foTRGAAHyYXqgT2FxW8AwGA3XqPohqSEyXlK2uoiXLV8vWYcqU2XMXmMWYsFyVfEJZUg0ZVGYFBSvB0NfgJh1JrdbY1Na4SdOoSt1QUaUDuqQfPyVZX2LyMsnwAv1p3Cb/q8JMaaP8VjYrp5u3/5a0NIjVYEUtCUpcfJKk8MICDh0VY7EOYRu9B44yUwJI6iB+xn3d+48gWDKhVUdfi1cJpOs3b9nUViV/rNE2T6RBKXgHNqNMmZcpFi9dSVBKwn7wc/SndM1gevzvE5v6I6SDci5uhYu8pX3y5ClVq2duubjwIRn17NlzWcE7d/4iveFZT1R4AYh360ZYbQHRVjnvULMYE8pjUcpy1o/5C5JFlUSJKg2Zu2utsGOuFO47H6uwhGs8OuYL2XHv3ndQdlVYuVrB9FNs0V5yaC0vbLmvyIMWiRL/kFZm7iYXYMwTYwGAHFG1Wh01CG0rWYdHxQA6c1Y8A2tab/rRk6KrwKA8Ms4YX/k7eTpDdH4YSx7h7prWKfV79do0KisRk75ZIYC27dgtWxemzqTiYdAP1rpmYEtasWa9bD1S/VOuK5ZWUnAahkkDDqC1tFAewjVh8jeiCSIIL1zIBUlLJNsXCuf8hclU3uRFBAh/Nb9IUmuM8eqjx/+Sl4h3gLga0zfC+uTOkbiC+84VFC/RHuq/d/+BbF06nZ6thpKK51Ef+h0Q0YEmTJ5uc0JOru9F+b8ib2nBfEeAds/+gwTrxAVfWAIYfQd/KAsALoS4r2q98Dz1IJ7tMWBk7vPwDrr1Hioa1yLDfOeu/Ns4vK2KvpGi8SzaGzBstFXTNchmvy3z4gToAFBjak3VojsD7979hyyGHLyPSmlubd0StMigIja0NpPqCNCiPamXGxDX1gpoYlFQUQey1aaJIcSziGOFAhw7b6FoXFuqaiBt2y7v1qKeS1euEpZZCpULPy9RVUUr12zI056wbeE5liY2btvDLHHG6+IlxgTrDfA2ahlNjdv2pcnTZtJvO/coW/9IbCsjpLPw3GVBC0Bi/hPx0owfYmnYR+OoeadB1Lx5H2rarh8TCpT4jetwz3Af7j96/GSepXCYKoFLyAVMWFrrHoOo/Yd/QlV981pJXhemT3hMKmSA8PzsufP0lsh6Y6xvRhwrvBdb0Iite0ZcO33m7Dz3Cp/j55hjlcr82jJm1HfgcDqbopKiIacBSoAXlterbjjVD2lNYa2iKSLCaIEBYGu9BD6Ooli6HGhhIebGJ1HLbkMotG0vUjXpTA3C2pJPw2ZMELBrBAQi98j57R/Smt2H+8Pb9KDQDn2pU6/hTNsHhrczy9ZyQbNFgJHYgZXizwpLZFItxbXY2MwUSDy+RBwrFFCsva5Qu5GZsgEgVJGW41pMQ4nFs1A6nXu9b5VrzPuD2DZpyUp6p6R1byVxugDAeLEdPAN/gpp3pbCO/eiDsf+jDRu3KgCWsMAuA1q4jgBrSKue1DC8PUtwIMkBpoP5UutfuYDgfy4kTNP74YXrSKbtfXM2GeP3CktbQIuEFe4XPs/P0RbiUC7oYuX7H5gDCfOxeM50OSB+R/UcIhrX4gULuflReCmV6onHs3DFl65YI9tPsb7jDatZP86n4tVUFl1lThNhCf5wvtRVNaeQ5lEMwPCOoKjF2iyq11wCtH9dukIDRsRQcNPOVLluGFupJGR4fs7xNo/c87aAFqujwluJL/SHUNb0b0L/PhFfbKDRaMkvpLXZS+8Va4fQj7HzRYX2ux9iCf+b9r/Ye/50VGYlE8KK1yqKJ82KFfdhb0HZAwhsezo/eQVFtu5GJaurzLwA035K/eYAruwbTg3D21HLrkPYS/jPnxfMGnR7xlqYzzg9aDMy/qDmXQZRDWwSlrNDnxSz+XW4lKYH/8/W0hbQgpE//Dyf3q0ZZAYktIs5TamtSC9dvkpvi6wBfqtiAGGppZiQ7Nl/iPC/6ZjerRXMvBKxZ3AtKSWVkGU2fQ47V4Q27kJQPlLPWrr+7PlzOpx+nL76fg5bVlnSS0WVfULtBjB4DkUNl7/v+2Pp6vUbdvfNUt9d5X+nBu2Fi5cosk1vxjRoX1Mh478BUAgGBKRkpYZUP7gVNWkTzYSGx6vsv4oN2D1lawSz+yGkeJbXI1baClokm7AQQqwuNl+7aKmo0G3YtFUUSKWrqiQ37n7y5Al5vGu+ogkKDi/6SwnhwGGjRV8nhLKB0pF6zpbrsLoHDqXTnPhkGjF6AoEPJSs2yKW7GH3krsF1xsq1li37EuTClr64271OC1q4kc2a9aLKdcQXs4PBABzAiOzvpxOm0vxFy2nDpp20e98hpu0hNHsPHKEdew7Qhi27KHV1Grvnm1lxNGbcl9QxeiADuBxwbQUtFkD4S6yOgtBhR30xIcIO+9hpUCi4UCp4FU/O8jXv1MfsXVgouHLVg0nMncS1mgFNzdxwtFuskuUMt1jf5a5BsSC8AR8WLFpB4yd/S83b92QAxm6WUvtSCenAzzGuitWDqVX0ENGxyfXDnf5zWtDOnB1HnpXFt0ABEwE0JGm+mjGHafRr128QXDM55uj1enYPVvpcuXadTpzKoJVr0ghby3DBMC1tBS3ax04QleqYv+4HoStTRSUqcNUbtjADEuLV6TN/lh0T/peKa8+e+9Ps2eMnMkQ9AdDTr1Gb3FVXcnS097/nmZl04+ZtSj92klJS19GkaTOZ4gR4rQUwaAiPJTFFeqM5e/vnKs85JWiRha3m21gyhoWAYbpi6Yq1kq6jtQzA+7BS74QCwPaAFgvpxWJN1IckEYAj7B/GK+bmYs7W0vpfbA4uNreLuBaxq7AdnGOZJP4zVU5QMljsYHp/Qf3GVkHYvA6Kc9X6zQzA1iaw4Cr7hXWgR4/yToMVVF+drV6nBG1SynLyFEmUcEErUU3FNvqC5s4vQQEYqRjUXtDCJazhb0yG8T7zEoABcIT93r5zLxUXmSry8PS1uO4ZixE83q5tBkLMt2IKSdgOzqN6Yfmj+VapAD4SSKb3v4rf8IAAYLQ/M/YXFv8iR8FpJlbC2q5P21Io/X0VNJFrwylB24XNP5oLFpjH3ThHfVUNb6q8Vl58OR/as8fSguBDRo0VXbwAwHQ3+SLAdz/Gmm0UjlgPGVO5eBbt4H+/huZb5hg3pmtOmEriAgDLVMU33GxOGzSto2ppMbzg9RRkiUUkiH+j+49gSSsxwOIa8gN9rFzPXZD9LYy6nQ60SEB5VlWZCRZnHtw4fMbSUcTKyDhLHjLboNoLWqxuKimyOoolid4LzBPXtunS18z6YTeJ8V98bdU4pWLoYhX86U/BZm/49IeYVwGa4msGjqKpI+rB1FhgRDvJRBXoiB0ohUrJEe26Qh1OB1owSyy+46DFXOev6zc6TMDSNm2j4jLfy7EXtDdv3pZewODplxvXwvqVqWK+sRoAj72PrREixL1icS2mi1b9+nLh/w9z5onGs4i/ERtb09arvCcuYRGVltgZA/KA1VvWfHfpVfb5VbTldKDds+8Qm3rgIDUtAaKdu/c7TMCmfvuDrBtmL2jhtjbv3FfUUggXP8D6Fa9kvkDiNc96krv6mwoGkmliiyUwhTRq9IRcWkW06mZm0eEaI/5GHG5ab2H//vPiJclN1CEX8BoQ3hR2P191+04HWgBSard7MAr/4W0QRxAKGUy/COk3fNAeQGuvYMyOTRCdTsLGbL0GjmJjmLcAL73nzeZijXRF70aks3KPZ9yHnTPwnFDJIS4OadqZbeqOtcigHbZ1Fd4jlbByBH3zWweShHKZfYxH6nMl+W3bmZ93StAWl1hRBGGDS2Tr7oZSDAD4S8lkqdHe6xUD6NKVa3YpCbj6b5aomwckqBPAqeATTpmZaho0fIzZDv0A0qARY21qc8xnk8xeC0Q7sMC3/r7D5kbfEdl1ElnrtRs229SWFD0dfR2fhZHaKRMKCrE4aOjodp29PqcDbfqxE/S6TGIICZrPPs9/IgqT/GER3cwAI7RCOMfnLI/YORWC1VG16oq/TVPKK5CwdhjvlJpaPwDN1jdtELsWr2q+GAVA3bVnP/0ct8DMomN86Md9C9vKFJYQp65aS2VriK/jxlxtk7bdixxgwQunA+21GzfJo6z4zoYQMsRg3sFt6O49+c3W5AQNgO099BN6z8t80bwpaMtg9Y3MZx7l2sF/yHSLzTnCRe439GNRpQG3T2w1k1xbly5fk8wMI7sc1WuIWVuYNunSU/51Qbk2z5w9RzgQZsjdZ89/cOdVTbqyVy9NeYLfWMX2zffyq8XsadcVnnE60DLrFCC+Fy9nXjnvEJoy/Ue7BOX39OMMsEjSmFo4Xr+whKuKzcjtZSaysm9LuPv1glqY9QFun3eDpja7fYhrg5p0MotroeTCW3Qlv6CWZm3Boicvse8TmVB8bdr2ojY9h1HM518TrOL9Bw/tppOQvgDsZ//7ht6raf7aIecNQqjjJ/OuLBPW4c7nTgdaEHv4x+PM4jPOLJQQRLiVCxcts0q4Effg/VLswduq6yC2cZo1gEVbLC6sGUR/nLPt0x5caPC1NygZ0ySRcDzCcyiJ3oOMSSpeh7Xl6BjzuJaPQWy8rxf3YZ+StLZ+4X3HTpymN8r6UMWcj3WHt+pGPYaMpdj5SYStcOzxhLAHNTZ9G/bxRDZPL9ZnjAceQvvowVbxXthndzl3StDu2L2fipeWdpHBOOxY0ahZF+o37DOm5QFKvAQAC4Dj8pVrtGvvASZEuKdDj6GkimhPlevm3cPJ9M0aIYD4OUBnaeNuOYFAphhg5PXJlfh4clxCkl0WK3XVOtGpH7H2avpHUmTTbqTX2/fuLL7+jsw66ga4wI+KdUJJFdGBOnQfQtGDP6EhYyczRbl6XRoDMhQf+CI84F5v3LKd8anP8M+obbeBzI2HYhbrN64VrxBAm62cw5bji6v+55SgffrsGTVt1YNpVCnG4ToYi6kRaHmAsnP/D6lr/4+Mx4CPqE3XAUyIcA+2JTXV3HAPB438lObMS5QVdrSDbK+91nbV2jTRJJHY2LANK6yYPQKFuFYuiSdsDzEhpqTsaQfPALTIrAvr5DxBvA4Awwpj/67GbbtT2+hB1LH3SOrU78M8R1SfEdSsQy8jn+qEmsXdpvWX9vSnj2O+IsiIvX139eecErQgKrO2VTGvKK1xOUOh5QFKCAkTljqhzKKKfaiKP1O6SiD1GjKafXsVLqyqSReC9eH/m5bIssb/stguQbl162+rXGSMtapfpN0CibjWR4XY1TLNEBNK7aJhjVDjUyge79SRpBenHxQe5w+8HMYj8CnnAN/k+MTrwZgA2CHvxxBew7Smj+56j9OCFgL45XexVKqqyioh5My1VAKYpWsGMW0t/Fhy4uLl7MVssecRQ+H7r1Ak9ggCXNC2UX0tbngGF7pb7/ftaoP3Cx/psuSKgwaBkR3z9e4sLF3HqEHMQ7FGSYjR1dproD8y8B+P+YIuXLycL/pwOrly6bSgBVExfzj+q5nkWTNY1gpaw3ymqWsGUXiLKJo5N9FMW2NL0o7dh7BtSYX1AeCRraMpflGq3RYQY0lIXCK70gttYqFDQlJKvoQyeekK0df8hGPC3OcXU6W/O2utQCN7+/G4KYw/2M7V0eBlCraaitpHD6CFySvMeGZtP93tPqcGLYh94+YtmjpzLjVq1pnwZXZrN3fjQor7PWsFs/h31Gdf0fqNWyW3Fz14OJ0aRrSnSnVC2Wt1aG/Qh+NZoiS/K28wjnohbcnTS8X6gz7lObxU7P9r12/mC7R4Xradqiqq2aAZnXDQdMnFS5dpVmwiDRwRwxQexoQNCuDy2gNi8AvPg05tovrRhCmzmIeTX/q7E3CdHrQgNhazA2wffTaFsOjds3wDJvAAF4RDeIDhuM4AUb4BY/ynk7+j5KWryRpAoJ3ofiOp1+CPaPqP8XThguM2EUPdX3w9m2K+/N7swHX87wjhQj1fTp9j1gbaRTsr1qQRXjx3RFuoA4sr8FXA+Ump9MWMWBo+egJ72T4gtI2RVzWC6F3vRowvXCGixIHrjFdVVeyVTPB38KgYmj5rHgOro+Z+HTVWZ6jHJUDLCQVrhemBWbMSCEAc+tF46j5gFBMQ7MiAo8eAUTR89ET2P+5DHGrrpyYwfXT85OkCmQfEwoG7/9wzO3Cdj9MRJRTdq2jHtK8Yx7k/LxK8FigH8ADWcvSEaTRy7P8Yb0aN+ZyVn0yYyq5DmUz7Po7mzE9h/IUCUCyr+Ye3OK1dCrS807ASACKEA1MPEBB+AHCwjvjfkdaEt62U0sIkRhvwANYSCheuNHjDD3g+uA7lYmlTPrG6i+o1lwRtUWWWMm7bFIa70ksBrcRHjtyV4cq4XB/4CmgV0Do0llaUQsErBQW0CmgV0LqYDCigdTGGKZas4C2Zs9NYAa0CWsXSupgMKKB1MYY5uxVQ+lfwnoACWgW0rmFps3T0Qv+cHf9l6VyjzwUkWwpoC4iwisWx3eK80Dyh7HvnKOv6ITKcX0uG0wtJnz7VeByeRPqD440Hzvn1E7FkuLCRsu9m0IvMB0UCzApoFdAWqqC/eHqXsq7uIf2JWNLviyHtxt6kWd2WNEsiSP1LXVLPKyN/LKhOmtRmpE3rTrrdYxjQAXx3VpqFClowrKi7Ou4sXJJjy9IxywhLqtv5AWlWNif1gup5wRlfhdQ4EqrJH/y+eWUoM64MA7o2rTdlP77qtsAtNNDCndHt+ID0hydR1q2jbktgScEtohYeVlCfPoNZxjyW1BqAWgIw/o+vQpmxHqQ/uchtZarQQKs/nkiZczyYdtWu7cjcI3fWjkUdvEgiGc4sY+6vOr6S0aoKgcotpqXSGuDGlSLtbxMV0Dpa6GBd1UvCXrpEC6qTbttgMmQkE3Obi6glcjSdnaU+/bGfSZ1Ym9SxHqSOK5XLd+bSIm6Fe5xUn8WyiFE1qa0FRzNSJweye3LvFwLeFMjxlUi7ybbPqjgLnazpR6FZWnTOcHErwcoyRoAJYF5SfRbnIHuogNf2DKw1TC+Me3TbY0izJIjFryxptG0w47PuwHhjJhhZ4IxkY9b4wkYmG5APduD3mWXMG8P9eJ6BXAq4AK1iaQtOeGBxkTjIBW4OeJE9RMyrgLfgaP8qwYtYFlMzyBQjn4FQCEoZbrMt/cD9eF7/+3fGRJUYcONKke7ATJvqtaUPhX1voVpaPngwFABlsQ5nAhIKcWWYu4QMowJe9wAv53l+S4BXs7ytUWZM3eNYDzKcWaWANr9EtvQ8tK7+8DTmHjM3mTPC1PKeWebW6XxLdFL+f6m8tDu+NMbHXFZ4GetBWbePKaB9FcLCMowZyaRZGmZ0lzkTUOZYXiQkkLDCZLy7T6K/Cpq7chu6vd8aE1tCOUmoxqZ83Hl1lFO4x6aCY/hjHWnWdabMOE/zCXZYXmQfF1Qn7dahZMhYSFm3jtMLrWM3RjPtk/L7pYUrSFq8UD+irJtHyHBmMRnOraAXz6U/aar9bRyp40rkXXwB5b6whttaWdDeKUGLjmXdySDttsGkXliH1PM88zImx/Iy8MZXIs3aKNIfmUKGS1sp+0n+9g0uSIFU6pYAPlZIPbnJ+Kc7OIk0q9sZs8OJvqTbN15y1Zzm1x7mMW1cadJu/lABbWEJW/aze6Q/+hNpUjGfK2J1heCNK0WapU1Jt/NjMmQkMW2tWF8JkDjJHHiuVT0Vx/gG/jFFDE8KHlXO6iZRVzdLR+pfvM09MSShzqcpoC0s0PJ22Xzupp5GrSpmdXlMw13n+CpMW+sPTyHDhfWUff9PeqHPdGtGclo5ewk+ZN05zVxf3YEcq4oVUhyonJcoweskX3qhfmzGu+zHV8zjWZa0LEtQ9s5Oh/z0z2ndY9NBZT+6TLqDX5F6sUo81hUyOwe8mXNLkXpxEGk3DyR9+nQjgB/+Jelumbap/HaMpYbHA8VpOL+G8UG7oTupE32J8UcMrCzp6Mk8LEPGUlEA6jNSzUEbV5o063qK3u9OvHQZ0HKiI0ml3dJfOtYVghfnpgBG8urEzJcWWP3I7ZnMafcqS+b65lhU5BugONVJAdJA5XzLCYO0G3uy1VBSfdZuGGSehIJrfGGL2/PT5UALJmY/uW2MdVe1kI51uRAIS+4+Q7vnWGAkPpClRMaSJbGK+K4IUiCxdB1uLzuB5F8AAAcFSURBVPjCM7+gK7eoeeJUIT+E5znWFZ6U7sAXBM9Kqk0oBPWCHIXM6wBvFweIutJS9bjqdZcELSd21rUDpNsxjNQpIZZdZs5cXgoBnOhLml+jjUmsHCuMaSQIofK+r4SLnJPxZSCF23t0Oul2ffIy8wvFKOb6cvoLS25d07oTPKn/srSSgAXvDZe2i7rG+vQ42ee43Lh66dKgBfGRpEDcA3eKvTAtl6gSCorwHAAWgnhxEJtGghByV9oI4ptFdj6YxaUP/zJaUoD0+ExjxhfTM0kBL7O+1gIV9AfN53mSZkUT0h2aStkPLloFOu2mYXldY9SzyNeoZJ0kM16QisHlQcuJwxJVR6aTdm17o8uco70t7nwgBC8/FwI4x5XGXDCmk1hG+tQcNqeILCissVtNLWEDNfUjygZAbx1n4zScmsPGjcUs8EjyxKa2gFRAX7ZwZmkE6XaNJMPl3VaB1aikH5E6vnyeqZ7MuaVJf2y+1XVwmXHV0m1AyxmQdfs46fZ/ShrEu+xla4n5XS5A1pQCEPOMJ+YUEbPBGrOFHQAyVvFc2cmmNCD0WM3DAO1scTLb2TDzJTiRMLqy09j/EzOJxaMA6NooNvcNN5ePm1lH0MMaupnew+PWlBC2cMZwdhW90D21CWyYg2Xv5PK6oZyXhRWJWJbLuNuBlg/McHmn0X1bHkbqhKqknleO1PFe9gkbFxBhGV/Z6KJhGR0/FtQgzcoOpN04gHQ7RpP+yNdkOPETGf5IoaxLGynryg7KuplO2ffPU/bja5T99A5lP/uHsAvhC4Oa/svWmx9y7p7J/ajjhe4Zqw/1sjYeXaasu2cp6+ZhY/uXNpLhj6VkOB1L+vTvWT/RX/RbvaDGy7HwMWGcwnHbcw66g/7JKtJuiCL98QQ2ds4rW0rN2q4vXWPUO7c4Gc6ttwn4trTnjPe6LWgZsQ0aYuDdO5E0a1qQeqG348ErFGIIuBiYcS3Rj9QpjUizKioX1Lp9E0m3fxLpj35P+lOxZDiTwABuOL+c+MHADsDjuLzVeOT85vdAKbBnAcTjP7H6UC8Uh+63UaTZ0NsIypRGxn6gz3ElKHOuQOHwvgvHk99zABUHLOvGaCNY/71hN8CgiIRWNjOuLJtKckZgFWSf3Bu0AisFt1l/cBpp17Uj9S8+BQteMWHnoBADtRBA+B8Wjx8AOz8WBZIaB//N7xHUmQeI3FqiFLYv1j9HXeNWdV450iwJJN3mnqQ/lWy3ZRUKv/5EIrOsxoRjOdKsbErZ+VACwrpd6bzIgJYzhe0GeGgG0/zqlHDK5NbAka5zfgEgBJg15/ltzxHPx3sZaZlQlTSrmpLutwHMbX2R+dBuy8p5hhKuv3pJOFM+4JlmWTBl3TjikLqF7bjCeZEDLWcK4kn96VTSbhvAhAzW1ykB7AhAFVQdAqsKBYh4Vbd3ohFMBo1DAZV1K53t3sl4tCS4SKx84rJqWhZZ0OYSwqBhQqaH9U2LZho8N/aFFXYmC1xQ4LO2XtAiD1BDWLgBqwoFWJCuqv7YQlLPK81c4qKwVDFXPgUhHr+mgFZAFFhfCASLfTdGkwaZZx7/FlUAC0EKVz0lhCX1dFv7GGNVfILDwVaVC6ewhCuca8UFPBPeU1TOFdBKCAAD8OWdBAuMZAriNExZsGyoM8bB1lpLS/cJQYpxLvRm3oc2Lco4J30qmZDUc6sFJRIy4KxKQAGtFQxDMgWaHvOLcAUhwNwK58bB3BJD6C0Bw1n+R18FIGVjia/Msr7IsjNrenAa8z6Y6/sKLKqzAsWZ+qWA1grQ5mGYQcNiN8z/sjh4+xAjiGGJU8Jz54KdCswcnCIAZe7u8jDSru9A2i19SLcnhmV9kWVXrKnEyxK2yoyD71dA6wCCwgoxS3w6lcXDzBpviGKxH+YqmVuds7AjD5iFbrYQWKbnQsts+p/pb16nsMSKsCQs7ghnbr4QoJhDhQLKfnBBAakDZCGPgi+g+hTQFgRhDWrKfnSVsm4cJn3GCtIfmU263eNIm9aZNOvakWZ1E9Isb0Sa1GBSJ/uyd3sZsBcFkDqxLqkX1ib1gpqkToCrneNuA5wMvPyal/Ee3Itn8OziIFKn+BvrXtWYtOtasza1v40g3f5ppD+WSFlX91EWs6L/OnRK5lUIq9KG0fIroC0I0ErVibXBz+8z0ADQABAD9bFE9pYKA/f+aaTbO8kI8u0fEgCn3TKEtFsGGkv8zjmgCNi9AOSR2QyU+j/WM2WRhU9v4H1grGnGIdUn5brL0UYBrbMLLQedWOnsfVf6VyAKQQGtIlgFIliKZS+4JJYCWgW0CmhdTAYU0LoYwxQLVnAWzFVoq4BWAa1iaV1MBhTQuhjDXMUaKP0sOI9AAa0CWsXSupgMKKB1MYYpFqzgLJir0Pb/pJspyZS9I4AAAAAASUVORK5CYII=;" vertex="1" parent="1">
          <mxGeometry x="833" y="1410" width="237" height="113" as="geometry" />
        </mxCell>
        <mxCell id="t3DTqNQoftH0QR9HUmPb-78" value="" style="shape=image;verticalLabelPosition=bottom;labelBackgroundColor=default;verticalAlign=top;aspect=fixed;imageAspect=0;image=data:image/jpeg,/9j/4AAQSkZJRgABAQAAAQABAAD/2wCEAAkGBwgHBgkIBwgKCgkLDRYPDQwMDRsUFRAWIB0iIiAdHx8kKDQsJCYxJx8fLT0tMTU3Ojo6Iys/RD84QzQ5OjcBCgoKDQwNGg8PGjclHyU3Nzc3Nzc3Nzc3Nzc3Nzc3Nzc3Nzc3Nzc3Nzc3Nzc3Nzc3Nzc3Nzc3Nzc3Nzc3Nzc3N//AABEIAJMAkwMBIgACEQEDEQH/xAAbAAEAAgMBAQAAAAAAAAAAAAAABQcBBAYDAv/EADQQAAEDAwMCAwcEAQUBAAAAAAABAgMEBREGEiExQQcTIhQVMlFhcYEWQlJykTM0gpKhI//EABkBAQEBAQEBAAAAAAAAAAAAAAABAgQDBf/EAB4RAQEAAgIDAQEAAAAAAAAAAAABAhESMQMTIVEE/9oADAMBAAIRAxEAPwCrAAdz5oAAAAAAAAAAAAAAAAAAAAAAAAAAAAAAAAAAAAAAAAAAAAAAAAAAAAAAAAAAAAAAAAAAAAAAAAAAAAAAAAAAAAAADvgAAAoAAgAAAAAAAAAABlrVc5GtRXOcuEa1Mqq9kRDBu2WaamvNuqKWHz6iGqikihxnzHNcio38qmPyKs7TFRoLVNLbnXCezysp2sV7l3s3NaiZyrc56fQ8LHo3UN+pVqrVbJJqdFVElV7WNcv03KmfwWhdKT9eUV1kpZb9ZLnHT7Kijq97ad+EX04X0qmU6phe+Dc1LV2ij09YHLTX2W3pA1aeSyyK1jV2pjftcnK9s/XueHtr39OKnaHTF7r7pPa6a3SrXQN3SwPVGOanHPqVE7p/k2/0LqZJaaJ9qkjlqtywsklja521MrwruOOylvWO8QXnxDZM2111vqWWlyTJXQpG6RqvYrFTCrn932zgqCq1be11FFcaq4VFRJR1iyxMe/0tw7CtROiIrePspqZZVm4YYoqO1V0l390spnrcPOWDyOM70XCp8uy8ncWqiqLNo7UlvuWlUqKmFV82r82JfIyxFTdzn05R3pznJ3b6O0Utxn8SWyNWlktjZWRInKyqnxf2Vu1uPnk5HS9XNcPDLXVbVuV09RJJJIvfKsQlz3G5hMbpxlk0ZqK+0vtVstcssHaVzmsR323KmfwabrBd2XdLQ63VCXFV4p9nqX6/LH16FqeJ8uoYIrK3SKVyWf2dNi2xjnerjbu2c4xjHbqbHh828t1Dep9WR1K3laCNadHbUcsPOUj7fFtzjvjJfZdbZ9c3pVt+0hf9P0yVV3t0kFOqonmo5r2oq9lVqrj8m5B4easqPLWKzSK2SPzGvWWNG4Xpzu/86nbu1JaYdNX+jbZNWTUskL0qlr2LIkLlRUyqudlvOF4+WfqefirerrbLPpqC2189IyWj3yeQ9WK5WtZjlOe6kmeVul9eE+1WF1tVfaK51Fc6WWmqW9WPTqnZUVOFT6obkelr3JAkzbfJtVMomW7v8ZyWvqKKG5w6KuNwVJKt1PI5Xr+9yxsdynflMnB19+vkeq3U8bnoxs6MZT7EVrm5+2eU7nN5P6fJy44a+Td25vLvHPjHPMsF1fZ5ruykctBBJ5U0qOT/AObuOHNzlOqdu5j3Ddfcfvv2N/uzfs9o3NxnO3pnPXjOC2rRNRz6juWl6lW+Rerer1T5SplufurUT/ohOOp7UtG7w33IsiWhHeYv8umf7Z9R7eP+i54TLXb28eEzxmSiJLHc47HFe5KVW22V6sjnVzfU7Kpwmc9UXt2I4sbxaqEint2mbW17qOyUzVmRjcoj3NTCux0VG8/81K5OjG2zdZzkl1AAFYD2o6qooqqKqo5nwzxO3MkjXCtX5niArqrj4iapuVudQVNzXyHt2yLHG1jnt7orkTueGn9b6h09S+y22vVKblWwysR7WZ/jnp9jnATjOl55froYNbaihu8l2S4vfWyR+Usj2o5EZnO1E6ImU7EA96vkc93LnKrl+6nyCySJbb2lH6guj7Cyxuq3LbmSeYkOE65z164yucCh1Bc7faKy00lQjKKt/wBePYi7uMdV5ThCLBNRd10ti13qOw0nslur1SmT4IpWJIjP656fboaMup75Lem3l9zqPeDeGzbvhT+KJ02/TGCIA4w5Zfrpr1r7Ut7oHUNdcF9me3bIyJiM8xPk5U5VPoRt71Bc77HSMuc6StpI1jhRGI3a3j5deiEWBMZOi5Wpqs1TeK2nt8E9XmO3f7XaxrVZxjrjnhD4fqa8PrEqlrpEkT9qYRn229CIBm+LC/bGb97SDbzcG3iO7tqHJXRSI9kn8VTpx0xjjBsfqa8fqFL/AO2O95ouUm2pj4duNvTGOxDg1McZNSLLZ036i819TVVlVNUOdNWrmd2E9amgAUAAEAAAAAAAAAAAAAAAAAAAAAAAAAAAAAAAAAAAAAAAAAAAAAAAAAAAAAAAAAAAAAAAAAAAAAAAAAAAAAAGTAAAAAAAAAAAAAAAAAAAAAAAAAGQAB//2Q==;" vertex="1" parent="1">
          <mxGeometry x="389.5" y="1351" width="107" height="107" as="geometry" />
        </mxCell>
        <mxCell id="t3DTqNQoftH0QR9HUmPb-80" value="Phase 1 &lt;br&gt;1. ON-bpoard to azure devops&lt;br&gt;2. setup git ops&lt;br&gt;3. create terraform scripts&amp;nbsp;&lt;br&gt;4. apply right sizing&amp;nbsp;&lt;br&gt;&lt;br&gt;Phase2&lt;br&gt;1.&amp;nbsp;" style="rounded=0;whiteSpace=wrap;html=1;" vertex="1" parent="1">
          <mxGeometry x="-740" y="-540" width="770" height="450" as="geometry" />
        </mxCell>
        <mxCell id="t3DTqNQoftH0QR9HUmPb-84" value="&lt;font style=&quot;font-size: 24px;&quot;&gt;AZURE DEVOPS&lt;/font&gt;" style="rounded=0;whiteSpace=wrap;html=1;" vertex="1" parent="1">
          <mxGeometry x="-620" y="1870" width="1869" height="480" as="geometry" />
        </mxCell>
        <mxCell id="t3DTqNQoftH0QR9HUmPb-92" style="edgeStyle=orthogonalEdgeStyle;rounded=0;orthogonalLoop=1;jettySize=auto;html=1;" edge="1" parent="1" source="t3DTqNQoftH0QR9HUmPb-86" target="t3DTqNQoftH0QR9HUmPb-90">
          <mxGeometry relative="1" as="geometry" />
        </mxCell>
        <mxCell id="t3DTqNQoftH0QR9HUmPb-86" value="&lt;font style=&quot;font-size: 24px;&quot;&gt;Github&lt;/font&gt;" style="sketch=0;outlineConnect=0;fontColor=#232F3E;gradientColor=none;fillColor=#232F3D;strokeColor=none;dashed=0;verticalLabelPosition=bottom;verticalAlign=top;align=center;html=1;fontSize=12;fontStyle=0;aspect=fixed;pointerEvents=1;shape=mxgraph.aws4.git_repository;" vertex="1" parent="1">
          <mxGeometry x="-540" y="1940" width="60" height="78" as="geometry" />
        </mxCell>
        <mxCell id="t3DTqNQoftH0QR9HUmPb-93" style="edgeStyle=orthogonalEdgeStyle;rounded=0;orthogonalLoop=1;jettySize=auto;html=1;" edge="1" parent="1" source="t3DTqNQoftH0QR9HUmPb-90" target="t3DTqNQoftH0QR9HUmPb-91">
          <mxGeometry relative="1" as="geometry" />
        </mxCell>
        <mxCell id="t3DTqNQoftH0QR9HUmPb-98" value="&lt;font style=&quot;font-size: 18px;&quot;&gt;Access&lt;/font&gt;" style="edgeLabel;html=1;align=center;verticalAlign=middle;resizable=0;points=[];" vertex="1" connectable="0" parent="t3DTqNQoftH0QR9HUmPb-93">
          <mxGeometry x="-0.1042" y="-1" relative="1" as="geometry">
            <mxPoint x="1" as="offset" />
          </mxGeometry>
        </mxCell>
        <mxCell id="t3DTqNQoftH0QR9HUmPb-101" style="edgeStyle=orthogonalEdgeStyle;rounded=0;orthogonalLoop=1;jettySize=auto;html=1;" edge="1" parent="1" source="t3DTqNQoftH0QR9HUmPb-90" target="t3DTqNQoftH0QR9HUmPb-100">
          <mxGeometry relative="1" as="geometry" />
        </mxCell>
        <mxCell id="t3DTqNQoftH0QR9HUmPb-102" value="&lt;font style=&quot;font-size: 18px;&quot;&gt;KMS&lt;/font&gt;" style="edgeLabel;html=1;align=center;verticalAlign=middle;resizable=0;points=[];" vertex="1" connectable="0" parent="t3DTqNQoftH0QR9HUmPb-101">
          <mxGeometry x="0.635" y="-7" relative="1" as="geometry">
            <mxPoint y="-1" as="offset" />
          </mxGeometry>
        </mxCell>
        <mxCell id="t3DTqNQoftH0QR9HUmPb-90" value="" style="shape=image;verticalLabelPosition=bottom;labelBackgroundColor=default;verticalAlign=top;aspect=fixed;imageAspect=0;image=data:image/png,iVBORw0KGgoAAAANSUhEUgAAAUYAAACLCAYAAAAd1jAuAAAWAUlEQVR4Ae2dzYtWRxbG/RNcx4XbgGQTGMGFCUScgTEOLkQciC5aCAlBcJOFgijZpN1INkEQJBslEzMhKESySJA4i9AEmpCEIUw0ndDRfDh+zMDE5R2eNxzrdKWqblXd77pPw6XqffvW9zm/e+rcqno3PXr0qOLFPqAMUAZKkoGq4d+mkjqDbaFyUwYoA5CBpn8EIy1mzhgoA8XJAMFIoS5OqGn10eprKgMEI8FIMFIGKAOWDBCMVoc0fdIwPa0VysD0ZYBgJBhpLVAGKAOWDBCMVofwaT/9pz3HkGPYVAYIRoKR1gJlgDJgyQDBaHVI0ycN09NaoQxMXwYIRoKR1gJlgDJgyQDBaHUIn/bTf9pzDDmGTWWAYCQYaS1QBigDlgwQjFaHNH3SMD2tFcrA9GWgMRgvvfVztb5+n08cApYyQBkoRgYag/G14z9Uf/rDzerCuZ+qhw9+LaZj+NSf/lOfY8gxzJWBxmBcPn272v/HW9W+524twmtX7xKOtBwoA5SBSctAa2D86/PfVrj27rxVvXzou+rz1YeT7pjcJw3T0UqhDExfBloHI+AIC/LPO25WsCbpf5y+kFDROYZzk4FOwCjWIwAJCxIvaObWsWwvYUIZmK4MdApGAST8j4jfuH6PgKTviTJAGRi9DPQCRgEkrMdjL35f3fzXf0ffMXzaT/dpz7Hj2DWVgV7BCEBieo3lPWdfv1P9++7/CEhaD5QBysDoZKB3MIr1iOn1X569Vb33zi+j65SmTxump8VCGZi2DAwGRgEk4Hh431r12coDApKWA2WAMjAKGRgcjAJILO85cWyd/kcqxigUgxbftC2+puM3GjBq/+O5N37k9kICkoCkDAwmA6MCo1iP4n/k9sJ5P7WbPvWZnvKTKwOjBKMAktsLKdi5gs10lJ0mMjBqMMr0Gv5HnOLD7YUU9ibCzrSUn1gZGD0YxXqU/dc43iy2cbyPikAZoAzkyMBkwCiAlOPNPvmY2wtzBpxpCArKQL0MTA6MAkjsnuHOmfoBphKwjygD6TIwWTBiYTjBmD7gVBL2GWWgXgaKASO2Fs55ec/Vq19Xly9/Rf8r1/5RBlqQgaLAiOk1Tg//+p//mY1w4KSigwc/qLZsuVRdvPjFbNpNq6fe6mEf5fdRUWCUFzNyenjJU2207eTJG9WTT/6t2rHj3erppy8TjC1YCoRJPkxK6rviwCgvZ7C8B37IEk8Ph2UIEOJ65pm/Ly6CkQpdEpiGbkuxYBRAyuk9JZwevrKyXu3e/f4GIBKMBOLQECmx/OLBKIDE9Hqqp4djx8/S0oePp80CQx3SYiQgSwTUUG2aDRgBSDk9fCqn9zx88Gu1vPxpEIgCR4KRYBwKIiWWOyswivWIlzS4xnx6OJbeAHa4BH6hkGAkGEsE1FBtmiUYBZDwPx45MK7Tw+FH3Lv3SvXUU+9EAVFgSTASjENBpMRyZw1GmV7L6eFDnt6Dso8e/Shq2iww1CHBSDCWCKih2jR7MIr1KP5HnN4D316fAxLrR9QgtOMEI8HYp8yWXhbB+Py3lcARofgf+9heiG18ABouG3SpnwlGgrF0WPXZPoLRAqNAssvTw+FHxDa+VD9iCJYEI8HYJzhKL4tg9IARgJTDcZdP327lJB97G18IdKn/IxgJxtJh1Wf7CMYAGMV6FEA22V54/vxq9ouVGEgSjARjn+AovazGYDz7+p0Kb3UFIn2F9nmMWJMI/2CX5Uv+KaeHw48IsAFcMYDLvYdgJBhLh1Wf7WsMRlQWoACQBBxdwknyHgKMUjb8j9heGDreTI4Da9OPGIImwUgw9gmO0stqBYzSSZhqwnrE1FMg0lU4JBjRJplew2LWy3sQP336H51Om12AJBjLA+P6+nq1urparaysLK4vv/yyun//fq9LyUS35xa2CkZ0HhYq46dOuwbk0GAU4ONw3M9WHjwWVrxxxhmJLnh1+R3BWAYYAb5Tp05VmzZtCl779++vAM65Aauv9rYORqn456sPF6dpY9opEGkzHAsY0T60VdoNMPY1fdagjQEjFGltba3zi1ZNHqRhGdYBUf+f/ZzXz6KrobAzMEqhWCiNaWfb/keC8bcDagWOMWB86aWXkhRPK2FK/MKFC48fFCIHDMNKjAdWSh/jXvZpuE+b9E/nYETl4HfDUV+wrtryPxKM6WB89dVXk5UvVVlxP8GYrrBLS0tJY7Nr1y6CscOfsugFjEJuvKk9cWy9leU9BCPBKHI19RBT4tQHEEA69XaPuf69glE6Ai8rDu9bW/wmS67fkWAkGEWeph7izbMPjC+88MLv3kSLn3jq7R5z/QcBo3SILMrO8T8SjOlgpI8xfYorstpleO3aNS8Y+eZ5mDEbFIwQNvgfZfdMiv+RYEwH49tvv71YCoLlIL7rzJkz1ebNm52Kun379gr/96XF9/BjXr9+ndO8BP/XlStXnP0NK5JvnmcKRnkSw/+I3SSxy3sIxnQwSl/XhVu3bnUqKizOurT8f7oiE4zpfda1nA1uMdoNxM+cwu8I8IX8jwRjd2B84oknnGCkw78bBSYYu+lXmy0pn0cHRqk8theGlvcQjNMAo2xrw/QaC5jx4qDL6SHybpI/6icy6AuRvyyWxzY9pMHn3HJDPkZfHWK/1/2PMcCLHnwXmz7nPvRJTjqdBn2JfoXMoN4x4yLpdVqkz2nvaMGIRuL8QpyF6NpeSDCOF4zwZe7Zs8dpdcrbV0zX4a+sE1oINu6Ff1MufLbTQRnl5RLSiJLA57lt27bHaZGHyyUAqw3/Q/0kLULki/YgH/m/tMEVwtpG/iE/q/QPtvXh2rlzp7evUHf7QhnIQ9dTx/E/5Ouqn/4OY4R764D+5ptvVihT1wN11mUiDsBLW/T/UA6+lwv52GUCfFj/irfwPh831m7a445y8B3agX73pcXYpQB71GCUzsUpNrb/kWAcHxgBA614sXEonoy1HfryFPhB2G0IAHKSj2vhNJRH/o97bWUSpUXesW1w3QdldFk6aK/r/pTvXGAMWZ51ebvykz7CA8yVXvoJ5dp+ad1ul2tGHhyAIUDpyt/3nZSLOguIfffa38fCcRJglAHC8WayvRDTbFiU8j9Z+hPyS3bxP9RjKnulpa/qQpcgQ8BCPkYIqS2EKZ/xRttVLx8YUR7SuMrQoBUr0r4PCuKzAMUqgQLa6XI+S37SvjbAKGBpM09YxZKfDn1gRB18MwNM2SUPG5roQ1/fx/QvYGg/zGLS4R5AWOoVCicFRmkIfsnv2W3fEIzPGKsxZq+09F9dmArG0ALlWIHFfbayo54+MIby1ZD1gTGUXit1qjXjytfevtcGGHUdm1iKdn1d2zl9YLTT6s/aaneBUd/bdzzGapwkGKEwWN6jz0GkxXi5unjxi6inYdtgjHn6+2CrlQL52HXLASOsGMknB4xaqe1puq5vSlwrYxtg1Pml1CPmXpmqSh/mgFFb7WMDowv+0lYJJwtGaYCEBOMwYISC+pQNMLStQPie4GD3pdEKj7HNAaOeEuaAUdcZCo48oEz4HpYapsaAh1xoE2Aasi41KHA/fKRyhcCD/sD99iVyj3J9fYnvUS7ykLoijrbUpZH8EYbq58tHP1xSwYhpcmoaXY+6h7CWD91OHS8GjPA/4tDYlN0zbfgcx+Bj3LHj3WrLlksVfl9GD25u3CdYLh8jFE8LpY7bvjVdHx9E7Kd5ChgBXABEl5MCRg0vnUdKXLdfx1EPXz6hqbAvjXzverkk5doPGUmDEGMj99mhPfVPASPutS3OGMihf9APWmZiXTSw6uFz1mOPuN0u+eySY903iDf922RnOOTnvk4P10AdEowAIk4Lf+WVjxYnp7fV9ylg9Fl/IRCgnj6g2k/zGDDCGa99brofYsAIn6StzDqPlDjqLwqoQxs2Os+Q1afvc8V9Dxi7H11pfWOAeuv+iAEjytNpdHk+MMIytB+EOh3iITeNC8I6vU828b2+zxUvCozSQJzec+TAWvT2Qg261PhQYMQp4Xv3XqlwYri0u60wBYxQeA0AiddZXz4Y4Omv21EHRlgK+n47HgIjgKqtDDttzmffm3IAzJefry/Ql740+B4gkv62Qz2V9eUR6lsNuRAY0a6QZYqyfWCsGzuk9S3H0S/YfO3zjf1swSgdhdPDcXJPzuk9sYDsG4x4+4zr8uWvgkojfZATpoDRZ7HUWQK+6aNtWYWUt04h0Xafcrhe9OT0lZ3GB5G+wYh+s+tmf0b/2UCVz3pK62sT7rXzdH32gbFORpAXwZhwGomr8/GW2vW9nB7u2j0TC7/QfX2BUabNy8ufbngb72pz0+/aACPAgyczLED7wvc+gU8BY4y15wOjXU7TPpP0PohMDYy6b31tIhj9E+7R+BixtxoA07/YJ8KKsM3TwzUo+wAj/IhLSx+26kfUfWPH2wCjWB6poQ2skMWolddug3xuE4woD5YupoC+C9B3tZlg/P2vHtJibGgNipCHQizXwTZBWIb4+QS8iHHd38bp4X2BEVPm3bvf78SP6Oob+Y5g3HjaCyDogl3Kd5hOSv/aYRc+xqZTaf3QocXotwx9/xmNxajXMWLJDiw5/ACXXgSuBVLub7q8pwuLEUDEy5W2FmzrdsfECUYDRt9b5hQo4l6CkRaj98kYo5S59wjotDWHly4AH17CuPLFXuuc08N1GW2CUfyIJ0/e2LDd0VX3Lr8bEoz2S5Ehp9KhsgnG30AXI4d8+dLDlNk3EC4wCsAAr5cPfbfhsAedj+v0HklbF7YFRliIBw9+sPCF6roNEW8DjPDtYYqYcmHKCh+ebnMITnq6p9PoeBMfo89fmApFWozuE+HpY+wBmCEwAm6wHOF/fO34D17/I3bP4N6U5T1NwYhpMyzFtnataCjkxtsAY906xti6DQlGHwDxlh1Qxlo/faFNPn9c31Np+wHj6m8u1zEuE7t/fL7D2O9H6WMMWXkCSLzFtjtDPtedHq7zzwUjYAgr8fx5czyTlD90mAJG37IbAKKNdgwFxtDi6ZCl6ttN0jcY+1rgHTPGnEr3YBn6BqLOYtQw01YhrERXnnir7Ts9XOeVCkbxIx492u42Plcbcr9LASOsJ5dlhe9zy9fphgJjaC+x3hWi64o4poeu/ugCjCjPt8AeLgS7bvZn3y4d1F/f67OC7ft0Gh0nGCcERoEbwIbTweFn1IMpcRxCC/8k7pM0OkwBY5fb+KS+bYQpYAwpV8iyctXTBZwxgjHUrr7B6POhAlroO1c/47vQNNpeS0owxk6gzX2Tm0prqElcptd4Q61PBddC5dteGANG+BFxjcmPqNtmx1PAGAIXlBMvVMQfJ+UAgPgOx24BJKLcLmd8KP8QoKQsyRt10Zet/HK/DvX9Ou46oAFt8ZWFtOhTnbeO565jRB6+rZVSX9QJ9+CQDcAQ8bolSPY4EIwGeLGxIsBoAxLTci24Oo7Tw/X2whAYZdqMbXw6j7HHU8CItogSNg2hxHbfDAlGn/9U2umbIsr/ddgVGNFfucf86/rpuG25E4yxODT3FQVGASR20Bzet+bdXgj/I3bXAJC47N98wRa+Lo4Ds6HR1edUMLaxMwSK6do2NyQYfdNiDZHYeJdghLUaW4+6+zCWtlwRjAZ4sbEiwSiAhDUIAPoOqMD2Qtyr92fjGDBYil0cB2YLbFefU8GIetRNz+oUUv5vWytDghHtkno1DbsEI+rZxsMJAHTJFMEYi0NzX9FgBPTE/xjaXqj9kjruErIpfOebmtWdfNyGhQU/mO6jpmD0nXCNabIuxxcPvaRwwRL+QleZ6FNfGU18jDpPWI6+h5qrrvq70PKepmD01cn2Zeq2SNx3UC3PY4x80526XEeswtgQi74xxfZtL5SBLCF0HReGH5iKEUZYfFjLV+efg1ICFigL99tAlH7ESwOUjfv0he/0mYFyvx1CqbF0SKfFZ9cLFDutfEY5LtgJWJC3BgtecNhlhh4qABrq47qkDikhHibIywckqTfqqOvtKwPWqN0etDnUJp0X7kV6fWH8YspGO3Q6xJE2ZgOBjL2dPkaOje2XFyveYrTBCTjidHA9fdZCwPjG3QTy9hnKj0vejk61n1B/aUfMW/ExtBP1xINH6h3zQBlDvYesQx4OTarZgVFPr0PbC4ccVJa9Ec7sD/ZHqgwYxOXFZglGsSLhf8QvE/oWh6cOBu+nAlMGxiEDeTg0qWYNRgDSXsdIwR6HYHMcOA5NZMAgLi9GMO68tWEdY5PBYFoqM2VgHDKQh0OTimAkGL3LUKjk41ByjkP6OBjE5cUIRoKRYIxcUkZApQNqqD7Lw6FJRTASjAQjwVicDBjE5cUIRoKxOKUYykphueOxKPNwaFIRjAQjwUiLsTgZMIjLixGMBGNxSkHLbTyW21BjkYdDk4pgJBgJRlqMxcmAQVxejGAkGItTiqGsFJY7Hks1D4cmFcFIMBKMtBiLkwGDuLwYwUgwFqcUtNzGY7kNNRZ5ODSpCEaCkWCkxVicDBjE5cUIRoKxOKUYykphueOxVPNwaFIRjAQjwUiLsTgZMIjLixGMBGNxSkHLbTyW21BjkYdDk2pUYMRPmcohsn2FPI+RSjSU8rLc7mTPIC4vNhow4tf5zr5+Z3GiNk7WJhi7ExoqJPu2dBnIw6FJNRowykDhN6CPvfj94mTtPuBIi5GQENljWI4sGMTlxUYHRhHOG9fvVYf3rS1+8rRLQBKM5SiDyA5DjmkeDk2q0YJRhPvSWz8v4NjV9JpgpBKJrDEsRxYM4vJiowcjhBX+x+XTtyu8nGkbkARjOcpAsHEsRQbycGhSTQKM0lj8zOnLh75r1f9IMFKZRL4YliMLBnF5sUmBUQT3k4/vLd5a73uu+dtrgrEcZRD5YMgxzcOhSTVJMIrgXzj308J6bDK9JhipRCJPDMuRBYO4vNikwQhBXl+/X712/Ids/yPBWI4yEGwcS5GBPByaVJMHo3TE56sPqyMH1pL9jwQjlUlkiGE5smAQlxcrBowi1Neu3q3ge4z1PxKM5SiDyABDjmkeDk2q4sAIpXj44Nfq3Bs/Rk2vCUYqEUFangwYxOXFigSjCDq2F544th6cXhOM5SmFjD/D+Y5tHg5NqqLBKIrx2coD7/ZCgnG+yiPywbA8GTCIy4vNAowi+O+988vCetT+R4KxPKWQ8WY437HNw6FJNSswQlHkeDPZXkgwzld5CM5yx94gLi82OzCKMsjxZs9u+6bCUh/5nmG5ysKxnc/Y5uHQpJotGEVJsLyHYJyPwsi4Myx7zA3i8mKzByMVpGwF4fjOc3zzcGhSEYz8hTi6ESgDxcmAQVxejGCkUhSnFLQS52kl6nHPw6FJRTASjAQjZaA4GTCIy4sRjFSK4pRCWw6Mz9N6zMOhSUUwEowEI2WgOBkwiMuLEYxUiuKUglbiPK1EPe55ODSpCEaCkWCkDBQnAwZxeTGCkUpRnFJoy4HxeVqPeTg0qQhGgpFgpAwUJwMGcXkxgpFKUZxS0Eqcp5Woxz0PhyYVwUgwEoyUgeJkwCAuL/Z/AFlzIZTEgZ8AAAAASUVORK5CYII=;" vertex="1" parent="1">
          <mxGeometry x="-368" y="2190" width="206" height="87.83" as="geometry" />
        </mxCell>
        <mxCell id="t3DTqNQoftH0QR9HUmPb-96" style="edgeStyle=orthogonalEdgeStyle;rounded=0;orthogonalLoop=1;jettySize=auto;html=1;" edge="1" parent="1" source="t3DTqNQoftH0QR9HUmPb-91" target="t3DTqNQoftH0QR9HUmPb-95">
          <mxGeometry relative="1" as="geometry" />
        </mxCell>
        <mxCell id="t3DTqNQoftH0QR9HUmPb-97" value="&lt;font style=&quot;font-size: 14px;&quot;&gt;Resize&lt;/font&gt;" style="edgeLabel;html=1;align=center;verticalAlign=middle;resizable=0;points=[];" vertex="1" connectable="0" parent="t3DTqNQoftH0QR9HUmPb-96">
          <mxGeometry x="-0.2347" y="-4" relative="1" as="geometry">
            <mxPoint x="1" as="offset" />
          </mxGeometry>
        </mxCell>
        <mxCell id="t3DTqNQoftH0QR9HUmPb-91" value="" style="shape=image;verticalLabelPosition=bottom;labelBackgroundColor=default;verticalAlign=top;aspect=fixed;imageAspect=0;image=data:image/png,iVBORw0KGgoAAAANSUhEUgAAAO0AAABxCAYAAAA56SS3AAAgAElEQVR4Ae1dZ1gUVxcmiSl2jLFhRRERlAWk2XtFsXeNLUVjiCWfMVETY6JJjIiCBkRUrLFgjb0b7Gg0GnuJxhoLW8H8PN/z3uXisDszW1hkd5kf89zZ2ZlbzjnvaffOHY///vuPlEOhgSIDriMDHgqzXIdZCq8UXkEGFNAqnobiabmYDCigdTGGKdZWsbYKaBXQKpbWxWRAAa2LMUyxtIqlVUCrgFaxtC4mAwpoXYxhiqVVLK0CWgW0iqV1MRlQQOtiDFMsrWJpFdAqoFUsrYvJgAJaF2OYYmkVS6uAVgGtYmldTAbcArRXr9+kg4fTafmqdZSQlELTZvxIMROn0MjR49kx8cvpNGfeL7R0+RravG0HZZz5gx48fKQI6ysUVvBo34HDjAfgz+CRY6lr7/epQ/RAatGxN4FH4B/4c+7Pi/TPvfsKfyT445Kgffr0GR06cpSmzfiJOvcYSvUaR5FvWEcKCG9Pfo3aUr3gVuQX3Ip8VS3YUVfVkgLC2lFAWHvyD+9APuGdqHG7XvRxzP9o+669pFarbRaQC39dZs/iedMj4+w5m+uTc3sxVtM2+O9Hjx47tC2M6/ejJ8wOe8Z0++87lJC4JJdHDSI7MR6APz6q5uQT2IzqNGxK3gFNqH6j1ox/4I9vZGcKbdWd+g8bQ4uXraTrN287dIxytHaF/1wGtAAWBHXytO+pafve5BvWgQBGMLx6/UiqUb8x1QowHt4NmlDtBk1zD/zGgf9r+jdm9+McglMnpB0Tqo1bttskGEHNurJnIWSmh49PC1q7fpNN9UkJC8br3bC1WRu5bfq3I4BD6nlbrq9am0a+vi2ZAoQSFB4+PhFMUVpT3737D2nWz3HkF9GF6gW3zuURaA+6c/4AsPwAv4T8wb0ANVPC4Z2p18APCP2zpn13v8clQAsAtOs2kIEEFhTMBUjBfDAdzLXngKCwegB8VWuKmTCFYMWtYXqrzn2oct1QpgQgYMLDq3YoRbaOtqoeubYARk/vUKpeLyJP/cK2PKsE0ryFyfluC0rRN6QNVa8bzmgCugiPYuX9aMeufRbbgWINbB7NvJ3qfpGMV/byCM+B16gH5+gfrK89npEcnV3tP6cHLVzYWqrWVMvfKEQAmj0AlXsGAgFrXbthMwpv05NgKSwxMjY+kd7zDhHtC+p7q1IDgqtpqR65/9du2EQlvRqKtsHHU9U3jHr0G56vdtCHw78fo7crS7f1Wvn69Pedf2TbgStcw79FrkLlfXRECZpCWVWpG0az5ybI9kOOpu7wn1ODFpamdPVgJgRgmiOYL1cHLLdX3TDqGD3IojY/88d5eqNSA8k+eVZX0bIVv+ZLuMZO+JIq1BZXDHwcUGKlKwda7K8lYf1m5mxJJVSjfgR17jmEsrKyJMcD17VSvSbMK+B9kypRH+iMo2LtRrnnuI5D6jlch5KK7vO+ZD8sjdMd/ndq0F69doOKVZQGBpiImBaMBvPL1Qyit7wCmZWDpcNRspqKXYeA4F45gcB/AAHqsqTNtTod+ahaSNYJ4Ro4/JN8CVe52mEsBLDUZ4/36tPpjLP5aqtd135Us36kKH08a6gocXGqZP1IXHn5NmFurFRfQXvOn7ZR/Vj2eMy4yfTphK8I5YjR42jIyLHUon0PBmLwDvebghgeV4du/SX74g6gtDQGpwftWyIuGwQAwAJjcQ4h+PKbWZSQtJRS12ygtK27co+Fyctp1uz5TCjCmndhoDYVBFNBQxxVoW6kxazl5199K2kJAf4yNULsFi54GR5lfEVBZNpfgCp56Qq720I4ULJGkGR+4HVPX7p562/R+hFfNmvfkwHNtF/8N8AH2oMPuw/8TlDGt27fobv/3KO7/9xn5d937rJrl69ep2MnMxj/Zvw4l/EWz+MAr6v7RSigtYTqwvwfzOWgzQWqVyCpIjswkAKcJ06dYULw4MFDevL0KWVmZpJWq809kFh6/PhfglD8dekqrV6/maL7DmPg5UIlVpavFUyTpn4nKqicJgcO/05vvOcvCSyPCv52x7Wbtu6gklWkY0xhn5lVHzZGtq+8z2Lllm07qaRXoOg4oOAiW0VLusaLliwnTxnAw/OZ/PUsRnvwQW8wWOxnVlY249+jx48Zb/ce/J0AYPD9zXJ+NOqT8RbrEBunu1xzakv74OFjeq2YN731bn3GsGnfzqbN2/fSxb+uEEAKcILBtjADluH6jVuUsGg5q1co/MJzxLfeDZvJZpNRFzKbUCjCZ/k5LGDKslU29Y+PZeqMHyStOK+fl7DqSKLZm1WdNGWGZFsYQ+y8XyTHENYiilk/3hdhiZDkw5gvGK/4uOwpAXQAGHzfvG03s8j21OMuzzg1aJH4WL1mI6WuWm8E6sNHhFjSEcSHBf5hTjxzu4SCJjx/p0pDOnTkmGx7Qz/4lGU0hc/x8/xYwMato0VjTCkFUaxCAJ2/8JdsX6XoFtS4o2hbGMfrlQIISTexZ7HoASGKVJIQfYJ3I/asvdccxX9723eG55watCAQrAdc3oIg1r//PqF6QcYFGhxowhJu389zF8i2jWmZ4hKuJYtrvVSyz4uNC6uc3invbwYGALZd1/6ilt3ebDUDnlegWVugA1MQqhaSinLTlu2SU1J4Fu6sXMZZbOzKNcsvRDg9aAuaiVhxhKSWEKz83Ms3jPoM+kAWdEjQwIXkz5iWHuXr07nzF2TrMB3jwSPpVKKyeda8dDW426tF+4u+jomZZFM7aBfAKyGhdEAX0Me0f/z3spW/Uplq4mOv4RdBnaIHSj7L61BKyyA1pVGRB+3+g0foTRGAAHyYXqgT2FxW8AwGA3XqPohqSEyXlK2uoiXLV8vWYcqU2XMXmMWYsFyVfEJZUg0ZVGYFBSvB0NfgJh1JrdbY1Na4SdOoSt1QUaUDuqQfPyVZX2LyMsnwAv1p3Cb/q8JMaaP8VjYrp5u3/5a0NIjVYEUtCUpcfJKk8MICDh0VY7EOYRu9B44yUwJI6iB+xn3d+48gWDKhVUdfi1cJpOs3b9nUViV/rNE2T6RBKXgHNqNMmZcpFi9dSVBKwn7wc/SndM1gevzvE5v6I6SDci5uhYu8pX3y5ClVq2duubjwIRn17NlzWcE7d/4iveFZT1R4AYh360ZYbQHRVjnvULMYE8pjUcpy1o/5C5JFlUSJKg2Zu2utsGOuFO47H6uwhGs8OuYL2XHv3ndQdlVYuVrB9FNs0V5yaC0vbLmvyIMWiRL/kFZm7iYXYMwTYwGAHFG1Wh01CG0rWYdHxQA6c1Y8A2tab/rRk6KrwKA8Ms4YX/k7eTpDdH4YSx7h7prWKfV79do0KisRk75ZIYC27dgtWxemzqTiYdAP1rpmYEtasWa9bD1S/VOuK5ZWUnAahkkDDqC1tFAewjVh8jeiCSIIL1zIBUlLJNsXCuf8hclU3uRFBAh/Nb9IUmuM8eqjx/+Sl4h3gLga0zfC+uTOkbiC+84VFC/RHuq/d/+BbF06nZ6thpKK51Ef+h0Q0YEmTJ5uc0JOru9F+b8ib2nBfEeAds/+gwTrxAVfWAIYfQd/KAsALoS4r2q98Dz1IJ7tMWBk7vPwDrr1Hioa1yLDfOeu/Ns4vK2KvpGi8SzaGzBstFXTNchmvy3z4gToAFBjak3VojsD7979hyyGHLyPSmlubd0StMigIja0NpPqCNCiPamXGxDX1gpoYlFQUQey1aaJIcSziGOFAhw7b6FoXFuqaiBt2y7v1qKeS1euEpZZCpULPy9RVUUr12zI056wbeE5liY2btvDLHHG6+IlxgTrDfA2ahlNjdv2pcnTZtJvO/coW/9IbCsjpLPw3GVBC0Bi/hPx0owfYmnYR+OoeadB1Lx5H2rarh8TCpT4jetwz3Af7j96/GSepXCYKoFLyAVMWFrrHoOo/Yd/QlV981pJXhemT3hMKmSA8PzsufP0lsh6Y6xvRhwrvBdb0Iite0ZcO33m7Dz3Cp/j55hjlcr82jJm1HfgcDqbopKiIacBSoAXlterbjjVD2lNYa2iKSLCaIEBYGu9BD6Ooli6HGhhIebGJ1HLbkMotG0vUjXpTA3C2pJPw2ZMELBrBAQi98j57R/Smt2H+8Pb9KDQDn2pU6/hTNsHhrczy9ZyQbNFgJHYgZXizwpLZFItxbXY2MwUSDy+RBwrFFCsva5Qu5GZsgEgVJGW41pMQ4nFs1A6nXu9b5VrzPuD2DZpyUp6p6R1byVxugDAeLEdPAN/gpp3pbCO/eiDsf+jDRu3KgCWsMAuA1q4jgBrSKue1DC8PUtwIMkBpoP5UutfuYDgfy4kTNP74YXrSKbtfXM2GeP3CktbQIuEFe4XPs/P0RbiUC7oYuX7H5gDCfOxeM50OSB+R/UcIhrX4gULuflReCmV6onHs3DFl65YI9tPsb7jDatZP86n4tVUFl1lThNhCf5wvtRVNaeQ5lEMwPCOoKjF2iyq11wCtH9dukIDRsRQcNPOVLluGFupJGR4fs7xNo/c87aAFqujwluJL/SHUNb0b0L/PhFfbKDRaMkvpLXZS+8Va4fQj7HzRYX2ux9iCf+b9r/Ye/50VGYlE8KK1yqKJ82KFfdhb0HZAwhsezo/eQVFtu5GJaurzLwA035K/eYAruwbTg3D21HLrkPYS/jPnxfMGnR7xlqYzzg9aDMy/qDmXQZRDWwSlrNDnxSz+XW4lKYH/8/W0hbQgpE//Dyf3q0ZZAYktIs5TamtSC9dvkpvi6wBfqtiAGGppZiQ7Nl/iPC/6ZjerRXMvBKxZ3AtKSWVkGU2fQ47V4Q27kJQPlLPWrr+7PlzOpx+nL76fg5bVlnSS0WVfULtBjB4DkUNl7/v+2Pp6vUbdvfNUt9d5X+nBu2Fi5cosk1vxjRoX1Mh478BUAgGBKRkpYZUP7gVNWkTzYSGx6vsv4oN2D1lawSz+yGkeJbXI1baClokm7AQQqwuNl+7aKmo0G3YtFUUSKWrqiQ37n7y5Al5vGu+ogkKDi/6SwnhwGGjRV8nhLKB0pF6zpbrsLoHDqXTnPhkGjF6AoEPJSs2yKW7GH3krsF1xsq1li37EuTClr64271OC1q4kc2a9aLKdcQXs4PBABzAiOzvpxOm0vxFy2nDpp20e98hpu0hNHsPHKEdew7Qhi27KHV1Grvnm1lxNGbcl9QxeiADuBxwbQUtFkD4S6yOgtBhR30xIcIO+9hpUCi4UCp4FU/O8jXv1MfsXVgouHLVg0nMncS1mgFNzdxwtFuskuUMt1jf5a5BsSC8AR8WLFpB4yd/S83b92QAxm6WUvtSCenAzzGuitWDqVX0ENGxyfXDnf5zWtDOnB1HnpXFt0ABEwE0JGm+mjGHafRr128QXDM55uj1enYPVvpcuXadTpzKoJVr0ghby3DBMC1tBS3ax04QleqYv+4HoStTRSUqcNUbtjADEuLV6TN/lh0T/peKa8+e+9Ps2eMnMkQ9AdDTr1Gb3FVXcnS097/nmZl04+ZtSj92klJS19GkaTOZ4gR4rQUwaAiPJTFFeqM5e/vnKs85JWiRha3m21gyhoWAYbpi6Yq1kq6jtQzA+7BS74QCwPaAFgvpxWJN1IckEYAj7B/GK+bmYs7W0vpfbA4uNreLuBaxq7AdnGOZJP4zVU5QMljsYHp/Qf3GVkHYvA6Kc9X6zQzA1iaw4Cr7hXWgR4/yToMVVF+drV6nBG1SynLyFEmUcEErUU3FNvqC5s4vQQEYqRjUXtDCJazhb0yG8T7zEoABcIT93r5zLxUXmSry8PS1uO4ZixE83q5tBkLMt2IKSdgOzqN6Yfmj+VapAD4SSKb3v4rf8IAAYLQ/M/YXFv8iR8FpJlbC2q5P21Io/X0VNJFrwylB24XNP5oLFpjH3ThHfVUNb6q8Vl58OR/as8fSguBDRo0VXbwAwHQ3+SLAdz/Gmm0UjlgPGVO5eBbt4H+/huZb5hg3pmtOmEriAgDLVMU33GxOGzSto2ppMbzg9RRkiUUkiH+j+49gSSsxwOIa8gN9rFzPXZD9LYy6nQ60SEB5VlWZCRZnHtw4fMbSUcTKyDhLHjLboNoLWqxuKimyOoolid4LzBPXtunS18z6YTeJ8V98bdU4pWLoYhX86U/BZm/49IeYVwGa4msGjqKpI+rB1FhgRDvJRBXoiB0ohUrJEe26Qh1OB1owSyy+46DFXOev6zc6TMDSNm2j4jLfy7EXtDdv3pZewODplxvXwvqVqWK+sRoAj72PrREixL1icS2mi1b9+nLh/w9z5onGs4i/ERtb09arvCcuYRGVltgZA/KA1VvWfHfpVfb5VbTldKDds+8Qm3rgIDUtAaKdu/c7TMCmfvuDrBtmL2jhtjbv3FfUUggXP8D6Fa9kvkDiNc96krv6mwoGkmliiyUwhTRq9IRcWkW06mZm0eEaI/5GHG5ab2H//vPiJclN1CEX8BoQ3hR2P191+04HWgBSard7MAr/4W0QRxAKGUy/COk3fNAeQGuvYMyOTRCdTsLGbL0GjmJjmLcAL73nzeZijXRF70aks3KPZ9yHnTPwnFDJIS4OadqZbeqOtcigHbZ1Fd4jlbByBH3zWweShHKZfYxH6nMl+W3bmZ93StAWl1hRBGGDS2Tr7oZSDAD4S8lkqdHe6xUD6NKVa3YpCbj6b5aomwckqBPAqeATTpmZaho0fIzZDv0A0qARY21qc8xnk8xeC0Q7sMC3/r7D5kbfEdl1ElnrtRs229SWFD0dfR2fhZHaKRMKCrE4aOjodp29PqcDbfqxE/S6TGIICZrPPs9/IgqT/GER3cwAI7RCOMfnLI/YORWC1VG16oq/TVPKK5CwdhjvlJpaPwDN1jdtELsWr2q+GAVA3bVnP/0ct8DMomN86Md9C9vKFJYQp65aS2VriK/jxlxtk7bdixxgwQunA+21GzfJo6z4zoYQMsRg3sFt6O49+c3W5AQNgO099BN6z8t80bwpaMtg9Y3MZx7l2sF/yHSLzTnCRe439GNRpQG3T2w1k1xbly5fk8wMI7sc1WuIWVuYNunSU/51Qbk2z5w9RzgQZsjdZ89/cOdVTbqyVy9NeYLfWMX2zffyq8XsadcVnnE60DLrFCC+Fy9nXjnvEJoy/Ue7BOX39OMMsEjSmFo4Xr+whKuKzcjtZSaysm9LuPv1glqY9QFun3eDpja7fYhrg5p0MotroeTCW3Qlv6CWZm3Boicvse8TmVB8bdr2ojY9h1HM518TrOL9Bw/tppOQvgDsZ//7ht6raf7aIecNQqjjJ/OuLBPW4c7nTgdaEHv4x+PM4jPOLJQQRLiVCxcts0q4Effg/VLswduq6yC2cZo1gEVbLC6sGUR/nLPt0x5caPC1NygZ0ySRcDzCcyiJ3oOMSSpeh7Xl6BjzuJaPQWy8rxf3YZ+StLZ+4X3HTpymN8r6UMWcj3WHt+pGPYaMpdj5SYStcOzxhLAHNTZ9G/bxRDZPL9ZnjAceQvvowVbxXthndzl3StDu2L2fipeWdpHBOOxY0ahZF+o37DOm5QFKvAQAC4Dj8pVrtGvvASZEuKdDj6GkimhPlevm3cPJ9M0aIYD4OUBnaeNuOYFAphhg5PXJlfh4clxCkl0WK3XVOtGpH7H2avpHUmTTbqTX2/fuLL7+jsw66ga4wI+KdUJJFdGBOnQfQtGDP6EhYyczRbl6XRoDMhQf+CI84F5v3LKd8anP8M+obbeBzI2HYhbrN64VrxBAm62cw5bji6v+55SgffrsGTVt1YNpVCnG4ToYi6kRaHmAsnP/D6lr/4+Mx4CPqE3XAUyIcA+2JTXV3HAPB438lObMS5QVdrSDbK+91nbV2jTRJJHY2LANK6yYPQKFuFYuiSdsDzEhpqTsaQfPALTIrAvr5DxBvA4Awwpj/67GbbtT2+hB1LH3SOrU78M8R1SfEdSsQy8jn+qEmsXdpvWX9vSnj2O+IsiIvX139eecErQgKrO2VTGvKK1xOUOh5QFKCAkTljqhzKKKfaiKP1O6SiD1GjKafXsVLqyqSReC9eH/m5bIssb/stguQbl162+rXGSMtapfpN0CibjWR4XY1TLNEBNK7aJhjVDjUyge79SRpBenHxQe5w+8HMYj8CnnAN/k+MTrwZgA2CHvxxBew7Smj+56j9OCFgL45XexVKqqyioh5My1VAKYpWsGMW0t/Fhy4uLl7MVssecRQ+H7r1Ak9ggCXNC2UX0tbngGF7pb7/ftaoP3Cx/psuSKgwaBkR3z9e4sLF3HqEHMQ7FGSYjR1dproD8y8B+P+YIuXLycL/pwOrly6bSgBVExfzj+q5nkWTNY1gpaw3ymqWsGUXiLKJo5N9FMW2NL0o7dh7BtSYX1AeCRraMpflGq3RYQY0lIXCK70gttYqFDQlJKvoQyeekK0df8hGPC3OcXU6W/O2utQCN7+/G4KYw/2M7V0eBlCraaitpHD6CFySvMeGZtP93tPqcGLYh94+YtmjpzLjVq1pnwZXZrN3fjQor7PWsFs/h31Gdf0fqNWyW3Fz14OJ0aRrSnSnVC2Wt1aG/Qh+NZoiS/K28wjnohbcnTS8X6gz7lObxU7P9r12/mC7R4Xradqiqq2aAZnXDQdMnFS5dpVmwiDRwRwxQexoQNCuDy2gNi8AvPg05tovrRhCmzmIeTX/q7E3CdHrQgNhazA2wffTaFsOjds3wDJvAAF4RDeIDhuM4AUb4BY/ynk7+j5KWryRpAoJ3ofiOp1+CPaPqP8XThguM2EUPdX3w9m2K+/N7swHX87wjhQj1fTp9j1gbaRTsr1qQRXjx3RFuoA4sr8FXA+Ump9MWMWBo+egJ72T4gtI2RVzWC6F3vRowvXCGixIHrjFdVVeyVTPB38KgYmj5rHgOro+Z+HTVWZ6jHJUDLCQVrhemBWbMSCEAc+tF46j5gFBMQ7MiAo8eAUTR89ET2P+5DHGrrpyYwfXT85OkCmQfEwoG7/9wzO3Cdj9MRJRTdq2jHtK8Yx7k/LxK8FigH8ADWcvSEaTRy7P8Yb0aN+ZyVn0yYyq5DmUz7Po7mzE9h/IUCUCyr+Ye3OK1dCrS807ASACKEA1MPEBB+AHCwjvjfkdaEt62U0sIkRhvwANYSCheuNHjDD3g+uA7lYmlTPrG6i+o1lwRtUWWWMm7bFIa70ksBrcRHjtyV4cq4XB/4CmgV0Do0llaUQsErBQW0CmgV0LqYDCigdTGGKZas4C2Zs9NYAa0CWsXSupgMKKB1MYY5uxVQ+lfwnoACWgW0rmFps3T0Qv+cHf9l6VyjzwUkWwpoC4iwisWx3eK80Dyh7HvnKOv6ITKcX0uG0wtJnz7VeByeRPqD440Hzvn1E7FkuLCRsu9m0IvMB0UCzApoFdAWqqC/eHqXsq7uIf2JWNLviyHtxt6kWd2WNEsiSP1LXVLPKyN/LKhOmtRmpE3rTrrdYxjQAXx3VpqFClowrKi7Ou4sXJJjy9IxywhLqtv5AWlWNif1gup5wRlfhdQ4EqrJH/y+eWUoM64MA7o2rTdlP77qtsAtNNDCndHt+ID0hydR1q2jbktgScEtohYeVlCfPoNZxjyW1BqAWgIw/o+vQpmxHqQ/uchtZarQQKs/nkiZczyYdtWu7cjcI3fWjkUdvEgiGc4sY+6vOr6S0aoKgcotpqXSGuDGlSLtbxMV0Dpa6GBd1UvCXrpEC6qTbttgMmQkE3Obi6glcjSdnaU+/bGfSZ1Ym9SxHqSOK5XLd+bSIm6Fe5xUn8WyiFE1qa0FRzNSJweye3LvFwLeFMjxlUi7ybbPqjgLnazpR6FZWnTOcHErwcoyRoAJYF5SfRbnIHuogNf2DKw1TC+Me3TbY0izJIjFryxptG0w47PuwHhjJhhZ4IxkY9b4wkYmG5APduD3mWXMG8P9eJ6BXAq4AK1iaQtOeGBxkTjIBW4OeJE9RMyrgLfgaP8qwYtYFlMzyBQjn4FQCEoZbrMt/cD9eF7/+3fGRJUYcONKke7ATJvqtaUPhX1voVpaPngwFABlsQ5nAhIKcWWYu4QMowJe9wAv53l+S4BXs7ytUWZM3eNYDzKcWaWANr9EtvQ8tK7+8DTmHjM3mTPC1PKeWebW6XxLdFL+f6m8tDu+NMbHXFZ4GetBWbePKaB9FcLCMowZyaRZGmZ0lzkTUOZYXiQkkLDCZLy7T6K/Cpq7chu6vd8aE1tCOUmoxqZ83Hl1lFO4x6aCY/hjHWnWdabMOE/zCXZYXmQfF1Qn7dahZMhYSFm3jtMLrWM3RjPtk/L7pYUrSFq8UD+irJtHyHBmMRnOraAXz6U/aar9bRyp40rkXXwB5b6whttaWdDeKUGLjmXdySDttsGkXliH1PM88zImx/Iy8MZXIs3aKNIfmUKGS1sp+0n+9g0uSIFU6pYAPlZIPbnJ+Kc7OIk0q9sZs8OJvqTbN15y1Zzm1x7mMW1cadJu/lABbWEJW/aze6Q/+hNpUjGfK2J1heCNK0WapU1Jt/NjMmQkMW2tWF8JkDjJHHiuVT0Vx/gG/jFFDE8KHlXO6iZRVzdLR+pfvM09MSShzqcpoC0s0PJ22Xzupp5GrSpmdXlMw13n+CpMW+sPTyHDhfWUff9PeqHPdGtGclo5ewk+ZN05zVxf3YEcq4oVUhyonJcoweskX3qhfmzGu+zHV8zjWZa0LEtQ9s5Oh/z0z2ndY9NBZT+6TLqDX5F6sUo81hUyOwe8mXNLkXpxEGk3DyR9+nQjgB/+Jelumbap/HaMpYbHA8VpOL+G8UG7oTupE32J8UcMrCzp6Mk8LEPGUlEA6jNSzUEbV5o063qK3u9OvHQZ0HKiI0ml3dJfOtYVghfnpgBG8urEzJcWWP3I7ZnMafcqS+b65lhU5BugONVJAdJA5XzLCYO0G3uy1VBSfdZuGGSehIJrfGGL2/PT5UALJmY/uW2MdVe1kI51uRAIS+4+Q7vnWGAkPpClRMaSJbGK+K4IUiCxdB1uLzuB5F8AAAcFSURBVPjCM7+gK7eoeeJUIT+E5znWFZ6U7sAXBM9Kqk0oBPWCHIXM6wBvFweIutJS9bjqdZcELSd21rUDpNsxjNQpIZZdZs5cXgoBnOhLml+jjUmsHCuMaSQIofK+r4SLnJPxZSCF23t0Oul2ffIy8wvFKOb6cvoLS25d07oTPKn/srSSgAXvDZe2i7rG+vQ42ee43Lh66dKgBfGRpEDcA3eKvTAtl6gSCorwHAAWgnhxEJtGghByV9oI4ptFdj6YxaUP/zJaUoD0+ExjxhfTM0kBL7O+1gIV9AfN53mSZkUT0h2aStkPLloFOu2mYXldY9SzyNeoZJ0kM16QisHlQcuJwxJVR6aTdm17o8uco70t7nwgBC8/FwI4x5XGXDCmk1hG+tQcNqeILCissVtNLWEDNfUjygZAbx1n4zScmsPGjcUs8EjyxKa2gFRAX7ZwZmkE6XaNJMPl3VaB1aikH5E6vnyeqZ7MuaVJf2y+1XVwmXHV0m1AyxmQdfs46fZ/ShrEu+xla4n5XS5A1pQCEPOMJ+YUEbPBGrOFHQAyVvFc2cmmNCD0WM3DAO1scTLb2TDzJTiRMLqy09j/EzOJxaMA6NooNvcNN5ePm1lH0MMaupnew+PWlBC2cMZwdhW90D21CWyYg2Xv5PK6oZyXhRWJWJbLuNuBlg/McHmn0X1bHkbqhKqknleO1PFe9gkbFxBhGV/Z6KJhGR0/FtQgzcoOpN04gHQ7RpP+yNdkOPETGf5IoaxLGynryg7KuplO2ffPU/bja5T99A5lP/uHsAvhC4Oa/svWmx9y7p7J/ajjhe4Zqw/1sjYeXaasu2cp6+ZhY/uXNpLhj6VkOB1L+vTvWT/RX/RbvaDGy7HwMWGcwnHbcw66g/7JKtJuiCL98QQ2ds4rW0rN2q4vXWPUO7c4Gc6ttwn4trTnjPe6LWgZsQ0aYuDdO5E0a1qQeqG348ErFGIIuBiYcS3Rj9QpjUizKioX1Lp9E0m3fxLpj35P+lOxZDiTwABuOL+c+MHADsDjuLzVeOT85vdAKbBnAcTjP7H6UC8Uh+63UaTZ0NsIypRGxn6gz3ElKHOuQOHwvgvHk99zABUHLOvGaCNY/71hN8CgiIRWNjOuLJtKckZgFWSf3Bu0AisFt1l/cBpp17Uj9S8+BQteMWHnoBADtRBA+B8Wjx8AOz8WBZIaB//N7xHUmQeI3FqiFLYv1j9HXeNWdV450iwJJN3mnqQ/lWy3ZRUKv/5EIrOsxoRjOdKsbErZ+VACwrpd6bzIgJYzhe0GeGgG0/zqlHDK5NbAka5zfgEgBJg15/ltzxHPx3sZaZlQlTSrmpLutwHMbX2R+dBuy8p5hhKuv3pJOFM+4JlmWTBl3TjikLqF7bjCeZEDLWcK4kn96VTSbhvAhAzW1ykB7AhAFVQdAqsKBYh4Vbd3ohFMBo1DAZV1K53t3sl4tCS4SKx84rJqWhZZ0OYSwqBhQqaH9U2LZho8N/aFFXYmC1xQ4LO2XtAiD1BDWLgBqwoFWJCuqv7YQlLPK81c4qKwVDFXPgUhHr+mgFZAFFhfCASLfTdGkwaZZx7/FlUAC0EKVz0lhCX1dFv7GGNVfILDwVaVC6ewhCuca8UFPBPeU1TOFdBKCAAD8OWdBAuMZAriNExZsGyoM8bB1lpLS/cJQYpxLvRm3oc2Lco4J30qmZDUc6sFJRIy4KxKQAGtFQxDMgWaHvOLcAUhwNwK58bB3BJD6C0Bw1n+R18FIGVjia/Msr7IsjNrenAa8z6Y6/sKLKqzAsWZ+qWA1grQ5mGYQcNiN8z/sjh4+xAjiGGJU8Jz54KdCswcnCIAZe7u8jDSru9A2i19SLcnhmV9kWVXrKnEyxK2yoyD71dA6wCCwgoxS3w6lcXDzBpviGKxH+YqmVuds7AjD5iFbrYQWKbnQsts+p/pb16nsMSKsCQs7ghnbr4QoJhDhQLKfnBBAakDZCGPgi+g+hTQFgRhDWrKfnSVsm4cJn3GCtIfmU263eNIm9aZNOvakWZ1E9Isb0Sa1GBSJ/uyd3sZsBcFkDqxLqkX1ib1gpqkToCrneNuA5wMvPyal/Ee3Itn8OziIFKn+BvrXtWYtOtasza1v40g3f5ppD+WSFlX91EWs6L/OnRK5lUIq9KG0fIroC0I0ErVibXBz+8z0ADQABAD9bFE9pYKA/f+aaTbO8kI8u0fEgCn3TKEtFsGGkv8zjmgCNi9AOSR2QyU+j/WM2WRhU9v4H1grGnGIdUn5brL0UYBrbMLLQedWOnsfVf6VyAKQQGtIlgFIliKZS+4JJYCWgW0CmhdTAYU0LoYwxQLVnAWzFVoq4BWAa1iaV1MBhTQuhjDXMUaKP0sOI9AAa0CWsXSupgMKKB1MYYpFqzgLJir0Pb/pJspyZS9I4AAAAAASUVORK5CYII=;" vertex="1" parent="1">
          <mxGeometry x="207" y="2177.42" width="237" height="113" as="geometry" />
        </mxCell>
        <mxCell id="t3DTqNQoftH0QR9HUmPb-95" value="" style="sketch=0;points=[[0,0,0],[0.25,0,0],[0.5,0,0],[0.75,0,0],[1,0,0],[0,1,0],[0.25,1,0],[0.5,1,0],[0.75,1,0],[1,1,0],[0,0.25,0],[0,0.5,0],[0,0.75,0],[1,0.25,0],[1,0.5,0],[1,0.75,0]];outlineConnect=0;fontColor=#232F3E;fillColor=#ED7100;strokeColor=#ffffff;dashed=0;verticalLabelPosition=bottom;verticalAlign=top;align=center;html=1;fontSize=12;fontStyle=0;aspect=fixed;shape=mxgraph.aws4.resourceIcon;resIcon=mxgraph.aws4.ec2;" vertex="1" parent="1">
          <mxGeometry x="740" y="2194.92" width="78" height="78" as="geometry" />
        </mxCell>
        <mxCell id="t3DTqNQoftH0QR9HUmPb-100" value="" style="outlineConnect=0;dashed=0;verticalLabelPosition=bottom;verticalAlign=top;align=center;html=1;shape=mxgraph.aws3.kms;fillColor=#759C3E;gradientColor=none;" vertex="1" parent="1">
          <mxGeometry x="-120" y="1940" width="76.5" height="93" as="geometry" />
        </mxCell>
      </root>
    </mxGraphModel>
  </diagram>
</mxfile>
